<svg xmlns="http://www.w3.org/2000/svg" width="100" height="84.296" viewBox="0 0 100 84.296"><defs><style>.a{fill:#996297;}.b{fill:#af78ab;}.c{fill:#41374a;}.d{fill:#c198c5;}.e{fill:#d8add2;}.f{fill:#f1d5f0;}.g{fill:#e5cae9;}.h{fill:#f6e3f7;}.i{fill:#624371;}.j{fill:#dbbee0;}.k{fill:none;stroke:#000;stroke-miterlimit:10;stroke-width:0.192px;}.l{fill:#675371;}.m{fill:#4a374a;}.n{fill:#995b77;}.o{fill:#973e60;}.p{fill:#c5a8b9;}.q{fill:#18171b;}.r{fill:#121214;}.s{fill:#e3657f;}.t{fill:#dc5d79;}.u{fill:#f47184;}.v{fill:#de4860;}.w{fill:#ff8b93;}.x{fill:#c76586;}</style></defs><g transform="translate(-10.162 -18.168)"><path class="a" d="M88.3,54.426l11.316-5L86.066,58.507,88.3,54.273Z"/><path class="b" d="M88.376,54.2l-.077.077-1.54-5.7,12.856.847Z"/><path class="c" d="M86.066,58.507l-1.155,2.079-.462-.462-2.617-2.54L70.362,55.2v-.077l-1.309-1.155,10.008,1.848Z"/><path class="d" d="M44.419,45.881l-1.463,5.235L36.1,36.49Z"/><path class="c" d="M44.419,45.8l6.928,5.081-8.391.231,1.54-5.158-.077-.077Z"/><path class="d" d="M51.424,50.885l4.619-.154.308.077h0l2.309,2.232-.308.077-15.4-2Z"/><path class="c" d="M70.362,54.426v.77l-4.311-.847-.077-.077-9.623-3.464h0l-.308-.077-4.619.154,3.926-3.7Z"/><path class="e" d="M32.256,56.659l9.392,8.468-.077.077L24.942,53.5l-2.54,4.08-5-5.081,7.544-6.39,1.078-4,.154.308Z"/><path class="f" d="M82.833,44.188,74.75,50.5l1.694-12.163,10.162-1,.154,11.239-7.621,7.236h0Z"/><path class="b" d="M76.443,33.333v4.773L74.75,50.5l-2.925-3.464L73.98,31.024Z"/><path class="d" d="M81.832,57.583l-13.241-.077-2.463-3.079h.154Z"/><path class="g" d="M68.591,57.506l13.241.077-13.857,6Z"/><path class="d" d="M68.591,57.506l-.616,6.082-.077.077L58.661,53.041Z"/><path class="a" d="M66.128,54.426l2.463,3.079h0l-9.931-4.465-2.309-2.232Z"/><path class="d" d="M82.833,44.188l-3.7,11.624h-.693L69.9,54.965l-.385-.308Z"/><path class="h" d="M73.98,31.024,65.127,42.032l1.848-8.468-6.39-6.928,1.463-2.617.539-.924v-.077l2.155-3.926,2.925,6.082Z"/><path class="e" d="M62.587,23.018l-.539,1-1.463,2.54L60.2,20.323Z"/><path class="f" d="M56.659,19.938l4.234-1.771,3.849.847v.077l-2.155,3.926L60.2,20.323l-3.772-.231Z"/><path class="e" d="M60.585,26.713l6.39,6.851-1.848,8.468L54.734,20.323l5.851,6.313Z"/><path class="f" d="M46.728,29.869,33.872,35.72l-1.155-4.157Z"/><path class="g" d="M33.872,35.72l.385,10.316-.154.77-8.083-4.7Z"/><path class="f" d="M42.956,51.116l.616,9.315L32.256,56.659l2-9.7,1.771-10.47H36.1Z"/><path class="h" d="M36.028,36.182h0l-1.771,9.854L33.872,35.72l.231.077h0Z"/><path class="h" d="M34.1,46.805l-1.848,9.854L26.174,42.417l-.154-.308Z"/><path class="a" d="M102.386,45.42l7.775,4.773-1.232,1.386Z"/><path class="b" d="M109.469,47.575l.693,2.617-7.775-4.773Z"/><path class="i" d="M109.623,47.036l-.154.539-7.082-2.156Z"/><path class="e" d="M105.851,43.033l3.772,4-7.236-1.617.847-5,2.54,2.54Z"/><path class="b" d="M109.238,46.42l.077.231c-.308-.385-3-3.079-3.541-3.618l-.077-.077,2.309-2.156Z"/><path class="b" d="M108.93,51.578l-3.772,6.851-5.543-9.007,2.771-4Z"/><path class="a" d="M108.083,40.8l-6.159-.77-1.463-.154,1.463-2.54Z"/><path class="e" d="M99.615,49.423l5.543,9.007-5.466,3.079v.462Z"/><path class="d" d="M101.925,40.031l6.159.77-2.309,2.156-2.54-2.54-.847,5-.154-.308h0Z"/><path class="j" d="M102.232,45.112l.154.308-2.771,4L93.3,40.416l4.08-7.39Z"/><path class="d" d="M101.925,40.031l.308,5.081-1.771-5.235Z"/><path class="d" d="M99.615,49.423l.077,12.548v.693h0L93.3,57.275Z"/><path class="b" d="M93.3,57.275l6.39,5.389L89.453,64.973h0l-1.386-1.386Z"/><path class="g" d="M93.3,40.416l6.313,9.007-7.39-3.7-3.387-5.081,8.083-7.082Z"/><path class="f" d="M99.615,49.423,93.3,57.275l-7.236,1.232Z"/><path class="j" d="M99.615,49.423l-12.856-.847,5.466-2.848Z"/><path class="f" d="M95.535,29.407l6.39,7.929-1.463,2.54-3.079-6.851Z"/><path class="j" d="M95.535,29.407l1.848,3.618L85.219,26.174,95,29.253Z"/><path class="e" d="M97.383,33.025,86.605,37.336l-10.162,1,4.465-6.313Z"/><path class="g" d="M97.383,33.025l-16.474-1-6.62-6.543,10.931.693Z"/><path class="d" d="M97.383,33.025l-4.08,7.39,3.618-6.851-8.083,7.082-2.232-3.31Z"/><path class="e" d="M96.536,29.484,108.083,40.8l-6.159-3.464-6.39-7.929L95,29.253l.077-.231Z"/><path class="j" d="M95.073,29.022,81.216,22.171l6.236,1.463Z"/><path class="c" d="M93.072,68.437l-4.157,5.7L82.14,75.751Z"/><path class="a" d="M93.072,68.437,82.14,75.751,85.6,65.9l.308-.154Z"/><path class="d" d="M93.072,68.437l-7.159-2.694.231-.231-4.311-7.929,2.617,2.54,3.618,3.464-.077.077,1.463,1.309h0Z"/><path class="j" d="M88.838,40.647l3.387,5.081-5.466,2.848-.154-11.239Z"/><path class="c" d="M88.915,74.134l-.231,3.079L86.374,78.6Z"/><path class="a" d="M88.915,74.134,86.374,78.6l-.693.462L74.827,80.216l-.308.154,7.621-4.619Z"/><path class="e" d="M86.759,48.576l1.54,5.7-2.232,4.234L88.222,54.2Z"/><path class="e" d="M86.759,48.576l1.463,5.62-9.084,1.617h0Z"/><path class="i" d="M88.222,54.2l-2.156,4.311-6.774-2.694h-.154Z"/><path class="j" d="M81.832,57.583l4.311,7.929L67.975,63.818Z"/><path class="g" d="M81.216,22.171l13.857,6.851L95,29.253l-9.777-3.079Z"/><path class="k" d="M85.912,65.743,85.6,65.9l.077-.231Z"/><path class="k" d="M85.681,65.666,85.6,65.9l-6.543,4.08Z"/><path class="k" d="M85.681,79.061l-7.005,3.772h0Z"/><path class="e" d="M85.6,65.9,82.14,75.751l-3.079-5.774Z"/><path class="e" d="M84.911,60.585l1.155-2.079L93.3,57.275l-5.235,6.313L84.45,60.123Z"/><path class="b" d="M79.061,69.977l3.079,5.774L76.828,74.6Z"/><path class="c" d="M82.14,75.751,74.519,80.37h0L76.828,74.6Z"/><path class="d" d="M81.832,57.583l-15.55-3.156h-.154l-.077-.077,4.311.847Z"/><path class="h" d="M80.908,32.025l-4.465,6.313v-5L73.98,31.024l-1-3.387,1.155-2.156h.154Z"/><path class="e" d="M79.061,69.977l-6.62,2.386-18.4-7.852Z"/><path class="a" d="M76.828,74.6,74.519,80.37h0l-21.4-7.005Z"/><path class="b" d="M76.828,74.6,53.118,73.364l1-3.926Z"/><path class="f" d="M75.058,21.632l-1,3.849-2.463-2.309,1.617-3.079Z"/><path class="j" d="M73.21,20.092l8.006,2.079,4,4L75.058,21.632Z"/><path class="e" d="M71.824,47.036,74.75,50.5l-5.235,4.157-.154-.077Z"/><path class="c" d="M74.827,80.216l10.855-1.155-7.005,3.772L70.9,81.6l3.618-1.232h0Z"/><path class="e" d="M74.519,80.37,70.9,81.6,52.656,77.983l3.079-3.7Z"/><path class="e" d="M74.134,25.327v.154h-.077l1-3.849,10.162,4.542-10.931-.693Z"/><path class="e" d="M74.057,25.481h.077l-1.155,2.156-1.386-4.465Z"/><path class="d" d="M72.979,27.637l1,3.387-6.313-5.851,3.926-2Z"/><path class="g" d="M73.98,31.024,71.824,47.036,65.05,42.109l.077-.077Z"/><path class="j" d="M72.44,72.363l6.62-2.386L76.828,74.6l-22.71-5.158-.077-4.927Z"/><path class="b" d="M71.824,47.036,69.361,54.58,55.35,47.19Z"/><path class="f" d="M71.824,47.036,55.35,47.19l1.694-10.931,8.006,5.851Z"/><path class="c" d="M70.9,81.6l-7.467,1.155L52.348,81.524l.308-3.541Z"/><path class="l" d="M86.143,65.512l-.231.231-.231-.077-6.62,4.311L54.042,64.511l13.626-.77.308.077Z"/><path class="e" d="M58.661,53.041l9.007,10.7-24.1-3.31Z"/><path class="a" d="M67.667,63.741l-13.626.77-12.394.616,1.925-4.7Z"/><path class="j" d="M64.973,19.092l8.237,1-1.617,3.079-3.926,2-2.925-6.082v-.077Z"/><path class="j" d="M54.734,20.323,65.127,42.032l-.077.077-8.006-5.851,1.386-6.7Z"/><path class="h" d="M58.353,53.118,43.572,60.431l-.616-9.315Z"/><path class="e" d="M57.044,36.259,55.35,47.19l-.154-14.4h0Z"/><path class="f" d="M56.428,20.092l3.772.231.385,6.236-5.851-6.236,1.925-.385Z"/><path class="j" d="M56.659,19.938l-1.925.385H45.343L50.5,19.4Z"/><path class="b" d="M55.2,32.794l.154,14.4L52.271,33.256Z"/><path class="j" d="M47.5,38.722l-.308-.308,5.081-5.158L55.35,47.19Z"/><path class="g" d="M47.5,38.722,55.35,47.19,44.419,45.8l2.694-7.159Z"/><path class="b" d="M55.35,47.19l-3.926,3.7h-.077L44.419,45.8Z"/><path class="f" d="M54.042,64.511l.077,4.927L41.647,65.127Z"/><path class="e" d="M54.119,69.438l-1,3.926L41.57,65.2l.077-.077Z"/><path class="d" d="M53.118,73.364l-23.48-.616,2.309-6.774Z"/><path class="g" d="M53.118,73.364l-21.17-7.39L24.942,53.5,41.57,65.2Z"/><path class="l" d="M52.656,77.983l-.308,3.541L41.416,77.675Z"/><path class="e" d="M52.271,33.256c0-.077-.924-7.7-.924-7.7l3.926,7.313h0Z"/><path class="j" d="M51.347,25.481l.924,7.7c0,.077-5.543-3.387-5.543-3.387l-3.156-5.158Z"/><path class="h" d="M52.271,33.256,47.19,38.414l-2.463-3.156,2-5.389S52.194,33.333,52.271,33.256Z"/><path class="g" d="M43.572,24.711l3.156,5.158L32.717,31.563Z"/><path class="j" d="M44.727,35.258h0L34.1,35.8h0l12.625-5.928Z"/><path class="e" d="M45.5,20.862l2.848,1.309,3.31,3.31-6.62-3.618Z"/><path class="h" d="M45.343,20.323h9.392l3.7,9.238-1.386,6.7L55.2,32.794l-3.849-7.313-6.313-3.618,6.62,3.618-3.31-3.31L45.5,20.862l-12.7,4.08Z"/><path class="c" d="M41.416,77.675l10.931,3.849h0l-8.7-1.309-5.312.77Z"/><path class="b" d="M43.572,60.431l-1.925,4.7-9.392-8.468Z"/><path class="b" d="M41.416,77.675l-3.079,3.31L29.1,78.368Z"/><path class="j" d="M41.416,77.675,29.1,78.368,36.1,72.9Z"/><path class="g" d="M53.118,73.364l2.617.924-3.079,3.7-11.239-.308L36.1,72.9Z"/><path class="e" d="M44.419,45.8v.077L36.1,36.49h-.077v-.308h0l11.085,2.463Z"/><path class="e" d="M36.1,72.9,29.1,78.368,19.015,71.286l10.624,1.463Z"/><path class="g" d="M34.1,35.8l10.624-.539h0l2.463,3.156-.077.231L36.028,36.182Z"/><path class="g" d="M32.717,31.563l1.155,4.157L27.1,34.257Z"/><path class="h" d="M33.872,35.72l-7.852,6.39L15.4,43.495v-.231l9.007-8.93,2.309-.385.385.308Z"/><path class="f" d="M24.942,53.5l7.005,12.471L22.4,57.583h0Z"/><path class="j" d="M29.1,78.368l-7.621,1.386L14.55,73.6l4.465-2.309Z"/><path class="h" d="M32.794,24.942l12.7-4.08-.462,1,6.313,3.618-7.775-.77L32.717,31.563,27.1,34.257l-.385-.308-.077-2L25.1,33.564Z"/><path class="g" d="M26.636,31.948l.077,2-2.309.385.077-.077.462-.462.154-.231Z"/><path class="b" d="M24.942,46.112V53.5l-2.54,4.08-.693-.616L17.4,52.5Z"/><path class="g" d="M26.02,42.109l-1.078,4L15.55,47.267,15.4,43.495Z"/><path class="g" d="M25.1,33.564l-.154.231-.462.462Z"/><path class="h" d="M24.942,46.112,17.4,52.5,15.089,59.43l-4.927,3.464,1.078-7.082-.231-3.31,4.542-5.235Z"/><path class="g" d="M22.325,57.66l9.623,8.314-2.309,6.774L19.015,71.286l-1.232-8.237Z"/><path class="d" d="M17.4,52.5l5,5.081L15.089,59.43Z"/><path class="b" d="M22.4,57.583l-4.619,5.466-7.621-.154,4.927-3.464Z"/><path class="a" d="M21.478,79.754l-8.622-5.389,1.694-.77Z"/><path class="h" d="M17.783,63.048l1.232,8.237L14.55,73.6l-4.388-10.7Z"/><path class="e" d="M15.4,43.495l.154,3.772L11.008,52.5l3-4.927,1.309-4.08Z"/><path class="e" d="M10.162,62.895,14.55,73.6l-1.694.77-.231-.154Z"/><path class="k" d="M78.676,82.833h-.154L70.9,81.6Z"/><path class="m" d="M78.522,82.833l-15.089-.077L70.9,81.6Z"/><path d="M51.963,81.447l-7.775-1.155,8.16,1.232Z"/><path d="M39.03,80.523h-.154l-.154-.077Z"/><path d="M38.876,80.523h-.154v-.077Z"/><path d="M33.256,80.216h0Z"/><path class="n" d="M45.42,94.226l4.542.77,3.387-4.773"/><path class="m" d="M54.042,83.988l-4-1.463-1.848,2.54-.539,6.39,5.7-1.232L50.5,87.144Z"/><path class="o" d="M50.038,82.525l-1.848,2.54-9.315-4.542h.154Z"/><path class="m" d="M49.962,95l-3.541,7.467-3.156-.231L45.343,94.3l.077-.077Z"/><path d="M45.42,94.226l-.077.077v-.077Z"/><path class="p" d="M45.343,94.3l-2.079,7.929L41.8,101.155,43.495,95.3Z"/><path class="q" d="M54.042,83.988l-4-1.463-11.008-2,5.158-.539,6.543.924,9.007,1.54-3.772,4.08L53.272,90.3h0l-2.848-3.079Zm-9.854-3.7,7.775,1.155.385.077Z"/><path class="r" d="M45.343,94.226V94.3l-1.848,1H37.721l9.931-3.849,5.7-1.232-7.929,4Z"/><path d="M37.644,95.227l10.008-3.772L37.721,95.3Z"/><path class="s" d="M39.184,83.834l-2.617,5.158-6.7-1.155Z"/><path class="t" d="M39.184,83.834l-9.315,4-.385-4.465Z"/><path class="u" d="M39.184,83.834l-9.7-.462.385,4.465-7.082-5.081-2.617,2.463-.693-4.85,1.54-.385,12.086.231Z"/><path d="M39.184,83.834,33.1,80.216h.154Z"/><path d="M37.644,95.227l.077.077Z"/><path class="o" d="M38.722,80.523l.462,3.31L33.1,80.216,29.33,77.983l9.392,2.463Z"/><path class="v" d="M33.1,80.216l-11.47-.385,7.7-1.848Z"/><path class="m" d="M26.482,91.455l-4-2.463-2.309-3.772Z"/><path class="s" d="M48.191,85.065l-9.315-4.542h-.154l.385,2.925,8.622,7.467Z"/><path class="u" d="M39.107,83.449l.077.385-2.617,5.158,1.078,6.236,10.008-3.772.077-.539Z"/><path class="w" d="M19.477,80.37l10.008,3-8.468-3.387Z"/><path class="t" d="M36.567,88.992l-6.7-1.155-3.31,3.7.308.077,10.778,3.618h0Z"/><path class="x" d="M22.787,82.756l-2.617,2.463,6.313,6.236.077.077,3.31-3.7Z"/></g></svg>