<svg xmlns="http://www.w3.org/2000/svg" xmlns:xlink="http://www.w3.org/1999/xlink" width="97.8" height="66.303" viewBox="0 0 97.8 66.303"><defs><style>.a{fill:url(#a);}.b{fill:url(#b);}.c{fill:url(#c);}.d{fill:url(#d);}.e{fill:url(#e);}.f{fill:url(#f);}.g{fill:url(#g);}.h{fill:url(#h);}.i{fill:url(#i);}.j{fill:url(#j);}.k{fill:url(#k);}.l{fill:url(#l);}.m{fill:url(#m);}.n{fill:url(#n);}.o{fill:url(#o);}.p{fill:url(#p);}.q{fill:url(#q);}.r{fill:url(#r);}.s{fill:url(#s);}.t{fill:url(#t);}.u{fill:url(#u);}.v{fill:url(#v);}.w{fill:url(#w);}.x{fill:url(#x);}.y{fill:#e1a7a0;}.z{fill:url(#y);}.aa{fill:url(#z);}.ab{fill:url(#aa);}.ac{fill:url(#ab);}.ad{fill:url(#ac);}.ae{fill:url(#ad);}.af{fill:#a0e1c1;}.ag{fill:url(#ae);}.ah{fill:url(#af);}.ai{fill:url(#ag);}.aj{fill:url(#ah);}.ak{fill:url(#ai);}</style><linearGradient id="a" x1="-0.061" y1="0.499" x2="1.06" y2="0.499" gradientUnits="objectBoundingBox"><stop offset="0" stop-color="#dcba93" stop-opacity="0.102"/><stop offset="1" stop-color="#b8a563" stop-opacity="0"/></linearGradient><linearGradient id="b" x1="-0.058" y1="0.5" x2="1.062" y2="0.5" gradientUnits="objectBoundingBox"><stop offset="0" stop-color="#dcba93" stop-opacity="0.145"/><stop offset="1" stop-color="#b8a563" stop-opacity="0.031"/></linearGradient><linearGradient id="c" x1="-0.06" y1="0.499" x2="1.058" y2="0.499" gradientUnits="objectBoundingBox"><stop offset="0" stop-color="#dcba93" stop-opacity="0.188"/><stop offset="1" stop-color="#b8a563" stop-opacity="0.067"/></linearGradient><linearGradient id="d" x1="-0.058" y1="0.5" x2="1.059" y2="0.5" gradientUnits="objectBoundingBox"><stop offset="0" stop-color="#dcba93" stop-opacity="0.231"/><stop offset="1" stop-color="#b8a563" stop-opacity="0.102"/></linearGradient><linearGradient id="e" x1="-0.06" y1="0.5" x2="1.061" y2="0.5" gradientUnits="objectBoundingBox"><stop offset="0" stop-color="#dcba93" stop-opacity="0.278"/><stop offset="1" stop-color="#b8a563" stop-opacity="0.133"/></linearGradient><linearGradient id="f" x1="-0.057" y1="0.5" x2="1.062" y2="0.5" gradientUnits="objectBoundingBox"><stop offset="0" stop-color="#dcba93" stop-opacity="0.322"/><stop offset="1" stop-color="#b8a563" stop-opacity="0.169"/></linearGradient><linearGradient id="g" x1="-0.059" y1="0.5" x2="1.063" y2="0.5" gradientUnits="objectBoundingBox"><stop offset="0" stop-color="#dcba93" stop-opacity="0.369"/><stop offset="1" stop-color="#b8a563" stop-opacity="0.2"/></linearGradient><linearGradient id="h" x1="-0.055" y1="0.498" x2="1.064" y2="0.498" gradientUnits="objectBoundingBox"><stop offset="0" stop-color="#dcba93" stop-opacity="0.412"/><stop offset="1" stop-color="#b8a563" stop-opacity="0.231"/></linearGradient><linearGradient id="i" x1="-0.057" y1="0.498" x2="1.061" y2="0.498" gradientUnits="objectBoundingBox"><stop offset="0" stop-color="#dcba93" stop-opacity="0.455"/><stop offset="1" stop-color="#b8a563" stop-opacity="0.267"/></linearGradient><linearGradient id="j" x1="-0.053" y1="0.498" x2="1.068" y2="0.498" gradientUnits="objectBoundingBox"><stop offset="0" stop-color="#dcba93" stop-opacity="0.502"/><stop offset="1" stop-color="#b8a563" stop-opacity="0.302"/></linearGradient><linearGradient id="k" x1="-0.045" y1="0.497" x2="1.068" y2="0.497" gradientUnits="objectBoundingBox"><stop offset="0.148" stop-color="#bba864"/><stop offset="0.475" stop-color="#e9dea4"/><stop offset="0.639" stop-color="#ddd094"/><stop offset="0.96" stop-color="#bcaa69"/><stop offset="1" stop-color="#b8a563"/></linearGradient><linearGradient id="l" x1="-0.045" y1="0.494" x2="1.073" y2="0.494" gradientUnits="objectBoundingBox"><stop offset="0" stop-color="#e9dea4"/><stop offset="0.434" stop-color="#e4ce9a"/><stop offset="1" stop-color="#dbb288"/></linearGradient><linearGradient id="m" x1="-0.044" y1="0.494" x2="1.076" y2="0.494" gradientUnits="objectBoundingBox"><stop offset="0" stop-color="#fad385"/><stop offset="0.417" stop-color="#f2d894" stop-opacity="0.792"/><stop offset="1" stop-color="#e9dea4" stop-opacity="0.502"/></linearGradient><linearGradient id="n" x1="83.447" y1="0.5" x2="84.448" y2="0.5" gradientUnits="objectBoundingBox"><stop offset="0" stop-color="#86d3b1" stop-opacity="0.102"/><stop offset="0.451" stop-color="#93cec1" stop-opacity="0.055"/><stop offset="1" stop-color="#a7c7db" stop-opacity="0"/></linearGradient><linearGradient id="o" x1="83.123" y1="0.501" x2="84.12" y2="0.501" gradientUnits="objectBoundingBox"><stop offset="0" stop-color="#90d0bd" stop-opacity="0.102"/><stop offset="0.52" stop-color="#90cfbe" stop-opacity="0.333"/><stop offset="0.816" stop-color="#9dcace" stop-opacity="0.129"/><stop offset="1" stop-color="#a7c7db" stop-opacity="0"/></linearGradient><linearGradient id="p" x1="83.049" y1="0.501" x2="84.046" y2="0.501" gradientUnits="objectBoundingBox"><stop offset="0" stop-color="#99ccca" stop-opacity="0.106"/><stop offset="0.52" stop-color="#8bd1b7" stop-opacity="0.667"/><stop offset="0.766" stop-color="#98ccc7" stop-opacity="0.325"/><stop offset="1" stop-color="#a7c7db" stop-opacity="0"/></linearGradient><linearGradient id="q" x1="82.972" y1="0.501" x2="83.97" y2="0.501" gradientUnits="objectBoundingBox"><stop offset="0" stop-color="#a3c9d6" stop-opacity="0.11"/><stop offset="0.52" stop-color="#86d3b1"/><stop offset="0.737" stop-color="#93cec1" stop-opacity="0.549"/><stop offset="1" stop-color="#a7c7db" stop-opacity="0"/></linearGradient><linearGradient id="r" x1="-0.912" y1="0.502" x2="0.089" y2="0.502" gradientUnits="objectBoundingBox"><stop offset="0" stop-color="#fccac2" stop-opacity="0.102"/><stop offset="0.553" stop-color="#ecbfb8" stop-opacity="0.043"/><stop offset="1" stop-color="#dbb3ae" stop-opacity="0"/></linearGradient><radialGradient id="s" cx="0.5" cy="0.5" r="0.492" gradientTransform="translate(0.01 -0.002) scale(1.03 1.004)" gradientUnits="objectBoundingBox"><stop offset="0" stop-color="#e3b3ae" stop-opacity="0.4"/><stop offset="1" stop-color="#dbb3ae" stop-opacity="0"/></radialGradient><radialGradient id="t" cx="0.501" cy="0.5" r="0.49" gradientTransform="translate(0.008 -0.004) scale(1.033 1.007)" gradientUnits="objectBoundingBox"><stop offset="0" stop-color="#cb9b99" stop-opacity="0.702"/><stop offset="0.724" stop-color="#d6aba7" stop-opacity="0.192"/><stop offset="1" stop-color="#dbb3ae" stop-opacity="0"/></radialGradient><radialGradient id="u" cx="0.5" cy="0.5" r="0.491" gradientTransform="translate(0.005 -0.005) scale(1.03 1.011)" gradientUnits="objectBoundingBox"><stop offset="0" stop-color="#b28485"/><stop offset="0.411" stop-color="#c09493" stop-opacity="0.588"/><stop offset="1" stop-color="#dbb3ae" stop-opacity="0"/></radialGradient><linearGradient id="v" x1="0.001" y1="0.506" x2="1.001" y2="0.506" gradientUnits="objectBoundingBox"><stop offset="0" stop-color="#8a4b47"/><stop offset="0.461" stop-color="#965b57"/><stop offset="1" stop-color="#a77470"/></linearGradient><linearGradient id="w" x1="-0.001" y1="0.5" x2="1" y2="0.5" gradientUnits="objectBoundingBox"><stop offset="0" stop-color="#8a4b47"/><stop offset="0.231" stop-color="#995b57"/><stop offset="0.682" stop-color="#c1867f"/><stop offset="1" stop-color="#e1a89f"/></linearGradient><linearGradient id="x" x1="0.007" y1="0.503" x2="1.044" y2="0.503" gradientUnits="objectBoundingBox"><stop offset="0" stop-color="#9c625e"/><stop offset="0.924" stop-color="#a6726e"/><stop offset="1" stop-color="#a77470"/></linearGradient><linearGradient id="y" y1="0.5" x2="1.003" y2="0.5" gradientUnits="objectBoundingBox"><stop offset="0" stop-color="#ef9d9d"/><stop offset="0.502" stop-color="#efadaa"/><stop offset="1" stop-color="#efc2bb"/></linearGradient><linearGradient id="z" y1="0.498" x2="1.002" y2="0.498" gradientUnits="objectBoundingBox"><stop offset="0" stop-color="#fdcbc3"/><stop offset="0.381" stop-color="#fed8cf" stop-opacity="0.616"/><stop offset="0.994" stop-color="#ffe8df" stop-opacity="0"/></linearGradient><linearGradient id="aa" x1="-0.002" y1="0.5" x2="0.999" y2="0.5" gradientUnits="objectBoundingBox"><stop offset="0" stop-color="#ffe1d8"/><stop offset="0.519" stop-color="#fff2ef"/><stop offset="1" stop-color="#fff"/></linearGradient><linearGradient id="ab" x1="-0.005" y1="0.495" x2="0.996" y2="0.495" gradientUnits="objectBoundingBox"><stop offset="0" stop-color="#ffe3d7"/><stop offset="0.529" stop-color="#fff3ef"/><stop offset="1" stop-color="#fff"/></linearGradient><linearGradient id="ac" x1="81.144" y1="0.505" x2="82.146" y2="0.505" gradientUnits="objectBoundingBox"><stop offset="0" stop-color="#438a60"/><stop offset="0.213" stop-color="#529870"/><stop offset="0.63" stop-color="#78bc9b"/><stop offset="1" stop-color="#9fe1c6"/></linearGradient><linearGradient id="ad" x1="1269.864" y1="0.501" x2="1270.854" y2="0.501" gradientUnits="objectBoundingBox"><stop offset="0" stop-color="#5e9c78"/><stop offset="0.924" stop-color="#6ea686"/><stop offset="1" stop-color="#70a787"/></linearGradient><linearGradient id="ae" x1="108.991" y1="0.502" x2="109.991" y2="0.502" gradientUnits="objectBoundingBox"><stop offset="0" stop-color="#438a60"/><stop offset="0.426" stop-color="#53956e"/><stop offset="1" stop-color="#70a787"/></linearGradient><linearGradient id="af" x1="83.345" y1="0.501" x2="84.347" y2="0.501" gradientUnits="objectBoundingBox"><stop offset="0" stop-color="#9defb1"/><stop offset="0.451" stop-color="#a9efc1"/><stop offset="1" stop-color="#bbefdb"/></linearGradient><linearGradient id="ag" x1="90.515" y1="0.5" x2="91.515" y2="0.5" gradientUnits="objectBoundingBox"><stop offset="0" stop-color="#c3fde7"/><stop offset="0.363" stop-color="#cffef1" stop-opacity="0.82"/><stop offset="0.994" stop-color="#dffffe" stop-opacity="0.502"/></linearGradient><linearGradient id="ah" x1="1.003" y1="0.501" x2="-0.001" y2="0.501" gradientUnits="objectBoundingBox"><stop offset="0" stop-color="#d8fffa"/><stop offset="0.519" stop-color="#effffd"/><stop offset="1" stop-color="#fff"/></linearGradient><linearGradient id="ai" x1="1.002" y1="0.502" x2="-0.001" y2="0.502" gradientUnits="objectBoundingBox"><stop offset="0" stop-color="#d7ffff"/><stop offset="0.529" stop-color="#efffff"/><stop offset="1" stop-color="#fff"/></linearGradient></defs><g transform="translate(-25 -40)"><path class="a" d="M82.2,43.6,70.1,101.1a4.237,4.237,0,0,0,4.1,5.2h.1a4.134,4.134,0,0,0,3.8-3.3l12-57.5a4.011,4.011,0,0,0-4.3-4.8h0A3.38,3.38,0,0,0,82.2,43.6Z"/><path class="b" d="M81.8,43.8,69.9,100.4a4.155,4.155,0,0,0,4.1,5.1h.1a4.026,4.026,0,0,0,3.7-3.3L89.6,45.6a4.069,4.069,0,0,0-4.2-4.8h0A3.737,3.737,0,0,0,81.8,43.8Z"/><path class="c" d="M81.5,44,69.8,99.7a4.05,4.05,0,0,0,4,5h.1a4.036,4.036,0,0,0,3.7-3.2L89.2,45.9a4.053,4.053,0,0,0-4.1-4.7h0A3.468,3.468,0,0,0,81.5,44Z"/><path class="d" d="M81.1,44.3,69.6,99a4,4,0,0,0,3.9,4.9h.1a3.926,3.926,0,0,0,3.6-3.2L88.7,46a4.026,4.026,0,0,0-4-4.7h0A3.737,3.737,0,0,0,81.1,44.3Z"/><path class="e" d="M80.8,44.5,69.5,98.2a3.957,3.957,0,0,0,3.9,4.8h.1A3.723,3.723,0,0,0,77,99.9L88.2,46.2a4.025,4.025,0,0,0-3.9-4.6h0A3.555,3.555,0,0,0,80.8,44.5Z"/><path class="f" d="M80.4,44.8,69.3,97.5a3.859,3.859,0,0,0,3.8,4.7h.1a3.823,3.823,0,0,0,3.5-3l11-52.7c.4-2-1.5-4.7-3.9-4.6h0A3.708,3.708,0,0,0,80.4,44.8Z"/><path class="g" d="M80.1,45,69.2,96.8a3.753,3.753,0,0,0,3.7,4.6H73a3.622,3.622,0,0,0,3.4-3L87.2,46.6c.4-1.9-1.5-4.6-3.8-4.5h0A3.613,3.613,0,0,0,80.1,45Z"/><path class="h" d="M79.7,45.3,69,96.1a3.753,3.753,0,0,0,3.7,4.6h.1a3.613,3.613,0,0,0,3.3-2.9L86.7,47c.4-1.7-1.5-4.6-3.7-4.5h0A3.4,3.4,0,0,0,79.7,45.3Z"/><path class="i" d="M79.4,45.5,68.9,95.4a3.655,3.655,0,0,0,3.6,4.5h.1A3.712,3.712,0,0,0,75.9,97L86.3,47.1c.3-1.6-1.4-4.5-3.6-4.4h0A3.43,3.43,0,0,0,79.4,45.5Z"/><path class="j" d="M79,45.8,68.7,94.7a3.6,3.6,0,0,0,3.5,4.4h.1a3.408,3.408,0,0,0,3.2-2.8L85.7,47.4c.3-1.5-1.4-4.5-3.5-4.4h0A3.483,3.483,0,0,0,79,45.8Z"/><path class="k" d="M85.2,40,65.6,93.3l.1,2.4,8.2-.3,11.4-53Z"/><path class="l" d="M77.3,40,65.6,93.3l8.2-.3L85.2,40Z"/><path class="m" d="M77.6,40.6,66.3,92.4l6.9-.3L84.3,40.6Z"/><path class="n" d="M58.1,63.4l-.8,7.1A1.779,1.779,0,0,1,56.2,72L40.7,78.7a1.873,1.873,0,0,0-.1,3.4l15.5,7.4a1.889,1.889,0,0,1,1.1,1.8L57,95.8a1.867,1.867,0,0,1-2.7,1.6L26.1,83.5A2.031,2.031,0,0,1,25,81.8V79a1.751,1.751,0,0,1,1.1-1.7Z"/><path class="o" d="M59.4,62.2l-.8,7.1a1.779,1.779,0,0,1-1.1,1.5L42,77.4a1.873,1.873,0,0,0-.1,3.4l15.5,7.4A1.889,1.889,0,0,1,58.5,90l-.2,4.4A1.867,1.867,0,0,1,55.6,96L27.3,82.2a2.031,2.031,0,0,1-1.1-1.7V77.7A1.751,1.751,0,0,1,27.3,76Z"/><path class="p" d="M60.6,60.9,59.9,68a1.779,1.779,0,0,1-1.1,1.5L43.3,76.2a1.873,1.873,0,0,0-.1,3.4L58.7,87a1.889,1.889,0,0,1,1.1,1.8l-.2,4.4a1.867,1.867,0,0,1-2.7,1.6L28.5,81a2.031,2.031,0,0,1-1.1-1.7V76.5a1.751,1.751,0,0,1,1.1-1.7Z"/><path class="q" d="M61.9,59.6l-.8,7.1A1.779,1.779,0,0,1,60,68.2L44.5,74.9a1.873,1.873,0,0,0-.1,3.4l15.5,7.4A1.889,1.889,0,0,1,61,87.5L60.7,92A1.867,1.867,0,0,1,58,93.6L29.8,79.7A2.031,2.031,0,0,1,28.7,78V75.2a1.751,1.751,0,0,1,1.1-1.7Z"/><path class="r" d="M89.7,57.3l.8,7.1a1.779,1.779,0,0,0,1.1,1.5l15.5,6.7a1.873,1.873,0,0,1,.1,3.4L91.7,83.4a1.889,1.889,0,0,0-1.1,1.8l.2,4.4a1.867,1.867,0,0,0,2.7,1.6l28.2-13.9a2.031,2.031,0,0,0,1.1-1.7V72.8a1.751,1.751,0,0,0-1.1-1.7Z"/><path class="s" d="M88.5,56.1l.8,7.1a1.779,1.779,0,0,0,1.1,1.5l15.5,6.7a1.873,1.873,0,0,1,.1,3.4L90.5,82.2A1.889,1.889,0,0,0,89.4,84l.2,4.4A1.867,1.867,0,0,0,92.3,90l28.2-13.9a2.031,2.031,0,0,0,1.1-1.7V71.6a1.751,1.751,0,0,0-1.1-1.7Z"/><path class="t" d="M87.2,54.8l.8,7.1a1.779,1.779,0,0,0,1.1,1.5l15.5,6.7a1.873,1.873,0,0,1,.1,3.4L89.2,81a1.889,1.889,0,0,0-1.1,1.8l.2,4.4A1.867,1.867,0,0,0,91,88.8l28.2-13.9a2.031,2.031,0,0,0,1.1-1.7V70.4a1.751,1.751,0,0,0-1.1-1.7Z"/><path class="u" d="M86,53.6l.8,7.1a1.779,1.779,0,0,0,1.1,1.5l15.5,6.7a1.873,1.873,0,0,1,.1,3.4L88,79.7a1.889,1.889,0,0,0-1.1,1.8l.2,4.4a1.867,1.867,0,0,0,2.7,1.6L118,73.6a2.031,2.031,0,0,0,1.1-1.7V69.1a1.751,1.751,0,0,0-1.1-1.7Z"/><path class="v" d="M113.1,62.4,86.2,53.3l.4,4.3a1.149,1.149,0,0,0,.6.9l17.6,7.7Z"/><path class="w" d="M104.9,66.3l.3.1L88.8,74a1.756,1.756,0,0,0-.5.4l-1.3,2a1.02,1.02,0,0,0-.2.9l.3,7.4a.441.441,0,0,0,.6.4l31.1-15.3a1.205,1.205,0,0,0,.5-.5l1.1-1.8c.3-.5.5-1.4,0-1.7l-7.7-3.5a.3.3,0,0,0-.4,0Z"/><path class="x" d="M88.2,74.6l-1.3,2a1.421,1.421,0,0,0-.2.6l.3,7.4a.215.215,0,0,0,.4.1L89,82.3l-.6-7.6C88.5,74.5,88.3,74.4,88.2,74.6Z"/><path class="y" d="M87.2,48,86,49.9a.749.749,0,0,0-.1.5l.8,7.1a.425.425,0,0,0,.7.3l2.8-4.1-2.1-6C87.6,47.5,87.4,47.8,87.2,48Z"/><path class="z" d="M87.7,48.4l.7,6.8a.675.675,0,0,0,.4.6L107.9,64a.435.435,0,0,1,0,.8L88.9,74a.822.822,0,0,0-.4.6l.3,7.5a.338.338,0,0,0,.5.3l30.8-15.2a1.05,1.05,0,0,0,.5-.9v-4a1.1,1.1,0,0,0-.6-1L88.3,47.8A.472.472,0,0,0,87.7,48.4Z"/><path class="aa" d="M88.8,49.8l.5,4.6a.675.675,0,0,0,.4.6l19.9,8.9a.718.718,0,0,1,0,1.3L90.1,74.7a.822.822,0,0,0-.4.6l.1,5.5a.338.338,0,0,0,.5.3l28.2-13.9a1.1,1.1,0,0,0,.6-1V63a1.326,1.326,0,0,0-.6-1l-29-12.7C89.2,49,88.7,49.3,88.8,49.8Z"/><path class="ab" d="M120.7,66.2V62.5a1.1,1.1,0,0,0-.6-1l-4.6-1.9-9.1-3.9L88.2,47.8l18.3,7.8,9.1,3.9,4.6,2a1.1,1.1,0,0,1,.6,1v1.2Z"/><path class="ac" d="M104.9,62.7l2.8,1.2c.2.1.5.2.5.5.1.3-.1.5-.4.6l-1.3.7-5.4,2.6L90.3,73.4l10.8-5.2,5.4-2.6,1.4-.6a.675.675,0,0,0,.4-.6c0-.3-.3-.4-.5-.5Z"/><path class="ad" d="M47,66.3l-.3.1L63.1,74a2.181,2.181,0,0,1,.5.4l1.3,2a1.077,1.077,0,0,1,.2.8l-.3,7.5a.367.367,0,0,1-.6.3L32.9,69.6c-.1,0-.1-.1-.2-.2L31.3,67a.775.775,0,0,1,.2-1l7.7-3.9a.3.3,0,0,1,.4,0Z"/><path class="ae" d="M63.8,74.7,65,76.6c.1.2.2.3.1.5l-.3,7.6c0,.2-.2.4-.3.2L63,82.7l.3-7.8C63.4,74.6,63.7,74.5,63.8,74.7Z"/><path class="af" d="M64.5,47.8l1.2,2a1.884,1.884,0,0,1,.2.8l-.7,6.5L65,58.4l-7.5-6.9,6.4-3.8A.377.377,0,0,1,64.5,47.8Z"/><path class="ag" d="M40.7,61.6l20.1-8a.618.618,0,0,1,.7.2l3.4,3.6a.722.722,0,0,1-.2,1.1L47.3,66.1a.638.638,0,0,1-.6,0l-6.6-3.2C39.6,62.6,40.2,61.8,40.7,61.6Z"/><path class="ah" d="M64.2,48l-.7,7a1.149,1.149,0,0,1-.6.9L43.8,64.1a.312.312,0,0,0,0,.6L63,73.9a.891.891,0,0,1,.5.8l-.3,6.9a.689.689,0,0,1-1,.6l-30.6-15a.822.822,0,0,1-.4-.6V62.4a1.1,1.1,0,0,1,.6-1L63.7,47.6C64,47.6,64.3,47.8,64.2,48Z"/><path class="ai" d="M63.1,49.6l-.5,4.6a1.149,1.149,0,0,1-.6.9l-20.1,9a.488.488,0,0,0,0,.9l19.8,9.6a.792.792,0,0,1,.5.8L62,80.2a.689.689,0,0,1-1,.6L33.1,67a.822.822,0,0,1-.4-.6V62.9a1.1,1.1,0,0,1,.6-1L62.4,49.1A.505.505,0,0,1,63.1,49.6Z"/><path class="aj" d="M32.7,65.7V63.5a2.079,2.079,0,0,1,.1-1.1,1.12,1.12,0,0,1,.8-.7l4-1.8,8-3.5,16.1-7L45.6,56.5,37.7,60l-4,1.8a1.12,1.12,0,0,0-.8.7,3.75,3.75,0,0,0-.1,1.1Z"/><path class="ak" d="M44.9,62.7l-3.1,1.4a.423.423,0,0,0-.1.7,2.507,2.507,0,0,0,.7.4l1.5.7L50,68.8l12.1,5.9L50,68.9l-6-3-1.5-.7a2.506,2.506,0,0,1-.7-.4.483.483,0,0,1,.1-.7Z"/></g></svg>