<svg xmlns="http://www.w3.org/2000/svg" xmlns:xlink="http://www.w3.org/1999/xlink" width="99.891" height="85.128" viewBox="0 0 99.891 85.128"><defs><style>.a{fill:url(#a);}.b{fill:url(#b);}.c{fill:url(#c);}.d,.e,.v{opacity:0.4;}.d{fill:url(#d);}.e{fill:url(#e);}.f{fill:url(#f);}.g{fill:url(#g);}.h{fill:#faf2fd;}.i{fill:#c5abc2;}.j{fill:none;stroke:#fff;stroke-miterlimit:10;stroke-width:0.25px;opacity:0.56;}.k{fill:url(#h);}.l{fill:url(#i);}.m{fill:#aab4f5;}.n{fill:url(#j);}.o{fill:url(#k);}.p{fill:url(#l);}.q{fill:url(#m);}.r{fill:#d6d4f1;}.s{fill:url(#n);}.t{fill:url(#o);}.u{fill:#fbbdd6;opacity:0.38;}.w{fill:#fcb4dd;}.x{fill:url(#p);}.y{fill:url(#q);}.z{fill:url(#r);}.aa{fill:url(#s);}.ab,.ac{fill:#fff;}.ab{opacity:0.15;}.ad{fill:url(#t);}.ae{fill:url(#u);}.af{fill:url(#v);}.ag{fill:url(#w);}.ah{fill:url(#x);}.ai{opacity:0.5;}.aj{fill:#dedff7;}.ak{opacity:0.8;}.al{opacity:0.25;}.am{opacity:0.32;}</style><linearGradient id="a" x1="0.897" y1="-8.533" x2="1.907" y2="-8.533" gradientUnits="objectBoundingBox"><stop offset="0" stop-color="#e0e0ff"/><stop offset="0.282" stop-color="#bbbddf"/><stop offset="0.521" stop-color="#9fa4c7"/><stop offset="1" stop-color="#9fa4c7"/></linearGradient><linearGradient id="b" x1="0.197" y1="-0.925" x2="1.188" y2="-0.925" gradientUnits="objectBoundingBox"><stop offset="0" stop-color="#f3fcfb"/><stop offset="0.871" stop-color="#dce1f8"/><stop offset="1" stop-color="#d8dcf7"/></linearGradient><linearGradient id="c" x1="0.23" y1="-1.145" x2="1.219" y2="-1.145" gradientUnits="objectBoundingBox"><stop offset="0" stop-color="#d8dcf7"/><stop offset="0.129" stop-color="#dce1f8"/><stop offset="1" stop-color="#f3fcfb"/></linearGradient><linearGradient id="d" x1="0.115" y1="-0.041" x2="1.146" y2="-0.041" gradientUnits="objectBoundingBox"><stop offset="0" stop-color="#41bef0"/><stop offset="0.469" stop-color="#828cbe"/><stop offset="0.54" stop-color="#8f80ae"/><stop offset="0.794" stop-color="#bc5a79"/><stop offset="0.917" stop-color="#cd4b64"/></linearGradient><linearGradient id="e" x1="0.129" y1="-0.074" x2="1.163" y2="-0.074" xlink:href="#d"/><linearGradient id="f" x1="0.057" y1="0.036" x2="1.188" y2="-0.102" gradientUnits="objectBoundingBox"><stop offset="0" stop-color="#faf2fd"/><stop offset="0.259" stop-color="#e4d6e9"/><stop offset="0.757" stop-color="#b398bd"/><stop offset="1" stop-color="#a394e9"/></linearGradient><linearGradient id="g" x1="0.068" y1="0.131" x2="1.089" y2="0.131" gradientUnits="objectBoundingBox"><stop offset="0" stop-color="#faf2fd"/><stop offset="0.467" stop-color="#a796c1"/><stop offset="0.472" stop-color="#a897c2"/><stop offset="0.775" stop-color="#ddcce7"/><stop offset="0.923" stop-color="#f2e1f5"/></linearGradient><linearGradient id="h" x1="0.062" y1="0.094" x2="1.084" y2="0.094" gradientUnits="objectBoundingBox"><stop offset="0" stop-color="#aba3cc"/><stop offset="0.696" stop-color="#c6b8d9"/><stop offset="1" stop-color="#d4c3e0"/></linearGradient><linearGradient id="i" x1="1.211" y1="-0.051" x2="0.454" y2="-0.136" gradientUnits="objectBoundingBox"><stop offset="0.094" stop-color="#f3fcfb"/><stop offset="0.766" stop-color="#dce1f8"/><stop offset="0.866" stop-color="#d8dcf7"/><stop offset="1" stop-color="#cecaff"/></linearGradient><linearGradient id="j" x1="0.828" y1="0.812" x2="0.097" y2="0.185" gradientUnits="objectBoundingBox"><stop offset="0" stop-color="#d6d4f1"/><stop offset="0.68" stop-color="#9194b3"/><stop offset="1" stop-color="#757b9a"/></linearGradient><linearGradient id="k" x1="0.146" y1="-0.655" x2="1.326" y2="-1.079" gradientUnits="objectBoundingBox"><stop offset="0" stop-color="#aeb2d2"/><stop offset="0.399" stop-color="#cac8e2"/><stop offset="1" stop-color="#faeefd"/></linearGradient><linearGradient id="l" x1="0.213" y1="-1.85" x2="1.219" y2="-1.85" gradientUnits="objectBoundingBox"><stop offset="0" stop-color="#c1b5cd"/><stop offset="0.243" stop-color="#d0c5da"/><stop offset="0.516" stop-color="#e0d7e8"/><stop offset="1" stop-color="#faf2fd"/></linearGradient><linearGradient id="m" x1="0.233" y1="-0.254" x2="1.215" y2="-0.254" xlink:href="#l"/><linearGradient id="n" x1="2.488" y1="-1.397" x2="2.504" y2="-1.397" gradientUnits="objectBoundingBox"><stop offset="0" stop-color="#fcbed7"/><stop offset="0.343" stop-color="#f5a2bc"/><stop offset="1" stop-color="#e6647e"/></linearGradient><linearGradient id="o" x1="1.307" y1="-1.595" x2="2.205" y2="-1.359" xlink:href="#n"/><linearGradient id="p" x1="1.369" y1="-0.656" x2="0.493" y2="-0.26" gradientUnits="objectBoundingBox"><stop offset="0.094" stop-color="#f3fcfb"/><stop offset="0.662" stop-color="#dce1f8"/><stop offset="0.746" stop-color="#d8dcf7"/></linearGradient><radialGradient id="q" cx="0.511" cy="0.463" r="0.391" gradientTransform="matrix(1.025, -0.454, 0.639, 1.09, 4.335, 5.051)" gradientUnits="objectBoundingBox"><stop offset="0" stop-color="#c1b5cd"/><stop offset="0.264" stop-color="#c8bcd3"/><stop offset="0.729" stop-color="#d0c5da"/><stop offset="0.827" stop-color="#e0d7e8"/><stop offset="1" stop-color="#faf2fd"/></radialGradient><linearGradient id="r" x1="0.541" y1="-0.664" x2="0.697" y2="0.165" gradientUnits="objectBoundingBox"><stop offset="0" stop-color="#faf2fd"/><stop offset="0.484" stop-color="#e0d7e8"/><stop offset="0.757" stop-color="#d0c5da"/><stop offset="1" stop-color="#c1b5cd"/></linearGradient><linearGradient id="s" x1="0.562" y1="-1.009" x2="0.724" y2="0.227" xlink:href="#r"/><linearGradient id="t" x1="0.979" y1="-0.057" x2="1.062" y2="-1.063" gradientUnits="objectBoundingBox"><stop offset="0" stop-color="#d5d3f2"/><stop offset="0.296" stop-color="#757b9a"/><stop offset="0.521" stop-color="#9194b3"/><stop offset="1" stop-color="#d6d4f1"/></linearGradient><linearGradient id="u" x1="0.57" y1="-0.544" x2="1.568" y2="-0.544" xlink:href="#c"/><radialGradient id="v" cx="-0.223" cy="0.542" r="0.977" gradientTransform="matrix(1.292, -0.036, 0.047, 1.001, -0.136, 0.024)" xlink:href="#t"/><linearGradient id="w" x1="1.212" y1="-4.533" x2="1.721" y2="-5.816" gradientUnits="objectBoundingBox"><stop offset="0" stop-color="#757b9a"/><stop offset="0.208" stop-color="#797f9d"/><stop offset="0.41" stop-color="#8589a8"/><stop offset="0.609" stop-color="#989bb9"/><stop offset="0.806" stop-color="#b3b4d2"/><stop offset="1" stop-color="#d6d4f1"/></linearGradient><linearGradient id="x" x1="0.119" y1="0.145" x2="1.251" y2="0.145" gradientUnits="objectBoundingBox"><stop offset="0" stop-color="#acb0d1"/><stop offset="0.571" stop-color="#c7cae6"/><stop offset="1" stop-color="#dfe1f8"/></linearGradient></defs><g transform="translate(-7.432 -17.456)"><g transform="translate(7.432 17.456)"><path class="a" d="M49.606,122.4,48.2,123.954l2.516-.74Z" transform="translate(-18.027 -44.729)"/><g transform="translate(0 53.543)"><g transform="translate(0 20.271)"><g transform="translate(0 0.822)"><path class="b" d="M13.4,128.736a4.1,4.1,0,0,0,3.775-1.184l.148-.222,1.85-2.442L10.147,118.3l-2.22,2.738h0v.074h0a3.488,3.488,0,0,0-.148,3.331,6.653,6.653,0,0,0,2.664,3.108A7.121,7.121,0,0,0,13.4,128.736Z" transform="translate(-7.432 -118.3)"/></g><path class="c" d="M15.8,126.227a4.219,4.219,0,0,0,.962.074,3.632,3.632,0,0,0,2.96-1.48,3.488,3.488,0,0,0,.148-3.33,6.653,6.653,0,0,0-2.664-3.108,6.577,6.577,0,0,0-3.923-1.184,3.632,3.632,0,0,0-2.96,1.48,3.488,3.488,0,0,0-.148,3.33,6.653,6.653,0,0,0,2.664,3.108h0A9.673,9.673,0,0,0,15.8,126.227Z" transform="translate(-8.056 -117.189)"/></g><g transform="translate(3.205)"><path class="d" d="M12.264,112.281a5.58,5.58,0,0,1,.444-.962L25.438,90.3l7.327,4.515S19.813,116.2,19.739,116.352c-.888,1.406-3.256,1.48-5.181.148C12.856,115.39,11.82,113.613,12.264,112.281Z" transform="translate(-11.866 -89.93)"/><path class="e" d="M15.072,113.223a5.58,5.58,0,0,1,.444-.962L27.506,92.5l5.625,3.4s-12.952,21.389-13.026,21.537c-.222.3-.518.3-.888.444a5.793,5.793,0,0,1-1.85-.518C15.664,116.332,14.7,114.629,15.072,113.223Z" transform="translate(-12.602 -90.502)"/><path class="f" d="M11.864,112.077h0a2.734,2.734,0,0,1,.518-1.036l12.73-21.019.148-.222,7.845,4.811-.148.222c-1.332,2.22-12.952,21.389-13.026,21.537a2.822,2.822,0,0,1-2.442,1.184,2.518,2.518,0,0,1-.74-.074,5.943,5.943,0,0,1-2.368-.962C12.456,115.408,11.42,113.558,11.864,112.077Zm2.738,4.071a4.521,4.521,0,0,0,1.036.518L24,102.456l.888.592,2.072.592c2.442-4.071,4.737-7.845,5.329-8.881l-6.809-4.145L12.9,111.337a4.974,4.974,0,0,0-.444.888C12.086,113.41,13.048,115.038,14.6,116.148Z" transform="translate(-11.762 -89.8)"/></g></g><path class="g" d="M36.53,97.3l4.367-5.4,7.549,8.881a8.952,8.952,0,0,0,1.184,1.184l5.551,5.107a6.19,6.19,0,0,0,2.442,1.48l1.85-3.627,1.184-21.167L65.321,80.2l4,1.554.148,7.993c.074,8.067-1.554,15.1-4.663,20.279l-1.85,3.108a2.612,2.612,0,0,1-1.332,1.184l-6.957,2.368S45.19,110.767,44.6,110.1c-2.294-2.516-11.028-5.773-11.1-5.773l-.3-.148Z" transform="translate(-14.129 -33.762)"/><path class="h" d="M55.437,93.754c.074-.3.222-.592.3-.888L59.8,82.8l4.071.074L59.507,95.826a12.791,12.791,0,0,0-.592,4.589l.222,7.623c.074,1.258.37,3.479,1.924,3.849l.962.222-3.256,1.11-.962-.888a9.1,9.1,0,0,1-2.738-5.107l-.37-9.4A9.532,9.532,0,0,1,55.437,93.754Z" transform="translate(-19.713 -34.438)"/><path class="i" d="M58.314,114.437l1.258-2.738-.37-.074c-1.406-.37-2.812-2.516-2.886-4.293l-.222-7.623a12.791,12.791,0,0,1,.592-4.589l4.441-12.952L57.8,79.8l-4,12.582a14.25,14.25,0,0,0-.518,5.477l.888,8.659a9.877,9.877,0,0,0,2.22,5.625Z" transform="translate(-19.333 -33.658)"/><path class="j" d="M60.2,112.456c-1.406-.37-2.812-2.516-2.886-4.293l-.222-7.623a12.791,12.791,0,0,1,.592-4.589L62.128,83" transform="translate(-20.335 -34.49)"/><path class="k" d="M31.139,98.314l.3.3,1.184-2.22,6.883,8.141a9.531,9.531,0,0,0,1.184,1.258l5.551,5.107c2.294,2.072,4.663,2.22,5.773.37l.444-.74c3.182-5.329,4.737-12.434,4.589-20.649L56.895,84.4l3.4,1.036.148,7.845c.074,8.067-1.48,15.024-4.589,20.131l-1.85,3.108c-1.036,1.7-3.108,1.7-5.255.074l-5.329-4.145-.444.888c-.518,1.036-1.7.888-2.812-.222-2.368-2.59-6.661-6.291-10.362-4.293-2.22,1.184-3.849,2-4.959,2.59a.675.675,0,0,1-.888-.962Z" transform="translate(-11.698 -34.854)"/><path class="l" d="M44.757,86.352c.74-1.036,2.59-12.952,2.59-12.952l5.033,4.367L51.2,83.1a12.262,12.262,0,0,1-2.072,4.663l-4.441,5.847L37.8,95.973Z" transform="translate(-15.324 -31.995)"/><g transform="translate(10.686 32.82)"><path class="m" d="M43.429,71.051l-2.22,10.436a12.354,12.354,0,0,1-2,4.589l-7.105,9.251c-1.7,2.22-5.255,1.036-7.845-2.738h0c-2.442-3.553-3.108-7.993-1.554-10.14l6.217-8.585a11.469,11.469,0,0,0,1.7-3.849L32.772,61.8Z" transform="translate(-21.87 -61.8)"/></g><g transform="translate(10.686 32.82)"><path class="n" d="M43.429,71.051l-2.22,10.436a12.354,12.354,0,0,1-2,4.589l-7.105,9.251c-1.7,2.22-5.255,1.036-7.845-2.738h0c-2.442-3.553-3.108-7.993-1.554-10.14l6.217-8.585a11.469,11.469,0,0,0,1.7-3.849L32.772,61.8Z" transform="translate(-21.87 -61.8)"/></g><path class="o" d="M68.6,84.021l9.917-3.627L81.182,74.4,70.82,78.323Z" transform="translate(-23.329 -32.255)"/><g transform="translate(31.357 10.231)"><path class="p" d="M50.022,37.073l.3-.074c.148-.074.37-.074.518-.148l10.732-1.036,9.547-3.775a.448.448,0,0,0,.222-.444.492.492,0,0,0-.37-.3L60.31,32.558a4.493,4.493,0,0,0-1.332.37L50.1,36.481a.561.561,0,0,0-.3.148Z" transform="translate(-49.8 -31.285)"/><path class="q" d="M65.5,35.069l8.363-3.553,2-.222c1.184-.148,2.664.814,3.849,2.368L84.447,40.1a3.857,3.857,0,0,1,.74,3.627l-.666,1.406-9.325,3.7-5.625-9.1Z" transform="translate(-53.88 -31.28)"/><path class="r" d="M73.9,59.252a5.88,5.88,0,0,1,.444-1.628l3.108-6.291a1.86,1.86,0,0,0,.148-1.11.81.81,0,0,0,.3-.148l9.7-3.775a2.195,2.195,0,0,1-.148,1.036L84.41,54.293a3.52,3.52,0,0,0-.37,1.332l-9.991,3.553Z" transform="translate(-56.063 -35.183)"/></g><path class="s" d="M115.362,60.637h0l7.253-16.208v-.074a2.415,2.415,0,0,1,2.22-1.554,2.25,2.25,0,0,1,2.146,1.48l7.105,15.838.074.222a10.124,10.124,0,0,1,.962,4.367,10.362,10.362,0,0,1-20.723,0A16.257,16.257,0,0,1,115.362,60.637Z" transform="translate(-35.232 -24.042)"/><path class="t" d="M118.962,62.832h0l7.253-16.208V46.55c.37-.888,1.036-1.628,1.924-1.11l6.883,15.394.074.222a10.124,10.124,0,0,1,.962,4.367A10.392,10.392,0,0,1,125.7,75.784c-5.7,0-7.7-3.182-7.7-8.881A11.286,11.286,0,0,1,118.962,62.832Z" transform="translate(-36.167 -24.684)"/><path class="u" d="M118.5,58.138a5.625,5.625,0,0,0,11.25,0,5.977,5.977,0,0,0-.592-2.516h0l-3.923-8.807h0a1.2,1.2,0,0,0-1.11-.814.667.667,0,0,0-.37.074l-5.181,11.62A1.3,1.3,0,0,0,118.5,58.138Z" transform="translate(-36.297 -24.874)"/><g class="v" transform="translate(92.758 43.195)"><path class="w" d="M134.64,80.171a10.753,10.753,0,0,0,2.368-2.59,1.083,1.083,0,0,0-.444-1.628h0a1.17,1.17,0,0,0-1.48.37,9.113,9.113,0,0,1-1.85,2,1.137,1.137,0,0,0-.37,1.406h0A1.2,1.2,0,0,0,134.64,80.171Z" transform="translate(-132.762 -75.818)"/></g><path class="x" d="M72.1,64.895l1.406-2.442L83.5,58.9a4,4,0,0,0,0,1.332l1.11,7.623c.148.962-.148,1.7-.74,1.85l-1.48.592-8.215,3.256Z" transform="translate(-24.238 -28.227)"/><path class="y" d="M83.286,36.822c4.145,8.215-2.146,8.437-4.589,9.7-.518-1.036-2.516-1.924-4.219-5.181-1.628-3.256-1.036-5.625,1.406-6.883A5.214,5.214,0,0,1,83.286,36.822Z" transform="translate(-24.619 -21.691)"/><path class="z" d="M78.052,29.632c.222-.222,8.511-8.363,8.659-8.437a5.719,5.719,0,0,1,4-1.628l23.536-.666.74,9.177-19.909.148A5.12,5.12,0,0,0,91,30.15c-1.48,1.776-6.291,7.7-6.661,7.919a3.378,3.378,0,0,1-2.442.592,2.63,2.63,0,0,1-.74-.148,6.586,6.586,0,0,1-3.108-2.294C76.349,33.924,76.349,31.112,78.052,29.632Z" transform="translate(-25.453 -17.831)"/><path class="aa" d="M82.881,31.482c.3-.222,6.217-7.327,6.217-7.327a5.471,5.471,0,0,1,4.293-2.072l16.208-.666a6.447,6.447,0,0,0,1.554,3.182h3.33l-.444-5.7-23.091.666a5.59,5.59,0,0,0-4,1.628c-.148.074-8.437,8.215-8.659,8.437a4.465,4.465,0,0,0-.592.592A3.476,3.476,0,0,0,82.881,31.482Z" transform="translate(-25.694 -17.831)"/><path class="ab" d="M82.881,31.482c.3-.222,6.217-7.327,6.217-7.327a5.471,5.471,0,0,1,4.293-2.072l16.208-.666a6.447,6.447,0,0,0,1.554,3.182h3.33l-.444-5.7-23.091.666a5.59,5.59,0,0,0-4,1.628c-.148.074-8.437,8.215-8.659,8.437a4.465,4.465,0,0,0-.592.592A3.476,3.476,0,0,0,82.881,31.482Z" transform="translate(-25.694 -17.831)"/><path class="ac" d="M125.156,19.688a3,3,0,0,1,.814,0h4.071l.592,8.881h-4.293c-2,.222-3.923-1.7-4.441-4.367C121.974,21.909,123.306,19.91,125.156,19.688Z" transform="translate(-37.181 -18.027)"/><path class="ad" d="M123.959,17.488a3.566,3.566,0,0,1,.888,0h4.367l.74,11.176h-5.4c-2-.3-3.7-2.294-4.071-5.033C120.111,20.6,121.665,17.859,123.959,17.488Z" transform="translate(-36.798 -17.456)"/><path class="ae" d="M135.008,22.623a7.113,7.113,0,0,0-1.7-3.775,3.845,3.845,0,0,0-3.256-1.258,3.9,3.9,0,0,0-2.812,2.072,6.3,6.3,0,0,0-.666,4.071c.37,2.664,2.072,4.737,4.071,5.033a1.8,1.8,0,0,0,.888,0C133.824,28.47,135.378,25.657,135.008,22.623Z" transform="translate(-38.373 -17.483)"/><path class="af" d="M129.025,21.624a2.44,2.44,0,0,1,1.776-1.332c1.48-.222,2.96,1.258,3.182,3.182a3.82,3.82,0,0,1-.444,2.59,2.44,2.44,0,0,1-1.776,1.332h-.592a3.454,3.454,0,0,1-2.59-3.182A3.9,3.9,0,0,1,129.025,21.624Z" transform="translate(-38.903 -18.187)"/><path class="ag" d="M129.2,27.37l4.959-.37c-.444.962-.814,1.924-2.146,2.146A2.764,2.764,0,0,1,129.2,27.37Z" transform="translate(-39.078 -19.936)"/><path class="ah" d="M66.605,48.655,63.5,54.946a5.951,5.951,0,0,0-.37,3.33l1.11,7.623c.148.962-.148,1.7-.74,1.85l-.74.148a1.765,1.765,0,0,0-1.184,1.11l-1.924,4.441c-.444,1.11-1.7,1.184-2.886.148L33.818,53.761a4.672,4.672,0,0,1-1.554-4.293l2-5.773a1.98,1.98,0,0,1,.962-1.184l10.584-4.959a1.971,1.971,0,0,1,.888-.222L57.28,36.295c1.184-.148,2.664.814,3.849,2.368L65.865,45.1C66.679,46.286,67.049,47.766,66.605,48.655Z" transform="translate(-13.859 -22.348)"/><g class="ai" transform="translate(10.514 32.746)"><path class="aj" d="M24.126,92.563A14.423,14.423,0,0,1,22.2,88.714a10.2,10.2,0,0,1-.518-4.219,5.244,5.244,0,0,1,.666-2.072c.37-.592.814-1.184,1.258-1.776l2.442-3.479c1.554-2.368,3.627-4.515,4.219-7.253.74-2.738,1.48-5.477,2.294-8.215h0c-.592,2.812-1.332,5.551-2,8.289a12.551,12.551,0,0,1-1.776,3.923l-2.368,3.553-2.516,3.4c-.444.592-.888,1.11-1.258,1.7A4.6,4.6,0,0,0,21.98,84.5a8.768,8.768,0,0,0,.444,4.145,11.7,11.7,0,0,0,1.7,3.923Z" transform="translate(-21.638 -61.7)"/></g><g class="ak" transform="translate(29.507 46.142)"><path class="ac" d="M54.775,79.8c-.222,1.406-.518,2.812-.814,4.219a14.265,14.265,0,0,1-1.332,4.145,10.841,10.841,0,0,1-1.258,1.776c-.444.592-.888,1.11-1.332,1.7-.888,1.11-1.776,2.22-2.738,3.33.814-1.184,1.628-2.368,2.516-3.553.444-.592.888-1.184,1.258-1.7a14.821,14.821,0,0,0,1.184-1.776,18.281,18.281,0,0,0,1.406-4C54.035,82.612,54.405,81.206,54.775,79.8Z" transform="translate(-47.3 -79.8)"/></g><g class="al" transform="translate(20.848 42.071)"><path class="aj" d="M47,74.3c-.444,2.22-.888,4.515-1.332,6.735l-.74,3.331a12.839,12.839,0,0,1-1.036,3.256A6.05,6.05,0,0,1,43,89.1l-1.036,1.332-2.072,2.738C38.486,94.949,37.08,96.725,35.6,98.5c1.332-1.85,2.664-3.7,4.071-5.551l2.072-2.738,1.036-1.332a9.481,9.481,0,0,0,.814-1.48,12.323,12.323,0,0,0,1.036-3.182l.74-3.33C45.962,78.741,46.48,76.52,47,74.3Z" transform="translate(-35.6 -74.3)"/></g></g><g class="am" transform="translate(51.519 68.038)"><path class="ac" d="M71.515,85.8l.148,7.179a46.61,46.61,0,0,1-.3,7.179,40.221,40.221,0,0,1-1.406,7.105A30.953,30.953,0,0,1,67,113.85h0c.592-1.036,1.11-2.146,1.628-3.256a26.418,26.418,0,0,0,1.184-3.4,38.171,38.171,0,0,0,1.406-7.031,58.318,58.318,0,0,0,.37-7.179L71.515,85.8Z" transform="translate(-67 -85.8)"/></g></g></svg>