<svg xmlns="http://www.w3.org/2000/svg" xmlns:xlink="http://www.w3.org/1999/xlink" width="75.24" height="69.915" viewBox="0 0 75.24 69.915"><defs><style>.a{fill:url(#a);}.b{fill:url(#b);}.c{fill:url(#c);}.d{fill:url(#d);}.e{fill:url(#e);}.f{fill:url(#f);}.g{opacity:0.35;}.am,.ao,.h,.j{fill:none;}.h{stroke:#c7bfed;}.am,.ao,.h{stroke-miterlimit:10;}.i{opacity:0.57;}.k{fill:#eb8d8d;}.l{fill:#f0928d;}.m{fill:#ffa6ac;}.n{opacity:0.47;}.o{fill:#fff;}.p{opacity:0.48;fill:url(#g);}.q{fill:#ffe8c4;}.r{fill:url(#h);}.s{fill:url(#i);}.t{fill:#ffcbbe;}.u{fill:#ffcabc;}.v{fill:#ffc8ba;}.w{fill:#ffc7b9;}.x{fill:#ffc5b7;}.y{fill:#ffc4b5;}.z{fill:#ffc2b3;}.aa{fill:#ffc1b2;}.ab{fill:#ffbfb0;}.ac{fill:#ffbeae;}.ad{fill:url(#j);}.ae{fill:url(#k);}.af{fill:url(#l);}.ag{fill:url(#m);}.ah{fill:url(#n);}.ai{fill:url(#o);}.aj{fill:url(#p);}.ak{fill:url(#q);}.al{fill:url(#r);}.am,.ao{stroke:#707070;stroke-linecap:round;stroke-linejoin:round;}.am{stroke-width:0.25px;}.an{fill:url(#s);}.ao{stroke-width:0.5px;}.ap{fill:url(#t);}.aq{fill:url(#u);}.ar{fill:url(#v);}.as{fill:url(#w);}.at{fill:url(#x);}.au{fill:url(#y);}.av{fill:url(#z);}.aw{fill:url(#aa);}.ax{fill:url(#ab);}.ay{fill:url(#ac);}.az{fill:url(#ad);}.ba{fill:url(#ae);}.bb{fill:url(#af);}.bc{fill:url(#ag);}.bd{fill:url(#ah);}</style><linearGradient id="a" x1="0.001" y1="0.501" x2="1.001" y2="0.501" gradientUnits="objectBoundingBox"><stop offset="0" stop-color="#8878cf"/><stop offset="1" stop-color="#ffe0ff"/></linearGradient><linearGradient id="b" x1="0.002" y1="0.501" x2="1.004" y2="0.501" gradientUnits="objectBoundingBox"><stop offset="0" stop-color="#a19ab0"/><stop offset="0.682" stop-color="#9f9ad3"/><stop offset="1" stop-color="#d3ddf8"/></linearGradient><linearGradient id="c" x1="0.002" y1="0.503" x2="1.004" y2="0.503" xlink:href="#b"/><linearGradient id="d" x1="0.001" y1="0.503" x2="1.004" y2="0.503" xlink:href="#b"/><linearGradient id="e" x1="0.002" y1="0.498" x2="1.004" y2="0.498" xlink:href="#b"/><linearGradient id="f" x1="0.118" y1="0.204" x2="0.921" y2="0.71" gradientUnits="objectBoundingBox"><stop offset="0" stop-color="#f6defa"/><stop offset="1" stop-color="#d1cef8" stop-opacity="0.702"/></linearGradient><linearGradient id="g" x1="0.436" y1="0.503" x2="0.914" y2="0.476" gradientUnits="objectBoundingBox"><stop offset="0.006" stop-color="#fabeae" stop-opacity="0"/><stop offset="0.504" stop-color="#fbcbbe" stop-opacity="0.6"/><stop offset="0.837" stop-color="#fcd5cc"/></linearGradient><linearGradient id="h" x1="-0.002" y1="0.5" x2="1" y2="0.5" gradientUnits="objectBoundingBox"><stop offset="0" stop-color="#e48d9f"/><stop offset="0.286" stop-color="#e99da9"/><stop offset="0.847" stop-color="#f8c8c4"/><stop offset="1" stop-color="#fcd5cc"/></linearGradient><linearGradient id="i" x1="-0.001" y1="0.499" x2="1" y2="0.499" gradientUnits="objectBoundingBox"><stop offset="0" stop-color="#fabeae"/><stop offset="0.599" stop-color="#fbcbbe"/><stop offset="1" stop-color="#fcd5cc"/></linearGradient><linearGradient id="j" x1="0.002" y1="0.498" x2="1" y2="0.498" gradientUnits="objectBoundingBox"><stop offset="0" stop-color="#e7d1fa"/><stop offset="0.682" stop-color="#c7bfed"/><stop offset="1" stop-color="#d1cef8"/></linearGradient><linearGradient id="k" x1="-0.004" y1="0.498" x2="0.998" y2="0.498" xlink:href="#a"/><linearGradient id="l" x1="0.001" y1="0.502" x2="0.998" y2="0.502" gradientUnits="objectBoundingBox"><stop offset="0" stop-color="#ccbde0"/><stop offset="0.682" stop-color="#9288b0"/><stop offset="1" stop-color="#ecddf8"/></linearGradient><linearGradient id="m" x1="0.011" y1="0.505" x2="1.002" y2="0.505" gradientUnits="objectBoundingBox"><stop offset="0" stop-color="#d1cef8"/><stop offset="1" stop-color="#f6defa"/></linearGradient><linearGradient id="n" x1="-0.012" y1="0.499" x2="1.013" y2="0.481" gradientUnits="objectBoundingBox"><stop offset="0" stop-color="#c9b5ef"/><stop offset="0.183" stop-color="#dbc3f4"/><stop offset="0.455" stop-color="#efd3fa"/><stop offset="0.728" stop-color="#fbddfe"/><stop offset="1" stop-color="#ffe0ff"/></linearGradient><linearGradient id="o" x1="-0.002" y1="0.502" x2="0.997" y2="0.502" xlink:href="#a"/><linearGradient id="p" x1="-0.009" y1="0.671" x2="1.015" y2="0.332" gradientUnits="objectBoundingBox"><stop offset="0" stop-color="#ccbde0"/><stop offset="0.559" stop-color="#9288b0"/><stop offset="1" stop-color="#ecddf8"/></linearGradient><linearGradient id="q" x1="-0.002" y1="0.499" x2="1" y2="0.499" xlink:href="#m"/><linearGradient id="r" x1="-0.015" y1="0.513" x2="1.013" y2="0.495" xlink:href="#n"/><linearGradient id="s" x1="-0.007" y1="0.501" x2="1.009" y2="0.501" gradientUnits="objectBoundingBox"><stop offset="0" stop-color="#c495db"/><stop offset="1" stop-color="#a28ec6"/></linearGradient><linearGradient id="t" x1="-0.046" y1="0.5" x2="1.006" y2="0.5" xlink:href="#n"/><linearGradient id="u" x1="0.002" y1="0.505" x2="1.002" y2="0.505" xlink:href="#a"/><linearGradient id="v" x1="0.051" y1="0.82" x2="0.949" y2="0.173" gradientUnits="objectBoundingBox"><stop offset="0" stop-color="#ccbde0"/><stop offset="0.522" stop-color="#9288b0"/><stop offset="1" stop-color="#ecddf8"/></linearGradient><linearGradient id="w" x1="-0.007" y1="0.499" x2="0.995" y2="0.499" xlink:href="#m"/><linearGradient id="x" x1="-0.021" y1="0.508" x2="1.005" y2="0.49" xlink:href="#n"/><linearGradient id="y" x1="-0.002" y1="0.505" x2="0.998" y2="0.505" xlink:href="#a"/><linearGradient id="z" y1="0.499" x2="1.002" y2="0.499" gradientUnits="objectBoundingBox"><stop offset="0" stop-color="#ba9ab0"/><stop offset="0.682" stop-color="#c7bfed"/><stop offset="1" stop-color="#ecddf8"/></linearGradient><linearGradient id="aa" x1="0" y1="0.499" x2="1.002" y2="0.499" xlink:href="#l"/><linearGradient id="ab" x1="-0.008" y1="0.505" x2="0.993" y2="0.505" xlink:href="#m"/><linearGradient id="ac" x1="-0.025" y1="0.51" x2="1.005" y2="0.492" xlink:href="#n"/><linearGradient id="ad" x1="-0.098" y1="0.491" x2="1.021" y2="0.491" gradientUnits="objectBoundingBox"><stop offset="0" stop-color="#fff" stop-opacity="0"/><stop offset="1" stop-color="#fff" stop-opacity="0.502"/></linearGradient><linearGradient id="ae" x1="-0.044" y1="0.509" x2="0.995" y2="0.509" xlink:href="#ad"/><linearGradient id="af" x1="-0.031" y1="0.506" x2="1.001" y2="0.506" xlink:href="#ad"/><linearGradient id="ag" x1="-0.027" y1="0.511" x2="0.993" y2="0.511" xlink:href="#ad"/><linearGradient id="ah" x1="-0.012" y1="0.505" x2="1.002" y2="0.505" xlink:href="#ad"/></defs><g transform="translate(-37.375 -39.985)"><path class="a" d="M102.4,78.3h0a11.348,11.348,0,0,0,2.7-6l.3-2.8.3-.3,5.5-6.2a4.859,4.859,0,0,0-.2-6.8L101.7,69l-.1.9a15.25,15.25,0,0,1-1.9,5.8m8.7-16.9a1.374,1.374,0,0,1,.1,1.8l-4.6,5.2Z"/><path class="b" d="M50.5,83.7A5.835,5.835,0,0,1,46.4,82a5.617,5.617,0,0,1,0-8.1l4.4-4.3a5.919,5.919,0,0,1,8.2,0,5.606,5.606,0,0,1,1.7,4,5.439,5.439,0,0,1-1.7,4L54.6,82A5.835,5.835,0,0,1,50.5,83.7Z"/><path class="c" d="M56.6,92.8a5.835,5.835,0,0,1-4.1-1.7,5.617,5.617,0,0,1,0-8.1l4.4-4.3a5.919,5.919,0,0,1,8.2,0,5.606,5.606,0,0,1,1.7,4,5.439,5.439,0,0,1-1.7,4L60.7,91A5.2,5.2,0,0,1,56.6,92.8Z"/><path class="d" d="M65.4,101.4a5.835,5.835,0,0,1-4.1-1.7,5.617,5.617,0,0,1,0-8.1l4.4-4.3a5.919,5.919,0,0,1,8.2,0,5.606,5.606,0,0,1,1.7,4,5.439,5.439,0,0,1-1.7,4l-4.4,4.3A5.2,5.2,0,0,1,65.4,101.4Z"/><path class="e" d="M73.6,109.5a5.835,5.835,0,0,1-4.1-1.7,5.617,5.617,0,0,1,0-8.1l4.4-4.3a5.919,5.919,0,0,1,8.2,0,5.606,5.606,0,0,1,1.7,4,5.439,5.439,0,0,1-1.7,4l-4.4,4.3A5.54,5.54,0,0,1,73.6,109.5Z"/><path class="f" d="M92.5,44.7,87.3,49,74.8,51.8,65,60.9a4.016,4.016,0,0,0-.2,5.8h0a4.311,4.311,0,0,0,5.8.4l11.7-9.8,4.2,5.4,14.5,14,2.7-9.5,5.5-6.8a3.116,3.116,0,0,0-.3-4.3L96.5,44.8A3.167,3.167,0,0,0,92.5,44.7Z"/><g class="g"><path class="h" d="M99.3,73.1l-16-14.4a1.754,1.754,0,0,0,.1-2.5h0a1.85,1.85,0,0,0-2.5-.1L70.7,65.5a2.959,2.959,0,0,1-4.1,0,2.723,2.723,0,0,1-.9-2.4,3.247,3.247,0,0,1,1-1.8l5.9-5.4a15.979,15.979,0,0,1,10.6-4.1H86l15.3,15-.1.8A15,15,0,0,1,99.3,73.1Z"/><path class="h" d="M89.1,50l4.6-4.4a1.268,1.268,0,0,1,1.8,0l12,11.7a1.244,1.244,0,0,1,.1,1.7l-4.4,4.9Z"/></g><g class="i"><path class="h" d="M99.7,73.5,83.2,58.7a1.754,1.754,0,0,0,.1-2.5h0a1.875,1.875,0,0,0-2.6-.1L70.2,65.8a3.085,3.085,0,0,1-4.2,0,3.021,3.021,0,0,1-.9-2.5,3.247,3.247,0,0,1,1-1.8l6.1-5.6a16.338,16.338,0,0,1,10.9-4.2h2.8L101.6,67l-.1.9A13.674,13.674,0,0,1,99.7,73.5Z"/><path class="h" d="M89.1,49.7l4.8-4.6a1.389,1.389,0,0,1,1.9,0l12.3,12.1a1.374,1.374,0,0,1,.1,1.8l-4.5,5Z"/></g><path class="h" d="M100,73.9,83,58.7a1.786,1.786,0,0,0,.1-2.6h0a1.9,1.9,0,0,0-2.7-.1L69.7,66a3.214,3.214,0,0,1-4.3,0,3.114,3.114,0,0,1-.9-2.6,3.521,3.521,0,0,1,1-1.9l6.2-5.7a16.608,16.608,0,0,1,11.2-4.4h2.9L102,67.3l-.1.9A13.292,13.292,0,0,1,100,73.9Z"/><path class="h" d="M89.2,49.4l4.9-4.7a1.391,1.391,0,0,1,1.9,0l12.7,12.4a1.374,1.374,0,0,1,.1,1.8l-4.6,5.2Z"/><path class="j" d="M82.7,51.4a15.97,15.97,0,0,0-11.2,4.4l-6.3,5.8a3.212,3.212,0,0,0-1,2.2,3.1,3.1,0,0,0,.9,2.2,3.214,3.214,0,0,0,4.3,0l4.7-4.3a9.483,9.483,0,0,1,6.5-2.5,9.307,9.307,0,0,1,6.6,2.7L99.7,74.1a14.705,14.705,0,0,0,1.9-5.8l.1-.9-16.1-16Z"/><path class="j" d="M99.7,73.9a14.705,14.705,0,0,0,1.9-5.8l.1-.9L85.6,51.4H82.7a15.97,15.97,0,0,0-11.2,4.4l-6.3,5.8a3.212,3.212,0,0,0-1,2.2,3.1,3.1,0,0,0,.9,2.2,3.214,3.214,0,0,0,4.3,0l4.7-4.3a9.483,9.483,0,0,1,6.5-2.5c.5,0,1,.1,1.5.1a9.618,9.618,0,0,1,5.1,2.6Z"/><path class="j" d="M108.4,59a1.272,1.272,0,0,0-.1-1.8L95.7,44.7a1.391,1.391,0,0,0-1.9,0l-4.9,4.7,14.9,14.7Z"/><path class="k" d="M106.8,81.4,103,77.7h0l-19.5-19c-1.4-1.4-4.8.5-2.6,2.6l19.7,19.2,3.5,3.4a2.608,2.608,0,0,1,.1,3.5,2.732,2.732,0,0,1-1.9.8h0a2.732,2.732,0,0,1-1.9-.8L98,85a2.177,2.177,0,0,0-.8-.5l-9.6-9.8a1.84,1.84,0,0,0-2.7,2.5L97.8,90.3a2.608,2.608,0,0,1,.1,3.5,2.732,2.732,0,0,1-1.9.8h0a2.5,2.5,0,0,1-1.4-.4,1.381,1.381,0,0,1-.3-.4l-13-13a1.84,1.84,0,0,0-2.7,2.5l9.9,10.1c.1.1.2.3.3.4l2.4,2.5a2.651,2.651,0,0,0,.6.5,2.423,2.423,0,0,1-.3,3,2.656,2.656,0,0,1-3.8,0l-.5-.5-.1-.1-1.8-1.8h0l-13-13.3a1.875,1.875,0,0,0-2.6-.1,1.786,1.786,0,0,0-.1,2.6l13,13.4,1.8,1.9a2.585,2.585,0,0,1,0,3.4,2.814,2.814,0,0,1-2.1,1,2.723,2.723,0,0,1-2.1-.9L50.8,73.5a5.208,5.208,0,0,1-1.4-3.1L49,67.3a4.793,4.793,0,0,0-.7-2l-.3-.5,14.9-14,.8.2a14.873,14.873,0,0,0,3.6.5h3c1.9,0,2.7-.3,4.1,1,.8.7.6-.3,1.3-1.1.7-.7,3.1.1,2.3-.6a11.593,11.593,0,0,0-7.8-2.9h-3a10.679,10.679,0,0,1-2.5-.3l-.7-.2-5.9-5a4.934,4.934,0,0,0-6.7.2l-12.6,11a4.65,4.65,0,0,0,0,6.7l5.3,5.2.7,1.4.3.9.4,3.1a10.027,10.027,0,0,0,2.3,5l29.5,31.9a6.66,6.66,0,0,0,4.8,2.1h.2a6.633,6.633,0,0,0,4.9-2.4,6.911,6.911,0,0,0,1.4-3.3c.3,0,.5.1.8.1h.1a6.438,6.438,0,0,0,4.7-2.1,5.905,5.905,0,0,0,1.6-4.1,6.06,6.06,0,0,0,4.6-2.1,6.39,6.39,0,0,0,1.6-4.3h.2a6.438,6.438,0,0,0,4.7-2.1A5.736,5.736,0,0,0,106.8,81.4Z"/><path class="l" d="M107,80.6l-3.8-3.7h0L83.7,58c-1.4-1.4-4.8.5-2.6,2.6l19.7,19.2,3.5,3.4a2.608,2.608,0,0,1,.1,3.5,2.732,2.732,0,0,1-1.9.8h0a2.732,2.732,0,0,1-1.9-.8l-2.4-2.5a2.177,2.177,0,0,0-.8-.5l-9.6-9.8a1.84,1.84,0,0,0-2.7,2.5L98,89.5a2.608,2.608,0,0,1,.1,3.5,2.732,2.732,0,0,1-1.9.8h0a2.5,2.5,0,0,1-1.4-.4,1.381,1.381,0,0,1-.3-.4l-13-13a1.84,1.84,0,0,0-2.7,2.5l9.9,10.1c.1.1.2.3.3.4l2.4,2.5a2.651,2.651,0,0,0,.6.5,2.423,2.423,0,0,1-.3,3,2.656,2.656,0,0,1-3.8,0l-.5-.5-.1-.1-1.8-1.8h0l-13-13.3a1.875,1.875,0,0,0-2.6-.1,1.786,1.786,0,0,0-.1,2.6l13,13.4,1.8,1.9a2.585,2.585,0,0,1,0,3.4,2.814,2.814,0,0,1-2.1,1,2.723,2.723,0,0,1-2.1-.9L51,72.7a5.208,5.208,0,0,1-1.4-3.1l-.4-3.1a4.793,4.793,0,0,0-.7-2l-.3-.5L63.1,50l.8.2a14.873,14.873,0,0,0,3.6.5h3a7.844,7.844,0,0,1,5.1,1.9c.8.7.6-.3,1.3-1.1.7-.7,2-.9,1.3-1.6A11.593,11.593,0,0,0,70.4,47h-3a10.679,10.679,0,0,1-2.5-.3l-.7-.2-5.9-5a4.934,4.934,0,0,0-6.7.2L39.8,53.4a4.65,4.65,0,0,0,0,6.7l4.6,4.6.7,1.4.3.9.4,3.1a10.027,10.027,0,0,0,2.3,5L77.6,107a6.66,6.66,0,0,0,4.8,2.1h.2a6.633,6.633,0,0,0,4.9-2.4,6.911,6.911,0,0,0,1.4-3.3c.3,0,.5.1.8.1h.1a6.438,6.438,0,0,0,4.7-2.1,5.905,5.905,0,0,0,1.6-4.1,6.06,6.06,0,0,0,4.6-2.1,6.39,6.39,0,0,0,1.6-4.3h.2a6.438,6.438,0,0,0,4.7-2.1A5.83,5.83,0,0,0,107,80.6Z"/><path class="m" d="M106.2,80.2l-3.8-3.7h0l-19.5-19c-1.4-1.4-4.8.5-2.6,2.6L100,79.3l3.5,3.4a2.608,2.608,0,0,1,.1,3.5,2.732,2.732,0,0,1-1.9.8h0a2.094,2.094,0,0,1-1.9-.8l-2.4-2.6a2.177,2.177,0,0,0-.8-.5L87,73.3a1.84,1.84,0,0,0-2.7,2.5L97.2,88.9a2.608,2.608,0,0,1,.1,3.5,2.732,2.732,0,0,1-1.9.8h0a2.5,2.5,0,0,1-1.4-.4,1.381,1.381,0,0,1-.3-.4l-13-12.8A1.84,1.84,0,0,0,78,82.1l9.9,10.1c.1.1.2.3.3.4l2.4,2.5a2.651,2.651,0,0,0,.6.5,2.423,2.423,0,0,1-.3,3,2.656,2.656,0,0,1-3.8,0l-.5-.5-.1-.1-1.8-1.8h0l-13-13.3a1.875,1.875,0,0,0-2.6-.1,1.786,1.786,0,0,0-.1,2.6L82,98.8l1.8,1.9a2.585,2.585,0,0,1,0,3.4,2.814,2.814,0,0,1-2.1,1,2.723,2.723,0,0,1-2.1-.9L50.2,72.4a5.208,5.208,0,0,1-1.4-3.1l-.4-3.1a4.793,4.793,0,0,0-.7-2l-.2-.5L61.7,50.3a1.485,1.485,0,0,1,1.4-.4h0a14.873,14.873,0,0,0,3.6.5h3a7.844,7.844,0,0,1,5.1,1.9c1,.9.4-1.2,2.3-1.6.6-.1.7-.6.2-1.1a11.525,11.525,0,0,0-7.7-2.9h-3a10.679,10.679,0,0,1-2.5-.3l-.7-.2-5.9-5a4.934,4.934,0,0,0-6.7.2L39,53a4.65,4.65,0,0,0,0,6.7l4.6,4.6.7,1.4.3.9.4,3.1a10.027,10.027,0,0,0,2.3,5l29.5,31.9a6.66,6.66,0,0,0,4.8,2.1h.2a6.633,6.633,0,0,0,4.9-2.4,6.911,6.911,0,0,0,1.4-3.3c.3,0,.5.1.8.1H89a6.963,6.963,0,0,0,2.5-.5A6.07,6.07,0,0,0,95.2,97a6.06,6.06,0,0,0,4.6-2.1,6.39,6.39,0,0,0,1.6-4.3h.2a6.438,6.438,0,0,0,4.7-2.1A5.856,5.856,0,0,0,106.2,80.2Z"/><g class="n"><path class="o" d="M77.4,49.5a12.011,12.011,0,0,0-5.1-2.4,12.65,12.65,0,0,0-2.8-.3H66.6l-2.9-.1a1.345,1.345,0,0,1-.8-.2c-.3-.1-.4-.3-.6-.5l-1-1c-1.4-1.3-2.8-2.6-4.1-4,1.5,1.2,2.9,2.4,4.4,3.7l1.1.9a1.274,1.274,0,0,0,1.1.5h2.9l2.9.1a14.279,14.279,0,0,1,2.9.3A15.405,15.405,0,0,1,77.4,49.5Z"/></g><path class="p" d="M106.2,80.2l-3.8-3.7h0l-9.2-9c-1.4-1.4-6.5,3.8-4.3,5.9l.7,4.4s12,14.4,11.9,12.9h.2a6.438,6.438,0,0,0,4.7-2.1A6.076,6.076,0,0,0,106.2,80.2Z"/><path class="q" d="M104,86.3a2.732,2.732,0,0,1-1.9.8h0a2.094,2.094,0,0,1-1.9-.8l-2.4-2.6a2.177,2.177,0,0,0-.8-.5l-9.6-9.8a1.84,1.84,0,0,0-2.7,2.5L97.6,89a2.608,2.608,0,0,1,.1,3.5,2.732,2.732,0,0,1-1.9.8h0a2.5,2.5,0,0,1-1.4-.4,1.381,1.381,0,0,1-.3-.4l-13-12.9a1.84,1.84,0,0,0-2.7,2.5l9.9,10.1c.1.1.2.3.3.4L91,95.1a2.651,2.651,0,0,0,.6.5,2.423,2.423,0,0,1-.3,3,2.656,2.656,0,0,1-3.8,0l-.5-.5-.1-.1L85,96.3h0L72,83a1.875,1.875,0,0,0-2.6-.1,1.786,1.786,0,0,0-.1,2.6l13,13.4,1.8,1.9a2.585,2.585,0,0,1,0,3.4,2.814,2.814,0,0,1-2.1,1,2.723,2.723,0,0,1-2.1-.9L50.6,72.4a5.208,5.208,0,0,1-1.4-3.1l-.4-3.1a4.793,4.793,0,0,0-.7-2l-.2-.5L61.8,50.3a2.155,2.155,0,0,1,1.7-.5,13.828,13.828,0,0,0,3.8.4l3-.1a7.89,7.89,0,0,1,2.9.8.349.349,0,0,0,.2-.1L62.6,60.3l-1,3.9,1.7,3.6,2.6,1.9h3.9l3.3-2.4,7.7-6.9,19.7,19.1,3.5,3.4A2.475,2.475,0,0,1,104,86.3Z"/><path class="r" d="M102.6,86.6a2.389,2.389,0,0,1-1.4.5h0a2.606,2.606,0,0,1-2-.7l-2.5-2.6c-.2-.2-10.5-10.3-10.5-10.3A1.84,1.84,0,0,0,83.5,76L96.4,89.1a2.608,2.608,0,0,1,.1,3.5,2.732,2.732,0,0,1-1.9.8h0a2.5,2.5,0,0,1-1.4-.4,1.381,1.381,0,0,1-.3-.4L80,79.6a1.84,1.84,0,0,0-2.7,2.5l9.9,10.1c.1.1.2.3.3.4l2.4,2.5a2.651,2.651,0,0,0,.6.5,2.423,2.423,0,0,1-.3,3,2.656,2.656,0,0,1-3.8,0l-.5-.5-.1-.1L84,96.3h0L71,82.9a1.875,1.875,0,0,0-2.6-.1,1.786,1.786,0,0,0-.1,2.6l13,13.4,1.8,1.9a2.585,2.585,0,0,1,0,3.4,2.814,2.814,0,0,1-2.1,1,2.723,2.723,0,0,1-2.1-.9L49.6,72.4a5.208,5.208,0,0,1-1.4-3.1l-.4-3.1a4.793,4.793,0,0,0-.7-2h0a.755.755,0,0,1,.1-.8L61.1,50.3a1.436,1.436,0,0,1,1.4-.3h0a14.873,14.873,0,0,0,3.6.5h3a8.025,8.025,0,0,1,3,.6.349.349,0,0,0,.2-.1L61.5,60.5l-1,3.9L62.2,68l2.6,1.9h3.9L72,67.5l7.7-6.9L99.4,79.7l3.5,3.4A2.169,2.169,0,0,1,102.6,86.6Z"/><path class="s" d="M103.2,86.6a2.389,2.389,0,0,1-1.4.5h0a2.606,2.606,0,0,1-2-.7l-2.5-2.6c-.2-.2-10.5-10.3-10.5-10.3A1.84,1.84,0,0,0,84.1,76L97,89.1a2.608,2.608,0,0,1,.1,3.5,2.732,2.732,0,0,1-1.9.8h0a2.5,2.5,0,0,1-1.4-.4,1.381,1.381,0,0,1-.3-.4l-12.8-13A1.84,1.84,0,0,0,78,82.1l9.9,10.1c.1.1.2.3.3.4l2.4,2.5a2.651,2.651,0,0,0,.6.5,2.423,2.423,0,0,1-.3,3,2.656,2.656,0,0,1-3.8,0l-.5-.5-.1-.1-1.8-1.8h0l-13-13.3a1.875,1.875,0,0,0-2.6-.1,1.786,1.786,0,0,0-.1,2.6L82,98.8l1.8,1.9a2.585,2.585,0,0,1,0,3.4,2.814,2.814,0,0,1-2.1,1,2.723,2.723,0,0,1-2.1-.9L50.2,72.4a5.208,5.208,0,0,1-1.4-3.1l-.4-3.1a4.793,4.793,0,0,0-.7-2h0a.755.755,0,0,1,.1-.8l13.9-13a1.485,1.485,0,0,1,1.4-.4h0a14.873,14.873,0,0,0,3.6.5h3a8.025,8.025,0,0,1,3,.6.349.349,0,0,0,.2-.1L62.1,60.5l-1,3.9L62.8,68l2.6,1.9h3.9l3.3-2.4,7.7-6.9L100,79.3l3.5,3.4A2.563,2.563,0,0,1,103.2,86.6Z"/><path class="t" d="M62.5,68.6s9.2,7.4,14.9,2a84.735,84.735,0,0,0,6.7-6.7l-3.5-3.4C80.6,60.4,68.1,75.4,62.5,68.6Z"/><path class="u" d="M62.6,68.7s8.8,7,14.4,1.6a84.735,84.735,0,0,0,6.7-6.7l-3.2-3.2S67.9,75.1,62.6,68.7Z"/><path class="v" d="M62.8,68.8s8.3,6.6,14,1.2a84.735,84.735,0,0,0,6.7-6.7l-3-2.9S67.8,74.9,62.8,68.8Z"/><path class="w" d="M63,68.9s7.8,6.2,13.5.8A84.735,84.735,0,0,0,83.2,63l-2.7-2.7C80.4,60.3,67.7,74.6,63,68.9Z"/><path class="x" d="M63.1,69s7.4,5.8,13.1.4a84.735,84.735,0,0,0,6.7-6.7l-2.5-2.4S67.5,74.4,63.1,69Z"/><path class="y" d="M63.3,69.1s6.9,5.4,12.6,0a84.735,84.735,0,0,0,6.7-6.7l-2.2-2.2S67.4,74.1,63.3,69.1Z"/><path class="z" d="M63.5,69.2s6.5,5,12.2-.4a84.735,84.735,0,0,0,6.7-6.7l-2-1.9C80.3,60.2,67.3,73.9,63.5,69.2Z"/><path class="aa" d="M63.6,69.3s6,4.6,11.7-.8A84.735,84.735,0,0,0,82,61.8l-1.7-1.7C80.3,60.2,67.1,73.6,63.6,69.3Z"/><path class="ab" d="M63.8,69.5a8.711,8.711,0,0,0,11.3-1.2,84.735,84.735,0,0,0,6.7-6.7l-1.5-1.4C80.2,60.1,67,73.4,63.8,69.5Z"/><path class="ac" d="M63.9,69.6S69,73.4,74.7,68a84.735,84.735,0,0,0,6.7-6.7l-1.2-1.2S66.9,73.1,63.9,69.6Z"/><path class="ad" d="M102.4,76.6h0a11.348,11.348,0,0,0,2.7-6l.3-2.8.3-.3,5.5-6.2a4.859,4.859,0,0,0-.2-6.8L98.3,42.2a5.26,5.26,0,0,0-7.2,0l-5.2,5a2.092,2.092,0,0,0-.4.6H82.6a20.694,20.694,0,0,0-13.8,5.3l-6.2,5.7a6.548,6.548,0,0,0-.2,9.8,6.954,6.954,0,0,0,9.5,0l10.8-9.9a1.786,1.786,0,0,0,.1-2.6h0a1.9,1.9,0,0,0-2.7-.1L69.4,66a3.214,3.214,0,0,1-4.3,0,3.114,3.114,0,0,1-.9-2.6,3.521,3.521,0,0,1,1-1.9l6.2-5.7a16.608,16.608,0,0,1,11.2-4.4h2.9l16.2,15.9-.1.9A15.25,15.25,0,0,1,99.7,74M88.9,49.4l4.9-4.7a1.391,1.391,0,0,1,1.9,0l12.7,12.4a1.374,1.374,0,0,1,.1,1.8l-4.6,5.2Z"/><path class="ae" d="M54.8,82.8c-2.3-2.1-1.6-2.4-2.4-3.5-1.7-2.2-5-3-3.4-5.2l1.3-4c1.7-2.2,6.3-1.6,8,.6a5.242,5.242,0,0,1,1.1,3.5,6.637,6.637,0,0,1-1.7,3.9l-2.9,4A1.488,1.488,0,0,0,54.8,82.8Z"/><path class="af" d="M49.8,82.9a5.444,5.444,0,0,1-3.9-1.6,5.372,5.372,0,0,1,0-7.6l3.7-3.6a5.616,5.616,0,0,1,7.8,0,5.313,5.313,0,0,1,0,7.6l-3.7,3.6A5.444,5.444,0,0,1,49.8,82.9Z"/><path class="ag" d="M55,70a2.878,2.878,0,0,0-2.1.9l-3.2,3.2a2.97,2.97,0,1,0,4.2,4.2l3.2-3.2a2.9,2.9,0,0,0,0-4.2A2.724,2.724,0,0,0,55,70Z"/><path class="ah" d="M54.9,70a3.022,3.022,0,0,0-1.6.5,6.279,6.279,0,0,0-1.1,1.2,17.526,17.526,0,0,1-2.3,2.4,2.442,2.442,0,0,0-.6,2.9,2.627,2.627,0,0,0,2.6,1.6,2.7,2.7,0,0,0,1.5-.5,13.578,13.578,0,0,0,1.2-1.2c.8-.8,1.6-1.6,2.3-2.4a2.782,2.782,0,0,0,.6-2.9,3.045,3.045,0,0,0-.9-1.3A8.585,8.585,0,0,0,54.9,70Zm0,0a3.092,3.092,0,0,1,2.8,1.7,3.24,3.24,0,0,1-.5,3.4l-2.4,2.4a15.379,15.379,0,0,1-1.3,1.2,3.371,3.371,0,0,1-1.7.5,2.927,2.927,0,0,1-2.7-1.9,3.1,3.1,0,0,1,.5-3.3L52,71.6a6.885,6.885,0,0,1,1.3-1.1A2.518,2.518,0,0,1,54.9,70Z"/><path class="ai" d="M60.9,92.1c-2.3-2.1-1.6-2.5-2.4-3.6-1.7-2.2-5.1-3.1-3.4-5.3l2.2-4.9c1.7-2.2,6.4-1.6,8.1.6a5.242,5.242,0,0,1,1.1,3.5,7.22,7.22,0,0,1-1.7,4l-3.9,5A1.488,1.488,0,0,0,60.9,92.1Z"/><path class="aj" d="M55.9,92.2A5.444,5.444,0,0,1,52,90.6,5.2,5.2,0,0,1,52,83l4.6-4.6a5.616,5.616,0,0,1,7.8,0,5.313,5.313,0,0,1,0,7.6l-4.6,4.6A5.444,5.444,0,0,1,55.9,92.2Z"/><path class="ak" d="M62.1,78.3a2.878,2.878,0,0,0-2.1.9l-4.1,4.2a3.018,3.018,0,0,0,0,4.3,2.9,2.9,0,0,0,4.2,0l4.1-4.2a3.018,3.018,0,0,0,0-4.3A2.878,2.878,0,0,0,62.1,78.3Z"/><path class="al" d="M62.1,78.4a2.523,2.523,0,0,0-1.7.6,8.635,8.635,0,0,0-1.3,1.4,35.7,35.7,0,0,1-2.7,2.8,3.007,3.007,0,0,0-1.1,1.4A2.759,2.759,0,0,0,58,88.4a2.716,2.716,0,0,0,1.7-.6L61,86.5l2.7-2.7a4.5,4.5,0,0,0,1.1-1.4,3.284,3.284,0,0,0,.1-1.7,2.523,2.523,0,0,0-1-1.5A2.3,2.3,0,0,0,62.1,78.4Zm0-.1a3.124,3.124,0,0,1,3,2.1,3.408,3.408,0,0,1,0,2A3.252,3.252,0,0,1,63.9,84l-2.7,2.7c-.5.4-.9.9-1.4,1.3a3.077,3.077,0,0,1-1.9.6A3.123,3.123,0,0,1,55,86.4a3.4,3.4,0,0,1,0-2,4.569,4.569,0,0,1,1.1-1.6l2.7-2.7c.5-.4.9-.9,1.4-1.3A4.486,4.486,0,0,1,62.1,78.3Z"/><path class="am" d="M85.6,51.4l16.2,15.9-.1.9A15.25,15.25,0,0,1,99.8,74m2.6,2.6h0a11.348,11.348,0,0,0,2.7-6l.3-2.8.3-.3,5.5-6.2a4.859,4.859,0,0,0-.2-6.8L98.3,42.2a5.26,5.26,0,0,0-7.2,0l-5.2,5a2.092,2.092,0,0,0-.4.6H82.6a20.694,20.694,0,0,0-13.8,5.3l-6.2,5.7a6.548,6.548,0,0,0-.2,9.8,6.954,6.954,0,0,0,9.5,0l10.8-9.9a1.786,1.786,0,0,0,.1-2.6h0a1.9,1.9,0,0,0-2.7-.1L69.4,66a3.214,3.214,0,0,1-4.3,0"/><path class="am" d="M88.9,49.4l4.9-4.7a1.391,1.391,0,0,1,1.9,0l12.7,12.4a1.374,1.374,0,0,1,.1,1.8l-4.6,5.2Z"/><path class="an" d="M65.1,65.9a2.953,2.953,0,0,1-.8-3.3,3.269,3.269,0,0,1,1.1-1.5l1.3-1.2c1.7-1.7,3.5-3.3,5.3-4.9a16.32,16.32,0,0,1,6.4-3.3,14.873,14.873,0,0,1,3.6-.5h3.7c1.3,1.3,2.6,2.7,3.9,4-1.4-1.3-2.8-2.5-4.1-3.8h.1c-1.2,0-2.4,0-3.6.1a19.677,19.677,0,0,0-3.5.5,17.105,17.105,0,0,0-6.3,3.2L66.9,60l-1.3,1.2a3.339,3.339,0,0,0-1.1,1.3A3.013,3.013,0,0,0,65.1,65.9Z"/><path class="ao" d="M82.8,58.7a1.786,1.786,0,0,0,.1-2.6h0a1.9,1.9,0,0,0-2.7-.1L69.4,66a3.214,3.214,0,0,1-4.3,0"/><path class="ap" d="M95.7,61.3c1.1.9,2.2,1.8,3.2,2.8l1.5,1.5,1.5,1.5h0s.1.1,0,.1a14.489,14.489,0,0,1-.7,3.5,18.667,18.667,0,0,1-1.5,3.2,17.88,17.88,0,0,0,1.3-3.2,20.209,20.209,0,0,0,.6-3.4l.1.2c-.5-.5-1-1-1.6-1.5l-1.5-1.5A41.952,41.952,0,0,1,95.7,61.3Z"/><path class="aq" d="M69.9,100.2c-2.6-2.3-1.8-2.7-2.7-3.9-1.8-2.4-5.5-3.4-3.7-5.8l1.9-4.9c1.8-2.4,7-1.7,8.8.7a5.75,5.75,0,0,1,1.3,3.9,7.268,7.268,0,0,1-1.8,4.3l-3.7,5A2.639,2.639,0,0,0,69.9,100.2Z"/><path class="ar" d="M64.5,100.4a6.5,6.5,0,0,1-4.3-1.7,5.684,5.684,0,0,1,0-8.3l4.6-4.5a6.1,6.1,0,0,1,8.5,0,5.988,5.988,0,0,1,1.8,4.2,5.6,5.6,0,0,1-1.8,4.2l-4.6,4.5A6.661,6.661,0,0,1,64.5,100.4Z"/><path class="as" d="M70.8,85.7a3.038,3.038,0,0,0-2.3,1l-4,4.1a3.253,3.253,0,0,0,4.6,4.6l4-4.1a3.3,3.3,0,0,0-2.3-5.6Z"/><path class="at" d="M70.8,85.7a2.792,2.792,0,0,0-1.8.6c-.5.4-.9,1-1.4,1.4-.9,1-1.8,1.9-2.8,2.9a3.092,3.092,0,0,0-1,3.5,3.124,3.124,0,0,0,3,2.1,3,3,0,0,0,1.8-.6A18.479,18.479,0,0,0,70,94.2c.9-1,1.9-1.9,2.8-2.9a3.148,3.148,0,0,0,1-3.4,3.553,3.553,0,0,0-1.1-1.6A6.971,6.971,0,0,0,70.8,85.7Zm0,0A3.486,3.486,0,0,1,74,87.8a3.713,3.713,0,0,1,.2,2.1,3.412,3.412,0,0,1-1.1,1.8c-.9,1-1.9,1.9-2.8,2.8-.5.5-.9.9-1.5,1.4a3.452,3.452,0,0,1-5.2-1.7,3.421,3.421,0,0,1-.1-2,3.247,3.247,0,0,1,1-1.8,38.335,38.335,0,0,1,2.9-2.8c.5-.4.9-.9,1.5-1.3A3.077,3.077,0,0,1,70.8,85.7Z"/><path class="au" d="M78,108.3c-2.5-2.2-1.7-2.6-2.6-3.8-1.8-2.3-5.3-3.2-3.6-5.6l1.9-4.7c1.8-2.3,6.7-1.7,8.5.7a5.174,5.174,0,0,1,1.2,3.7,6.986,6.986,0,0,1-1.8,4.2L78,107.6A1.488,1.488,0,0,0,78,108.3Z"/><path class="av" d="M72.7,108.5a5.835,5.835,0,0,1-4.1-1.7,5.617,5.617,0,0,1,0-8.1L73,94.4a5.919,5.919,0,0,1,8.2,0,5.606,5.606,0,0,1,1.7,4,5.439,5.439,0,0,1-1.7,4l-4.4,4.3A5.54,5.54,0,0,1,72.7,108.5Z"/><path class="aw" d="M72.7,108.5a5.835,5.835,0,0,1-4.1-1.7,5.617,5.617,0,0,1,0-8.1L73,94.4a5.919,5.919,0,0,1,8.2,0,5.606,5.606,0,0,1,1.7,4c0,1.5-6.4.7-7.5,1.8L71,104.5C69.9,105.7,74.2,108.5,72.7,108.5Z"/><path class="ax" d="M78.8,94.3a3.1,3.1,0,0,0-2.2.9l-3.9,3.9a3.182,3.182,0,0,0,4.5,4.5l3.9-3.9a3.262,3.262,0,0,0,0-4.5A3.523,3.523,0,0,0,78.8,94.3Z"/><path class="ay" d="M78.8,94.4A3,3,0,0,0,77,95a8.636,8.636,0,0,0-1.3,1.4c-.9,1-1.8,1.9-2.7,2.8a3,3,0,0,0-1,3.3,3.041,3.041,0,0,0,2.9,2,2.715,2.715,0,0,0,1.7-.6,15.934,15.934,0,0,0,1.3-1.3c.9-.9,1.8-1.9,2.7-2.8a3.371,3.371,0,0,0,1-3.3,3.072,3.072,0,0,0-1-1.5A3.226,3.226,0,0,0,78.8,94.4Zm0-.1a3.426,3.426,0,0,1,3.3,4.1,2.833,2.833,0,0,1-1.1,1.7l-2.7,2.7c-.5.4-.9.9-1.5,1.3a3.534,3.534,0,0,1-1.9.6,3.25,3.25,0,0,1-3-2.2,3.378,3.378,0,0,1-.1-2,2.7,2.7,0,0,1,1-1.7c.9-.9,1.8-1.8,2.8-2.7.5-.4.9-.9,1.5-1.3A2.86,2.86,0,0,1,78.8,94.3Z"/><path class="az" d="M82,98.9c.4.3.8.7,1.2,1a6.278,6.278,0,0,1,1.1,1.2,2.492,2.492,0,0,1,.3,1.7,2.189,2.189,0,0,1-.8,1.4,4.191,4.191,0,0,0,.4-1.5,2.3,2.3,0,0,0-.4-1.4,9.38,9.38,0,0,0-.9-1.2Z"/><path class="ba" d="M87.9,92.2a3.043,3.043,0,0,0,.8.8c.3.3.6.5.9.8.6.5,1.1,1.1,1.7,1.6l.1.1a2.7,2.7,0,0,1-1.2,3.9,3.33,3.33,0,0,1-2.2.1,4.389,4.389,0,0,1-1.6-1.4,5.716,5.716,0,0,0,.8.7,4.053,4.053,0,0,0,.9.5,2.539,2.539,0,0,0,1.9-.2,2.365,2.365,0,0,0,1.2-1.4,2.247,2.247,0,0,0-.2-1.8l.1.1-.9-.9-.8-.9c-.3-.3-.5-.6-.8-.9A3.377,3.377,0,0,1,87.9,92.2Z"/><path class="bb" d="M97.1,89.1a2.439,2.439,0,0,1,.7,2.9,2.627,2.627,0,0,1-2.6,1.6h-.4c-.1,0-.3-.1-.4-.1a2.506,2.506,0,0,1-.7-.4h0c-.1-.1-.2-.3-.3-.4a1.381,1.381,0,0,0,.4.3h0a1.445,1.445,0,0,0,.7.2h.6a2.538,2.538,0,0,0,2.2-1.4,2,2,0,0,0,.2-1.3A2.3,2.3,0,0,0,97.1,89.1Z"/><path class="bc" d="M100,79.3l2.1,1.8,1,.9a9.428,9.428,0,0,1,1,1,2.586,2.586,0,0,1,.1,2.8,2.851,2.851,0,0,1-2.5,1.4h0a2.822,2.822,0,0,1-1.5-.4c-.4-.3-.7-.7-1.1-1l-1.8-2.1c.7.6,1.4,1.3,2.1,1.9a4.3,4.3,0,0,0,1,.9,2.663,2.663,0,0,0,1.2.3h0a2.4,2.4,0,0,0,2-1.2,2.55,2.55,0,0,0,0-2.4c-.2-.3-.6-.6-.9-1l-.9-1A16.6,16.6,0,0,1,100,79.3Z"/><path class="bd" d="M76.9,106.7a6.832,6.832,0,0,0,3.2,1.8,6.331,6.331,0,0,0,3.6-.2,6.6,6.6,0,0,0,2.9-2,5.628,5.628,0,0,0,1.3-3.2.319.319,0,0,1,.3-.3h0a7.067,7.067,0,0,0,2.5-.2,5.316,5.316,0,0,0,2.2-1.2A6.158,6.158,0,0,0,95,97a.43.43,0,0,1,.4-.4h0a5.988,5.988,0,0,0,4.2-1.8,5.9,5.9,0,0,0,1.7-4.2h0a.265.265,0,0,1,.3-.3h0a5.645,5.645,0,0,0,4.3-1.6,5.748,5.748,0,0,0,1.9-4.3A6.66,6.66,0,0,0,106,80l-3.5-3.6,3.7,3.4a6.06,6.06,0,0,1,2.1,4.6,6.834,6.834,0,0,1-1.9,4.7,7.078,7.078,0,0,1-4.8,1.9l.3-.3a6.046,6.046,0,0,1-1.9,4.7,6.508,6.508,0,0,1-4.7,2l.4-.4a6.555,6.555,0,0,1-7.5,6.4l.3-.3a7.343,7.343,0,0,1-1.5,3.5,6.043,6.043,0,0,1-3.2,2,7.718,7.718,0,0,1-3.7,0A5.546,5.546,0,0,1,76.9,106.7Z"/></g></svg>