<svg xmlns="http://www.w3.org/2000/svg" xmlns:xlink="http://www.w3.org/1999/xlink" width="65.024" height="70.079" viewBox="0 0 65.024 70.079"><defs><style>.a{fill:url(#a);}.b{fill:url(#b);}.c{fill:#f0e1dc;}.d{fill:#e9d9d4;}.e{fill:#e3d1cb;}.f{fill:#dcc9c3;}.g{fill:#fef6f4;}.h{fill:#fdfef9;}.i{fill:#d88690;}.j{fill:#dec7b5;}.k{fill:#f0757a;opacity:0;}.l{fill:#dd656b;opacity:0.333;}.m{fill:#cb545b;opacity:0.667;}.n{fill:#b8444c;}.o{fill:#f5868d;}.p{fill:#fecace;}.q{fill:#ffa6ac;}.r{fill:url(#c);}.s{fill:url(#d);}.t{fill:#eb8d8d;}.u{fill:#eb9fa4;}.v{fill:url(#e);}.w{opacity:0.5;}.x{fill:url(#f);}.y{fill:#f3cfff;}.z{fill:#906593;}.aa{fill:#eebdf4;}.ab{fill:none;stroke:#707070;stroke-miterlimit:10;stroke-width:0.1px;}.ac{opacity:0.25;}.ad{fill:#fff;}</style><radialGradient id="a" cx="0.501" cy="0.5" r="0.461" gradientTransform="translate(-0.099 -0.015) scale(1.147 1.03)" gradientUnits="objectBoundingBox"><stop offset="0" stop-color="#cea6a7"/><stop offset="0.242" stop-color="#d5aeb7" stop-opacity="0.757"/><stop offset="0.714" stop-color="#e6c4e2" stop-opacity="0.286"/><stop offset="1" stop-color="#f2d3ff" stop-opacity="0"/></radialGradient><linearGradient id="b" x1="0.499" y1="1.006" x2="0.499" y2="0.017" gradientUnits="objectBoundingBox"><stop offset="0" stop-color="#ffaeb7"/><stop offset="0.401" stop-color="#ffacb5"/><stop offset="0.599" stop-color="#fea5ad"/><stop offset="0.752" stop-color="#fc99a0"/><stop offset="0.882" stop-color="#fa878e"/><stop offset="0.897" stop-color="#fa858b"/><stop offset="0.921" stop-color="#f97c82"/><stop offset="0.961" stop-color="#f5646b"/><stop offset="1" stop-color="#f0454d"/></linearGradient><radialGradient id="c" cx="0.498" cy="0.5" r="0.461" gradientTransform="translate(-0.125 -0.015) scale(1.151 1.03)" gradientUnits="objectBoundingBox"><stop offset="0" stop-color="#906593"/><stop offset="0.2" stop-color="#9f75a3" stop-opacity="0.8"/><stop offset="0.594" stop-color="#c5a0cd" stop-opacity="0.408"/><stop offset="1" stop-color="#f2d3ff" stop-opacity="0"/></radialGradient><radialGradient id="d" cx="0.502" cy="0.503" r="0.249" gradientTransform="matrix(0.699, -0.719, 1.393, 1.339, 46.907, 21.18)" xlink:href="#a"/><linearGradient id="e" y1="0.5" x2="1.002" y2="0.5" gradientUnits="objectBoundingBox"><stop offset="0" stop-color="#e9a4b7"/><stop offset="0.434" stop-color="#ef98a7"/><stop offset="1" stop-color="#fa858b"/></linearGradient><linearGradient id="f" x1="-0.002" y1="0.499" x2="1.005" y2="0.499" gradientUnits="objectBoundingBox"><stop offset="0" stop-color="#e9a4b7"/><stop offset="0.344" stop-color="#efb4bc"/><stop offset="1" stop-color="#ffdec9"/></linearGradient></defs><g transform="translate(-42 -39.5)"><path class="a" d="M87.9,108.2l-38.8-.7a4.781,4.781,0,0,1-4.7-4.8v-45a4.717,4.717,0,0,1,4.7-4.8H87.9a4.781,4.781,0,0,1,4.7,4.8v45.7A4.781,4.781,0,0,1,87.9,108.2Z"/><path class="b" d="M64.2,103.9H49.8a3.9,3.9,0,0,1-3.9-3.9v-.3a3.9,3.9,0,0,1,3.9-3.9H64.2a3.9,3.9,0,0,1,3.9,3.9v.3A3.97,3.97,0,0,1,64.2,103.9Z"/><path class="c" d="M51.2,98a3.5,3.5,0,0,0,0,7H65.5a3.5,3.5,0,0,0,0-7Zm14.3,8H51.2a4.5,4.5,0,0,1,0-9H65.5a4.5,4.5,0,0,1,0,9Z"/><path class="d" d="M50.8,97.7a3.5,3.5,0,0,0,0,7H65.1a3.5,3.5,0,0,0,0-7Zm14.4,8H50.8a4.5,4.5,0,0,1,0-9H65.1a4.461,4.461,0,0,1,4.4,4.5A4.376,4.376,0,0,1,65.2,105.7Z"/><path class="e" d="M50.5,97.3a3.5,3.5,0,0,0,0,7H64.8a3.5,3.5,0,0,0,0-7Zm14.3,8H50.5a4.5,4.5,0,0,1,0-9H64.8a4.461,4.461,0,0,1,4.4,4.5A4.4,4.4,0,0,1,64.8,105.3Z"/><path class="f" d="M50.2,97a3.5,3.5,0,0,0,0,7H64.5a3.5,3.5,0,0,0,0-7Zm14.3,8H50.2a4.5,4.5,0,0,1,0-9H64.5a4.5,4.5,0,0,1,0,9Z"/><path class="g" d="M64.2,104.5H49.8a4.5,4.5,0,0,1,0-9H64.1a4.461,4.461,0,0,1,4.4,4.5A4.378,4.378,0,0,1,64.2,104.5Zm-14.4-8a3.5,3.5,0,0,0,0,7H64.1a3.5,3.5,0,0,0,0-7Z"/><path class="h" d="M46.4,99.9a3.244,3.244,0,0,0,2.7,3.3,8.083,8.083,0,0,0,1.6.1H63.3a8.6,8.6,0,0,0,1.6-.1,3.506,3.506,0,0,0,1.4-.6,3.366,3.366,0,0,0,1.3-2.7,3.545,3.545,0,0,1-1.3,2.8,3.694,3.694,0,0,1-1.4.7,8.6,8.6,0,0,1-1.6.1H50.7a8.6,8.6,0,0,1-1.6-.1,3.694,3.694,0,0,1-1.4-.7A3.566,3.566,0,0,1,46.4,99.9Z"/><path class="i" d="M67.5,99.9a3.244,3.244,0,0,0-2.7-3.3,8.083,8.083,0,0,0-1.6-.1H50.6a8.6,8.6,0,0,0-1.6.1,3.506,3.506,0,0,0-1.4.6,3.366,3.366,0,0,0-1.3,2.7,3.545,3.545,0,0,1,1.3-2.8,3.694,3.694,0,0,1,1.4-.7,8.6,8.6,0,0,1,1.6-.1H63.2a8.6,8.6,0,0,1,1.6.1,3.694,3.694,0,0,1,1.4.7A3.264,3.264,0,0,1,67.5,99.9Z"/><path class="h" d="M68.5,99.9a4.971,4.971,0,0,0-1.2-3.3,4.508,4.508,0,0,0-1.4-1,4.954,4.954,0,0,0-1.7-.2H49.8a4.678,4.678,0,0,0-1.7.2,4.508,4.508,0,0,0-1.4,1,4.971,4.971,0,0,0-1.2,3.3,4.884,4.884,0,0,1,1.1-3.3,4.177,4.177,0,0,1,1.5-1.1,5.537,5.537,0,0,1,1.8-.2H64.3a5.537,5.537,0,0,1,1.8.2,3.269,3.269,0,0,1,1.5,1.1A6.048,6.048,0,0,1,68.5,99.9Z"/><path class="j" d="M45.4,99.9a4.626,4.626,0,0,0,1.3,3.2,3.458,3.458,0,0,0,3.1,1.2H64a3.8,3.8,0,0,0,3.1-1.2,4.816,4.816,0,0,0,1.3-3.2,4.971,4.971,0,0,1-1.2,3.3,3.894,3.894,0,0,1-3.2,1.3H49.8a3.894,3.894,0,0,1-3.2-1.3A4.971,4.971,0,0,1,45.4,99.9Z"/><ellipse class="k" cx="3.2" cy="3" rx="3.2" ry="3" transform="translate(48.6 97.3)"/><ellipse class="l" cx="3.2" cy="3.1" rx="3.2" ry="3.1" transform="translate(48.3 97.1)"/><circle class="m" cx="3.2" cy="3.2" r="3.2" transform="translate(48 96.8)"/><ellipse class="n" cx="3.1" cy="3.2" rx="3.1" ry="3.2" transform="translate(47.8 96.7)"/><ellipse class="o" cx="3.1" cy="3.2" rx="3.1" ry="3.2" transform="translate(47.3 96.7)"/><ellipse class="p" cx="3.1" cy="3.2" rx="3.1" ry="3.2" transform="translate(46.8 96.7)"/><ellipse class="q" cx="3.1" cy="3.2" rx="3.1" ry="3.2" transform="translate(47 96.7)"/><path class="r" d="M81.3,82.9l-20.8-.4A2.562,2.562,0,0,1,58,79.9V55.8a2.562,2.562,0,0,1,2.5-2.6H81.3a2.562,2.562,0,0,1,2.5,2.6V80.3A2.562,2.562,0,0,1,81.3,82.9Z"/><path class="s" d="M106.4,101l-8.3,8.3c-.5.6-1.8.2-2.9-.9l-18-17.9c-1.1-1.1-1.5-2.4-1-3l8-8.5c.5-.6,1.8-.2,2.9.9l18.2,18.2C106.5,99.1,107,100.5,106.4,101Z"/><path class="t" d="M83.6,63.3c0,10.6-8.4,19.3-18.7,19.3-10.1,0-18.4-8.3-18.7-18.7v.6A20.005,20.005,0,0,0,66,85c11,0,19.9-9.2,19.9-20.5A20.127,20.127,0,0,0,66,44.1h-.6A19.015,19.015,0,0,1,83.6,63.3Z"/><path class="u" d="M65.6,39.5C53.1,39.5,43,50,43,62.8S53.1,86.1,65.6,86.1,88.2,75.7,88.2,62.8,78.1,39.5,65.6,39.5ZM66.8,83H65.6C54.8,83,46,74,46,62.8s8.8-20.2,19.6-20.2,19.6,9,19.6,20.2V64C85.2,74.5,77,83,66.8,83Z"/><path class="v" d="M46.7,63.4c0-10.5,8.3-19,18.4-19,10,0,18.1,8.2,18.4,18.4v-.6A19.748,19.748,0,0,0,64,42c-10.8,0-19.6,9-19.6,20.2S53.2,82.4,64,82.4h.6A18.853,18.853,0,0,1,46.7,63.4Z"/><path class="t" d="M106.3,98.4a3.293,3.293,0,0,1,.7,1.3c.1-1.8-.1-4.2-.9-5.1L90.1,78a1.974,1.974,0,0,0-1.4-.6h-.3l-2.9,1,.5-.1a2.982,2.982,0,0,1,1.7.8Z"/><path class="q" d="M106.3,98.4a3.293,3.293,0,0,1,.7,1.3,5.564,5.564,0,0,1-.3,1.9l-1.8,2.2-2.6,2.7a1.794,1.794,0,0,1-.7.5,3.342,3.342,0,0,1-3.3-1L80.7,87.7a3.3,3.3,0,0,1-.2-4.6l3.7-3.8a2.732,2.732,0,0,1,1.9-.8,2.982,2.982,0,0,1,1.7.8Z"/><path class="q" d="M64.6,39.5C52.1,39.5,42,50,42,62.8S52.1,86.1,64.6,86.1,87.2,75.7,87.2,62.8,77.1,39.5,64.6,39.5Zm1.1,42.9H64.5c-10.5,0-19-8.8-19-19.5s8.5-19.5,19-19.5,19,8.8,19,19.5v1.2A18.014,18.014,0,0,1,65.7,82.4Z"/><g class="w"><path class="x" d="M84.2,79.2a2.732,2.732,0,0,1,1.9-.8h0a2.465,2.465,0,0,1,1.7.8l1.3,1.3,2.6,2.7,5.2,5.4c1.7,1.8,3.5,3.6,5.2,5.4l2.6,2.7,1.3,1.4a2.748,2.748,0,0,1,1,1.6h0a3.4,3.4,0,0,1-.1,1c-.1.3-.1.6-.2,1h0l-1.8,2.1h0l-1.6,1.6-.8.8a3.114,3.114,0,0,1-.9.7,5.5,5.5,0,0,0,.9-.7l.8-.8,1.6-1.7h0l1.8-2.2h0a2.92,2.92,0,0,0,.2-.9c0-.3.1-.6.1-1h0a2.523,2.523,0,0,0-1-1.5l-1.3-1.3-2.6-2.7c-1.7-1.8-3.5-3.6-5.2-5.4l-5.2-5.4L89,80.6c-.9-.8-1.6-2.1-2.9-2.2h0A2.732,2.732,0,0,0,84.2,79.2Z"/></g><path class="y" d="M75.6,54.7H61.4a20.75,20.75,0,0,0-5.4.5l.7,2.9L77,55.8A1.5,1.5,0,0,0,75.6,54.7Z"/><path class="z" d="M77,55.8,58.2,57.3,60,71c0,.8.3,1.1,1.1,1.1l8.2.4,6.4-.8a1.538,1.538,0,0,0,1.5-1.5v-14C77.1,56.1,77.1,55.9,77,55.8Z"/><path class="aa" d="M68.7,72.5l-12.2-.2A1.538,1.538,0,0,1,55,70.8V56.7a1.538,1.538,0,0,1,1.5-1.5H68.7a1.538,1.538,0,0,1,1.5,1.5V71A1.473,1.473,0,0,1,68.7,72.5Z"/><path class="ab" d="M68.7,72.5l-12.2-.2A1.538,1.538,0,0,1,55,70.8V56.7a1.538,1.538,0,0,1,1.5-1.5H68.7a1.538,1.538,0,0,1,1.5,1.5V71A1.473,1.473,0,0,1,68.7,72.5Z"/><g class="ac"><path class="ad" d="M65.7,82.4H63.9a6.154,6.154,0,0,1-1.9-.2,12.859,12.859,0,0,1-1.9-.4c-.6-.2-1.2-.3-1.8-.5a18.806,18.806,0,0,1-6.5-3.9,19.367,19.367,0,0,1-6.3-13.6,20.124,20.124,0,0,1,4.9-14.1,19.242,19.242,0,0,1,6-4.6,18.805,18.805,0,0,1,21.3,3.3,19.768,19.768,0,0,1,6.1,13.7,21.667,21.667,0,0,1-.8,7.6,18.973,18.973,0,0,1-3.8,6.6A18.353,18.353,0,0,1,65.7,82.4Zm0,0A16.649,16.649,0,0,0,73,80.7a17.777,17.777,0,0,0,5.9-4.6,20.181,20.181,0,0,0,3.6-6.6c.2-.6.3-1.2.5-1.8l.3-1.9.1-1.9a12.052,12.052,0,0,1,0-1.9,19.925,19.925,0,0,0-5.9-13.4,18.291,18.291,0,0,0-26.8,1.1A19.624,19.624,0,0,0,46,63.6a20.151,20.151,0,0,0,6.1,13.3,19.855,19.855,0,0,0,6.3,4A15.456,15.456,0,0,0,65.7,82.4Z"/></g></g></svg>