<svg xmlns="http://www.w3.org/2000/svg" xmlns:xlink="http://www.w3.org/1999/xlink" width="74.441" height="85.527" viewBox="0 0 74.441 85.527"><defs><style>.a{fill:url(#a);}.b{fill:url(#b);}.c{fill:url(#c);}.d{fill:url(#d);}.e{fill:url(#e);}.f{fill:url(#f);}.g{fill:url(#g);}.h,.o{opacity:0.5;}.h{fill:url(#h);}.i{fill:url(#i);}.j{fill:url(#j);}.k{fill:url(#k);}.l{fill:url(#l);}.m{fill:#c2d9ff;opacity:0.28;}.n{fill:url(#m);}.ac,.o{fill:none;stroke-miterlimit:10;}.o{stroke:#707070;}.p{fill:url(#n);}.q{fill:url(#o);}.r{fill:url(#p);}.s{fill:url(#q);}.t{fill:url(#r);}.u{clip-path:url(#s);}.v{fill:url(#t);}.w{fill:#ff645d;}.x{clip-path:url(#u);}.y{fill:url(#v);}.z{fill:url(#w);}.aa{clip-path:url(#x);}.ab{fill:url(#y);}.ac{stroke:#fcc8df;stroke-width:0.5px;}.ad{clip-path:url(#aa);}</style><linearGradient id="a" x1="-0.001" y1="0.5" x2="1" y2="0.5" gradientUnits="objectBoundingBox"><stop offset="0" stop-color="#5266b3"/><stop offset="1" stop-color="#d4c5dd"/></linearGradient><linearGradient id="b" x1="0" y1="0.5" x2="1.001" y2="0.5" xlink:href="#a"/><linearGradient id="c" x1="0" y1="0.5" x2="1.002" y2="0.5" xlink:href="#a"/><linearGradient id="d" x1="0" y1="0.5" x2="0.999" y2="0.5" xlink:href="#a"/><linearGradient id="e" x1="-0.002" y1="0.501" x2="0.998" y2="0.501" xlink:href="#a"/><linearGradient id="f" y1="0.5" x2="1" y2="0.5" gradientUnits="objectBoundingBox"><stop offset="0" stop-color="#a5a3ce"/><stop offset="1" stop-color="#d6d2ea" stop-opacity="0.302"/></linearGradient><linearGradient id="g" x1="0.001" y1="0.5" x2="0.999" y2="0.5" gradientUnits="objectBoundingBox"><stop offset="0" stop-color="#cebbc3"/><stop offset="0.366" stop-color="#e5e3df"/><stop offset="1" stop-color="#9284b6"/></linearGradient><radialGradient id="h" cx="0.85" cy="0.789" r="0.573" gradientTransform="matrix(-0.98, 0, 0, 0.991, -12.702, 0.007)" gradientUnits="objectBoundingBox"><stop offset="0" stop-color="#fff"/><stop offset="0.18" stop-color="#dfffff" stop-opacity="0.855"/><stop offset="0.373" stop-color="#c5ffff" stop-opacity="0.702"/><stop offset="0.571" stop-color="#b3ffff" stop-opacity="0.545"/><stop offset="0.776" stop-color="#a8ffff" stop-opacity="0.38"/><stop offset="1" stop-color="#a4ffff" stop-opacity="0.2"/></radialGradient><linearGradient id="i" x1="-17.439" y1="0.47" x2="-15.922" y2="0.643" gradientUnits="objectBoundingBox"><stop offset="0" stop-color="#4d4a60" stop-opacity="0.302"/><stop offset="0.039" stop-color="#6b485e" stop-opacity="0.282"/><stop offset="0.099" stop-color="#92455c" stop-opacity="0.251"/><stop offset="0.163" stop-color="#b4425a" stop-opacity="0.224"/><stop offset="0.231" stop-color="#cf4059" stop-opacity="0.188"/><stop offset="0.304" stop-color="#e43f57" stop-opacity="0.153"/><stop offset="0.386" stop-color="#f33e57" stop-opacity="0.114"/><stop offset="0.481" stop-color="#fc3d56" stop-opacity="0.071"/><stop offset="0.627" stop-color="#ff3d56" stop-opacity="0"/></linearGradient><linearGradient id="j" x1="-24.907" y1="0.452" x2="-23.128" y2="0.598" gradientUnits="objectBoundingBox"><stop offset="0" stop-color="#4d4a60"/><stop offset="0.041" stop-color="#67485f" stop-opacity="0.922"/><stop offset="0.123" stop-color="#95455c" stop-opacity="0.761"/><stop offset="0.205" stop-color="#bb425a" stop-opacity="0.604"/><stop offset="0.286" stop-color="#d94058" stop-opacity="0.447"/><stop offset="0.366" stop-color="#ee3e57" stop-opacity="0.294"/><stop offset="0.443" stop-color="#fb3d56" stop-opacity="0.141"/><stop offset="0.517" stop-color="#ff3d56" stop-opacity="0"/></linearGradient><linearGradient id="k" x1="0.001" y1="0.5" x2="1" y2="0.5" gradientUnits="objectBoundingBox"><stop offset="0" stop-color="#88709a"/><stop offset="0.045" stop-color="#8a739e"/><stop offset="0.229" stop-color="#907ba6"/><stop offset="0.508" stop-color="#927ea9"/><stop offset="1" stop-color="#544d90"/></linearGradient><radialGradient id="l" cx="0.764" cy="0.551" r="1.092" gradientTransform="matrix(-0.682, 0, 0, 0.991, -14.281, 0.005)" gradientUnits="objectBoundingBox"><stop offset="0" stop-color="#fff"/><stop offset="0.043" stop-color="#fff" stop-opacity="0.957"/><stop offset="1" stop-color="#fff" stop-opacity="0"/></radialGradient><radialGradient id="m" cx="0.498" cy="0.5" r="0.452" gradientTransform="translate(-0.132 0.003) scale(1.266 0.991)" gradientUnits="objectBoundingBox"><stop offset="0" stop-color="#74ffff"/><stop offset="0.442" stop-color="#afffff" stop-opacity="0.557"/><stop offset="1" stop-color="#fff" stop-opacity="0"/></radialGradient><linearGradient id="n" x1="-0.061" y1="0.418" x2="0.997" y2="0.418" gradientUnits="objectBoundingBox"><stop offset="0" stop-color="#d5626a"/><stop offset="0.514" stop-color="#fdb8de"/><stop offset="1" stop-color="#fdd7f7"/></linearGradient><radialGradient id="o" cx="0.498" cy="0.49" r="0.396" gradientTransform="translate(-0.425 0.004) scale(1.855 0.991)" gradientUnits="objectBoundingBox"><stop offset="0" stop-color="#be4650"/><stop offset="1" stop-color="#d6636b"/></radialGradient><linearGradient id="p" y1="0.5" x2="1.003" y2="0.5" gradientUnits="objectBoundingBox"><stop offset="0" stop-color="#d5626a"/><stop offset="1" stop-color="#e18bb1"/></linearGradient><linearGradient id="q" x1="-618.24" y1="0.532" x2="-617.18" y2="0.48" gradientUnits="objectBoundingBox"><stop offset="0" stop-color="#d5626a"/><stop offset="0.514" stop-color="#fdb8de"/><stop offset="1" stop-color="#d67aa0"/></linearGradient><linearGradient id="r" x1="-20.382" y1="0.5" x2="-19.377" y2="0.5" gradientUnits="objectBoundingBox"><stop offset="0" stop-color="#d66278"/><stop offset="0.514" stop-color="#db6879"/><stop offset="1" stop-color="#e197b6"/></linearGradient><clipPath id="s"><path d="M62.936,59.794C59.6,62.54,57.369,66.326,57,69.666a8.167,8.167,0,0,0,.445,3.86c.074.223.223.445.3.668,0,.074.074.148,0,.148L62.862,85.7a7.431,7.431,0,0,1,.52,4.082,12.8,12.8,0,0,1-.965,3.34,17.07,17.07,0,0,1-5.79,7.051,2.59,2.59,0,0,1-1.336.445,1.4,1.4,0,0,1-.594-.148c-.148-.074-.3-.3-.445-.445L45.79,80.948a7.26,7.26,0,0,1-.52-4.008,11.362,11.362,0,0,1,.965-3.34A16.6,16.6,0,0,1,52.1,66.623l10.614-7.348a.273.273,0,0,1,.223-.074c.074,0,.148.074.223.148A.642.642,0,0,1,62.936,59.794Z" transform="translate(-45.184 -59.2)"/></clipPath><linearGradient id="t" x1="-0.008" y1="0.459" x2="0.99" y2="0.459" gradientUnits="objectBoundingBox"><stop offset="0" stop-color="#d67aa0"/><stop offset="1" stop-color="#d5626a"/></linearGradient><clipPath id="u"><path d="M74.349,74.036,71.9,72.774h.074A.273.273,0,0,0,72.2,72.7l2.449,1.262a.273.273,0,0,1-.223.074C74.424,74.11,74.349,74.11,74.349,74.036Z" transform="translate(-71.9 -72.7)"/></clipPath><linearGradient id="v" x1="-820.622" y1="0.499" x2="-819.626" y2="0.499" xlink:href="#q"/><linearGradient id="w" x1="-19.461" y1="0.5" x2="-18.461" y2="0.5" gradientUnits="objectBoundingBox"><stop offset="0" stop-color="#d66278"/><stop offset="0.514" stop-color="#f69dae"/><stop offset="1" stop-color="#f8bed6"/></linearGradient><clipPath id="x"><path d="M87.838,38.234a7.6,7.6,0,0,1,.594,4.157,12.848,12.848,0,0,1-.891,3.192,16.87,16.87,0,0,1-5.79,6.977L71.063,59.908a.273.273,0,0,1-.223.074c-.074,0-.148-.074-.223-.148a.35.35,0,0,1,.074-.445,16.337,16.337,0,0,0,5.938-9.872,8.167,8.167,0,0,0-.445-3.86,8.094,8.094,0,0,0-.445-.816l-8.091-16.7a1.468,1.468,0,0,1-.148-.816,2.3,2.3,0,0,1,.148-.594,2.979,2.979,0,0,1,.965-1.188,12.447,12.447,0,0,1,7.942-2.746,6.229,6.229,0,0,1,3.192.965,5.212,5.212,0,0,1,2.078,2.3" transform="translate(-67.5 -22.78)"/></clipPath><linearGradient id="y" x1="-0.002" y1="0.5" x2="1" y2="0.5" xlink:href="#q"/><clipPath id="aa"><path d="M87.838,38.234a7.6,7.6,0,0,1,.594,4.157,12.848,12.848,0,0,1-.891,3.192,16.87,16.87,0,0,1-5.79,6.977L71.063,59.908a.273.273,0,0,1-.223.074c-.074,0-.148-.074-.223-.148a.35.35,0,0,1,.074-.445,16.337,16.337,0,0,0,5.938-9.872,8.167,8.167,0,0,0-.445-3.86,8.094,8.094,0,0,0-.445-.816l-8.091-16.7a1.468,1.468,0,0,1-.148-.816,2.3,2.3,0,0,1,.148-.594,2.979,2.979,0,0,1,.965-1.188,12.447,12.447,0,0,1,7.942-2.746,6.229,6.229,0,0,1,3.192.965,5.212,5.212,0,0,1,2.078,2.3Z" transform="translate(-67.5 -22.78)"/></clipPath></defs><g transform="translate(-26.45 -13.8)"><g transform="translate(26.45 13.8)"><g transform="translate(0.109 0.112)"><path class="a" d="M54.181,119.045l-7.645-3.117-3.192-5.567C38.668,106.056,39.336,104.126,38,97c10.243,7.942,20.783,15.513,31.4,23.01A24.749,24.749,0,0,1,54.181,119.045Z" transform="translate(-29.536 -35.356)"/><path class="b" d="M73.993,117.623a29.184,29.184,0,0,1-4.75,1.485c-10.614-7.5-21.154-15.068-31.4-23.01-.148-.891-.3-1.707-.445-2.6A337.827,337.827,0,0,1,73.993,117.623Z" transform="translate(-29.382 -34.454)"/><path class="c" d="M37.271,87.881A48.181,48.181,0,0,1,38.013,71.7c12.841,9.13,25.014,18.334,37.261,27.612l2,2.672,6.606,3.934A39.774,39.774,0,0,1,73.79,112,329.886,329.886,0,0,0,37.271,87.881Z" transform="translate(-29.253 -28.836)"/><path class="d" d="M102.9,71.881a55.62,55.62,0,0,1-3.266,10.763A53.23,53.23,0,0,1,84.346,103.65a64.664,64.664,0,0,1-6.606-3.934l-2-2.524C63.563,87.766,51.315,78.636,38.4,69.432A53.391,53.391,0,0,1,40.181,62.9c18.631,2.821,37.41,2.375,55.669,5.2Z" transform="translate(-29.639 -26.567)"/><path class="e" d="M42.236,47.029C49.733,28.844,59.753,17.785,74,18.23l5.938-1.93,7.645,3.117c13.435,5.418,19.6,22.342,16.033,40.453l-7.051-3.86-4.305,2.078c-17-2.524-34-4.676-51.364-7.274A19.232,19.232,0,0,1,42.236,47.029Z" transform="translate(-30.284 -14.557)"/><path class="f" d="M88.949,66.91C79.968,88.659,59.7,101.054,43.671,94.522S21.849,65.129,30.83,43.307C39.812,21.558,60.075,9.163,76.108,15.695S97.93,45.162,88.949,66.91Z" transform="translate(-26.597 -13.951)"/><path class="g" d="M54.321,94.134a20.916,20.916,0,0,1-8.313-1.485C39.253,89.9,34.354,83.668,32.2,75.058c-2.227-8.981-1.188-19.373,2.895-29.245A50.6,50.6,0,0,1,49.5,25.994c5.715-4.676,12.247-7.348,18.26-7.5a20.916,20.916,0,0,1,8.313,1.485c6.755,2.746,11.653,8.981,13.806,17.592,2.227,8.981,1.188,19.373-2.895,29.245a50.6,50.6,0,0,1-14.4,19.818C66.791,91.313,60.333,93.911,54.321,94.134Z" transform="translate(-27.746 -15.121)"/><path class="h" d="M54.321,100.016a20.916,20.916,0,0,1-8.313-1.485C39.253,95.785,34.354,89.55,32.2,80.94c-2.227-8.981-1.188-19.373,2.895-29.245,3.34-8.016,5.715,4.75,13.583,4.231,16.7-1.039,38.969-21.08,41.121-12.47,2.227,8.981,1.188,19.373-2.895,29.245a50.6,50.6,0,0,1-14.4,19.818C66.791,97.2,60.333,99.793,54.321,100.016Z" transform="translate(-27.746 -21.003)"/><path class="i" d="M55.986,106.371l-5.27,2.449S38.84,105.257,35.5,89.3c1.039-4.973,8.684-12.1,8.684-12.1Z" transform="translate(-28.892 -30.253)"/><path class="j" d="M69.139,28.9l-.3.223a3.916,3.916,0,0,0-1.485,5.122l4.676,8.981a14.963,14.963,0,0,1-4.008,17.443l.148.223a3.586,3.586,0,0,0,1.485,1.039l4.231,1.41,9.13-8.759Z" transform="translate(-36.998 -17.804)"/><path class="k" d="M34.758,75.971c-2.227-8.981-1.188-19.3,2.821-29.171,4.157-9.872,10.763-17.963,18.7-22.787,7.126-4.379,14.548-5.567,20.932-3.414a8.248,8.248,0,0,0-1.188-.52c-6.68-2.746-14.548-1.707-22.194,2.969C45.892,27.872,39.286,35.963,35.2,45.835s-5.122,20.189-2.821,29.171c2.153,8.61,6.977,14.771,13.732,17.517.371.148.816.3,1.188.445C41.216,90.074,36.762,84.061,34.758,75.971Z" transform="translate(-27.779 -15.144)"/><path class="l" d="M38.4,49.96,63.711,34.744l.074-1.336L74.4,26.728l.594-.148,2,.3,5.938-3.563s-10.392-10.02-27.612,2.895C40.33,37.416,38.4,49.96,38.4,49.96Z" transform="translate(-29.639 -15.409)"/><path class="m" d="M33.217,94.8l2.969-1.707,2,.371,8.091-4.825-.445-.965,11.8-7.126,1.93.074L93.934,59.988V51.6L56.6,74.09l-1.93-.074-11.8,7.126.445.965-8.091,4.9-2.078-.223L30.1,88.564A30.6,30.6,0,0,0,33.217,94.8Z" transform="translate(-27.5 -23.655)"/></g><path class="n" d="M28.491,76.892a36.884,36.884,0,0,1-1.41-5.641,51.012,51.012,0,0,1-.594-5.79,50.468,50.468,0,0,1,.891-11.579,53.6,53.6,0,0,1,3.414-11.134A54.779,54.779,0,0,1,36.359,32.5,46.789,46.789,0,0,1,53.654,17.066a30.9,30.9,0,0,1,11.208-3.192,25.042,25.042,0,0,1,11.431,1.781,23.82,23.82,0,0,0-11.357-1.41,31.479,31.479,0,0,0-10.985,3.34A46.526,46.526,0,0,0,37.027,32.876a57.76,57.76,0,0,0-8.981,21.08,50,50,0,0,0-1.113,11.5,50.664,50.664,0,0,0,.445,5.79A24.5,24.5,0,0,0,28.491,76.892Z" transform="translate(-26.45 -13.8)"/><path class="o" d="M35.2,55.3c-4.082,9.872-5.122,20.189-2.821,29.171,2.153,8.61,6.977,14.771,13.732,17.517" transform="translate(-27.67 -24.496)"/><g transform="translate(13.906 33.699)"><path class="p" d="M71.749,60.91h0v-.074h0v-.074h0L69.3,59.5a.073.073,0,0,1,.074.074.073.073,0,0,0,.074.074h0v.074h0c0,.074,0,.074-.074.148h0l-.074.074,2.449,1.262h0v-.3Z" transform="translate(-51.4 -59.277)"/><path class="q" d="M64.314,75.736v-.074h0c-.074-.074-.074-.148-.148-.3s-.148-.223-.148-.371c-.074-.148-.074-.3-.148-.445,0-.074,0-.074-.074-.148,0-.074-.074-.223-.074-.3s0-.148-.074-.148c0-.074-.074-.148-.074-.3v-.148a.561.561,0,0,0-.074-.3V71.5a1.263,1.263,0,0,1,.074-.52c0-.223.074-.445.074-.668a1.747,1.747,0,0,1,.148-.594c0-.074,0-.148.074-.148a1.055,1.055,0,0,1,.148-.445c0-.074.074-.148.074-.223.074-.148.074-.3.148-.445,0-.074,0-.074.074-.148.074-.223.148-.371.223-.594,0-.074,0-.074.074-.148l.223-.445c0-.074.074-.148.074-.223l.223-.445c0-.074.074-.074.074-.148.074-.223.223-.371.3-.594v-.074a2.256,2.256,0,0,1,.371-.52c.074-.074.074-.148.148-.223a1.3,1.3,0,0,1,.3-.371c.074-.074.074-.148.148-.223a1.3,1.3,0,0,1,.3-.371c.074-.074.148-.148.148-.223.074-.148.223-.223.3-.371.074-.074.074-.148.148-.148.148-.148.223-.3.371-.371.074-.074.074-.148.148-.148a3.43,3.43,0,0,1,.52-.52c.148-.148.3-.223.371-.371.074-.074.148-.148.223-.148.223-.148.371-.371.594-.52L66.987,60a4.242,4.242,0,0,0-.594.52c-.074.074-.148.148-.223.148-.148.148-.3.223-.371.371h0l-.52.52-.148.148c-.074.148-.223.223-.3.371v.074c-.148.074-.148.148-.223.223-.074.148-.223.223-.3.371-.074.074-.148.148-.148.223-.074.074-.148.148-.148.223s-.074.074-.074.148c-.074.074-.074.148-.148.223a1.3,1.3,0,0,1-.3.371c-.074.074-.074.148-.148.223l-.074.074c-.074.148-.223.3-.3.445v.074c-.074.148-.223.371-.3.52a.073.073,0,0,1-.074.074.259.259,0,0,1-.074.148l-.223.445c0,.074-.074.148-.074.223s-.074.074-.074.148c-.074.148-.074.223-.148.371,0,.074,0,.074-.074.148-.074.148-.148.371-.223.52v.074c0,.074,0,.074-.074.148-.074.148-.074.3-.148.445,0,.074-.074.148-.074.223s0,.074-.074.148c0,.074-.074.223-.074.3s0,.148-.074.148c-.074.223-.074.371-.148.594h0a2.055,2.055,0,0,0-.074.668,1.449,1.449,0,0,1-.074.52h0v1.707a.561.561,0,0,0,.074.3v.148c0,.074.074.148.074.3,0,.074,0,.148.074.148,0,.074.074.223.074.3s0,.074.074.148c.074.148.074.3.148.445s.074.223.148.371h0c.074.074.074.148.148.223v.074h0v.074l2.449,1.262h0l.148-.371Z" transform="translate(-49.235 -59.406)"/><g transform="translate(12.63 15.142)"><path class="r" d="M62.2,79.6l2.449,1.262,5.122,11.357-2.449-1.262Z" transform="translate(-62.2 -79.6)"/></g><path class="s" d="M69.334,99.179V97.917a.446.446,0,0,0-.074-.3.273.273,0,0,0-.074-.223c0-.074-.074-.223-.074-.3s0-.148-.074-.148c0-.074-.074-.223-.074-.3s0-.074-.074-.148a1.055,1.055,0,0,1-.148-.445L66.291,94.8a1.055,1.055,0,0,1,.148.445c0,.074,0,.074.074.148,0,.074.074.223.074.3s0,.148.074.148c0,.074.074.223.074.3a.273.273,0,0,0,.074.223.446.446,0,0,0,.074.3v1.781a1.263,1.263,0,0,1-.074.52,2.638,2.638,0,0,1-.148.742v.148c-.074.223-.074.445-.148.668v.074c-.074.223-.148.52-.223.742,0,.074,0,.074-.074.148-.074.3-.223.52-.3.816l-.223.445c0,.074-.074.148-.148.223s-.074.148-.148.3c-.074.074-.074.148-.148.223s-.074.148-.148.223-.074.148-.148.223-.074.148-.148.223-.074.148-.148.223-.074.148-.148.223-.148.148-.148.223c-.074.074-.074.148-.148.223s-.148.148-.148.223c-.074.074-.074.148-.148.223s-.148.223-.223.3-.074.148-.148.223-.148.223-.223.3-.074.148-.148.148a3.228,3.228,0,0,0-.445.52l-.074.074c-.148.148-.223.3-.371.371l-.148.148a1.968,1.968,0,0,1-.445.371l-.148.148c-.148.148-.371.3-.52.445h-.074l-.891.668c-.074.074-.148.074-.223.148-.074,0-.074.074-.148.074s-.148.074-.223.074-.074,0-.148.074c-.074,0-.148.074-.223.074H58.72a1.376,1.376,0,0,1-.52-.148l2.449,1.262a1.376,1.376,0,0,0,.52.148h.371a.273.273,0,0,0,.223-.074c.074,0,.074,0,.148-.074.074,0,.148-.074.223-.074s.074-.074.148-.074.074-.074.148-.074.074-.074.148-.074l.891-.668h0a3.228,3.228,0,0,0,.52-.445l.148-.148c.148-.148.3-.223.445-.371l.074-.074.074-.074.371-.371.074-.074a3.229,3.229,0,0,0,.445-.52h0l.148-.148c.074-.074.148-.223.223-.3s.074-.148.148-.223.148-.223.223-.3l.074-.074c0-.074.074-.074.074-.148.074-.074.148-.148.148-.223.074-.074.074-.148.148-.223s.148-.148.148-.223l.074-.074c0-.074.074-.074.074-.148.074-.074.074-.148.148-.223s.074-.148.148-.223.074-.148.148-.223c0-.074.074-.074.074-.148s.074-.074.074-.148c.074-.074.074-.148.148-.223s.074-.148.148-.223.074-.148.148-.223a.073.073,0,0,1,.074-.074c.074-.074.074-.223.148-.3.074-.223.223-.445.3-.668,0-.074,0-.074.074-.148,0-.074,0-.074.074-.148.074-.223.148-.52.223-.742h0v-.074a2.168,2.168,0,0,0,.148-.668v-.223a2.055,2.055,0,0,0,.074-.668,1.449,1.449,0,0,1,.074-.52h0v-.148Q69.334,99.291,69.334,99.179Z" transform="translate(-48.539 -68.376)"/><path class="t" d="M62.936,59.794C59.6,62.54,57.369,66.326,57,69.666a8.167,8.167,0,0,0,.445,3.86c.074.223.223.445.3.668,0,.074.074.148,0,.148L62.862,85.7a7.431,7.431,0,0,1,.52,4.082,12.8,12.8,0,0,1-.965,3.34,17.07,17.07,0,0,1-5.79,7.051,2.59,2.59,0,0,1-1.336.445,1.4,1.4,0,0,1-.594-.148c-.148-.074-.3-.3-.445-.445L45.79,80.948a7.26,7.26,0,0,1-.52-4.008,11.362,11.362,0,0,1,.965-3.34A16.6,16.6,0,0,1,52.1,66.623l10.614-7.348a.273.273,0,0,1,.223-.074c.074,0,.148.074.223.148A.642.642,0,0,1,62.936,59.794Z" transform="translate(-45.184 -59.2)"/></g><g transform="translate(30.47 6.665)"><path class="v" d="M84.385,24.368a1.025,1.025,0,0,0,.3.223l.074.074a.741.741,0,0,1,.3.371l.074.074c.074.074.148.223.3.371,0,.074.074.074.074.148s.074.074.074.148c.074.074.074.148.148.148,0,.074.074.074.074.148.074.074.074.148.148.3l2.449,1.262c0-.074-.074-.074-.074-.148a.073.073,0,0,0-.074-.074c0-.074-.074-.074-.074-.148a7.842,7.842,0,0,0-3.043-2.821A7.374,7.374,0,0,0,82.9,23.7c.148.074.816.371.965.445.074.074.148.074.223.148s.148.074.223.148C84.31,24.294,84.31,24.368,84.385,24.368Z" transform="translate(-71.469 -23.017)"/><g transform="translate(3.266 37.054)"><path class="w" d="M74.349,74.036,71.9,72.774h.074A.273.273,0,0,0,72.2,72.7l2.449,1.262a.273.273,0,0,1-.223.074C74.424,74.11,74.349,74.11,74.349,74.036Z" transform="translate(-71.9 -72.7)"/><g class="x"><path class="w" d="M72.3,72.8l2.449,1.262h0L72.3,72.8h0" transform="translate(-72.003 -72.726)"/><path class="w" d="M72.2,72.8l2.449,1.262a.273.273,0,0,1-.223.074h-.074L71.9,72.874h.074A.273.273,0,0,0,72.2,72.8" transform="translate(-71.9 -72.726)"/></g></g><g transform="translate(14.4 3.281)"><path class="y" d="M86.9,27.2l2.449,1.262,5.938,12.173-2.449-1.262Z" transform="translate(-86.9 -27.2)"/></g><path class="z" d="M87.838,38.234a7.6,7.6,0,0,1,.594,4.157,12.848,12.848,0,0,1-.891,3.192,16.87,16.87,0,0,1-5.79,6.977L71.063,59.908a.273.273,0,0,1-.223.074c-.074,0-.148-.074-.223-.148a.35.35,0,0,1,.074-.445,16.337,16.337,0,0,0,5.938-9.872,8.167,8.167,0,0,0-.445-3.86,8.094,8.094,0,0,0-.445-.816l-8.091-16.7a1.468,1.468,0,0,1-.148-.816,2.3,2.3,0,0,1,.148-.594,2.979,2.979,0,0,1,.965-1.188,12.447,12.447,0,0,1,7.942-2.746,6.229,6.229,0,0,1,3.192.965,5.212,5.212,0,0,1,2.078,2.3" transform="translate(-67.5 -22.78)"/><path class="ab" d="M92.218,47.657V46.617a.446.446,0,0,0-.074-.3.273.273,0,0,0-.074-.223c0-.074-.074-.223-.074-.3s0-.148-.074-.148c0-.074-.074-.223-.074-.3s0-.074-.074-.148l-.223-.445L89.1,43.5l.223.445c0,.074,0,.074.074.148,0,.074.074.223.074.3s0,.148.074.148c0,.074.074.223.074.3a.273.273,0,0,0,.074.223.446.446,0,0,0,.074.3v1.856a1.263,1.263,0,0,1-.074.52,2.637,2.637,0,0,1-.148.742v.148c-.074.223-.074.445-.148.668h0c-.074.223-.148.52-.223.742,0,.074,0,.074-.074.148-.074.223-.223.52-.3.742a1.254,1.254,0,0,0-.148.371c0,.074-.074.148-.074.223-.074.074-.074.148-.148.3-.074.074-.074.148-.148.223,0,.074-.074.148-.074.223a4.992,4.992,0,0,1-.52.816c-.074.074-.074.148-.148.223s-.074.148-.148.223-.074.148-.148.223-.148.148-.148.223c-.074.074-.074.148-.148.223a1.025,1.025,0,0,0-.223.3c-.074.074-.074.148-.148.223a1.025,1.025,0,0,0-.223.3c-.074.074-.074.148-.148.223l-.3.3-.148.148-.445.445h0a3.229,3.229,0,0,1-.52.445l-.148.148c-.148.148-.3.223-.445.371l-.148.148c-.074.074-.223.148-.3.223l-.148.148c-.148.148-.371.223-.52.371h0L72.4,65.322l2.449,1.262,10.614-7.5h0l.223-.148h0a1.025,1.025,0,0,1,.3-.223l.148-.148c.074-.074.223-.148.3-.223l.074-.074.074-.074c.148-.148.3-.223.445-.371l.148-.148a3.23,3.23,0,0,1,.52-.445h0l.445-.445.148-.148.3-.3.074-.074c0-.074.074-.074.074-.148a1.025,1.025,0,0,0,.223-.3c.074-.074.074-.148.148-.223a1.025,1.025,0,0,0,.223-.3l.074-.074.074-.074c.074-.074.148-.148.148-.223.074-.074.074-.148.148-.223s.074-.148.148-.223c0-.074.074-.074.074-.148v-.074c.148-.3.371-.52.52-.816a.073.073,0,0,1,.074-.074c0-.074.074-.074.074-.148.074-.074.074-.148.148-.223s.074-.148.148-.3c0-.074.074-.148.074-.223a.073.073,0,0,1,.074-.074c.074-.074.074-.223.148-.3a2.636,2.636,0,0,1,.3-.668.073.073,0,0,1,.074-.074c0-.074,0-.074.074-.148.074-.223.148-.445.223-.742h0a2.167,2.167,0,0,0,.148-.668v-.223a1.845,1.845,0,0,0,.074-.594.941.941,0,0,1,.074-.445v-.668Q92.218,47.768,92.218,47.657Z" transform="translate(-68.763 -28.12)"/></g></g><g transform="translate(40.356 47.499)"><g class="u"><g transform="translate(0.012 0)"><path class="ac" d="M63.46,90.226l-.074.371-.074.445-.148.371-.074.445-.148.445-.148.371-.223.445-.445,1.039-.594.965-.594.965-.742.891-.742.891-.816.816-.891.742-.965.742-.148.074-.148.074-.223.148h-.148l-.148.074-.223.074h-.445l-.074-.074h-.148L55,100.47h-.074l-.074-.074h-.074l-.074-.074-.074-.074h-.074v-.074l-.074-.074v-.074L54.4,99.95l-8.61-19-.223-.445-.148-.445-.074-.52-.074-.445-.074-.52V77.46l.074-.52.074-.445.074-.371.074-.445.074-.371.148-.445.148-.445.148-.445.223-.371.445-1.039.594-.965.594-.965.742-.891.742-.891.891-.816.891-.742.891-.668,10.614-7.348h.074V59.2h.148l.074.074h.074v.074h0l.074.074h0v.223l-.074.074h0l-.074.074-1.188,1.039-1.039,1.188-.965,1.188-.891,1.262-.668,1.336-.52,1.262L57.225,68.4,57,69.666v.52l-.074.52v.52L57,71.67l.074.52.074.445.148.445.148.445.074.074v.074l.074.074V73.9l.074.074v.074l.074.074.074.074h0v.074h0v.074h0L62.94,85.7l.223.445.148.52.148.445.074.52v.52l.074.52-.074.594v.52l-.074.445" transform="translate(-45.2 -59.2)"/></g></g><path class="ac" d="M62.936,59.794C59.6,62.54,57.369,66.326,57,69.666a8.167,8.167,0,0,0,.445,3.86c.074.223.223.445.3.668,0,.074.074.148,0,.148L62.862,85.7a7.431,7.431,0,0,1,.52,4.082,12.8,12.8,0,0,1-.965,3.34,17.07,17.07,0,0,1-5.79,7.051,2.59,2.59,0,0,1-1.336.445,1.4,1.4,0,0,1-.594-.148c-.148-.074-.3-.3-.445-.445L45.79,80.948a7.26,7.26,0,0,1-.52-4.008,11.362,11.362,0,0,1,.965-3.34A16.6,16.6,0,0,1,52.1,66.623l10.614-7.348a.273.273,0,0,1,.223-.074c.074,0,.148.074.223.148A.642.642,0,0,1,62.936,59.794Z" transform="translate(-45.184 -59.2)"/></g><g transform="translate(56.92 20.465)"><g class="ad"><g transform="translate(0 0.015)"><path class="ac" d="M88.357,42.767l-.074.371-.074.445-.074.371-.148.371-.148.445-.148.371-.148.445L87.1,46.626l-.594.965-.594.891-.742.965-.742.816-.817.816-.891.742-.965.742L71.063,59.913h0l-.074.074h-.223v-.074h-.074v-.074h-.074v-.3h.074v-.074l.074-.074,1.188-1.039,1.039-1.113.965-1.262.816-1.262.742-1.262.52-1.336.371-1.262L76.63,49.6l.074-.52V47.517l-.074-.445-.148-.445-.074-.52-.223-.371v-.148l-.074-.074-.074-.148V45.29l-.074-.148-.074-.074-.074-.074v-.148l-8.165-16.7L67.574,28v-.148l-.074-.074v-.52l.074-.074v-.223l.074-.074v-.148l.074-.148.148-.148.074-.223.148-.148.074-.148.148-.148.148-.074.148-.148,1.039-.668.965-.594,1.039-.445.965-.445,1.039-.3,1.039-.223.965-.074h1.41l.445.074.445.074.371.148.445.074.371.148.371.223.3.148.371.223.3.3.3.223.223.3.3.3.223.3.223.371.148.371,5.938,12.173.223.445.148.52.148.445.074.52.074.52V41.8l-.074.594-.074.371" transform="translate(-67.5 -22.8)"/></g></g><path class="ac" d="M87.838,38.234a7.6,7.6,0,0,1,.594,4.157,12.848,12.848,0,0,1-.891,3.192,16.87,16.87,0,0,1-5.79,6.977L71.063,59.908a.273.273,0,0,1-.223.074c-.074,0-.148-.074-.223-.148a.35.35,0,0,1,.074-.445,16.337,16.337,0,0,0,5.938-9.872,8.167,8.167,0,0,0-.445-3.86,8.094,8.094,0,0,0-.445-.816l-8.091-16.7a1.468,1.468,0,0,1-.148-.816,2.3,2.3,0,0,1,.148-.594,2.979,2.979,0,0,1,.965-1.188,12.447,12.447,0,0,1,7.942-2.746,6.229,6.229,0,0,1,3.192.965,5.212,5.212,0,0,1,2.078,2.3Z" transform="translate(-67.5 -22.78)"/></g></g></svg>