<svg xmlns="http://www.w3.org/2000/svg" xmlns:xlink="http://www.w3.org/1999/xlink" width="100" height="55.777" viewBox="0 0 100 55.777"><defs><style>.a{fill:url(#a);}.b{fill:url(#b);}.c{fill:url(#c);}.ab,.d{fill:#fff;}.d,.k{opacity:0.5;}.e{opacity:0.4;}.f{fill:url(#d);}.g{fill:url(#e);}.h{fill:url(#f);}.i{opacity:0.6;}.j{fill:url(#g);}.l{fill:url(#h);}.m{fill:url(#i);}.n{fill:url(#j);}.o{fill:url(#k);}.p{fill:url(#l);}.q{fill:url(#m);}.r{fill:url(#n);}.s{fill:url(#o);}.t{fill:url(#p);}.u{fill:url(#q);}.v{fill:url(#r);}.w{opacity:0.57;}.x{fill:url(#s);}.y{fill:none;stroke:#707070;stroke-linecap:round;stroke-linejoin:round;stroke-miterlimit:10;stroke-width:1.465px;}.z{fill:url(#t);}.aa{opacity:0.35;}.ac{fill:url(#u);}.ad{fill:url(#v);}.ae{opacity:0.25;}.af{fill:url(#w);}.ag{fill:url(#x);}.ah{fill:url(#y);}.ai{fill:url(#z);}.aj{fill:url(#aa);}.ak{fill:url(#ab);}.al{fill:url(#ac);}.am{fill:url(#ad);}.an{fill:#b4b1f1;}.ao{fill:url(#ae);}.ap{fill:url(#af);}.aq{fill:url(#ag);}.ar{fill:url(#ah);}.as{fill:url(#ai);}.at{fill:url(#aj);}.au{fill:url(#ak);}.av{fill:url(#al);}.aw{opacity:0.1;fill:url(#am);}.ax{opacity:0.2;fill:url(#an);}.ay{opacity:0.14;fill:url(#ao);}.az{fill:url(#ap);}</style><linearGradient id="a" x1="-2.472" y1="-1.346" x2="1.435" y2="-1.346" gradientUnits="objectBoundingBox"><stop offset="0" stop-color="#ddcacf"/><stop offset="0.366" stop-color="#e5e3df"/><stop offset="1" stop-color="#c1bbfa"/></linearGradient><linearGradient id="b" x1="0.48" y1="0.198" x2="0.538" y2="0.959" gradientUnits="objectBoundingBox"><stop offset="0" stop-color="#5266b3"/><stop offset="1" stop-color="#d4c5dd"/></linearGradient><linearGradient id="c" x1="-0.241" y1="0.499" x2="1.016" y2="0.499" xlink:href="#a"/><linearGradient id="d" x1="0.001" y1="0.501" x2="1.001" y2="0.501" gradientUnits="objectBoundingBox"><stop offset="0" stop-color="#fff"/><stop offset="1" stop-color="#fff"/></linearGradient><linearGradient id="e" x1="-17.127" y1="-3.54" x2="-15.65" y2="-3.541" gradientUnits="objectBoundingBox"><stop offset="0" stop-color="#44354c"/><stop offset="0.122" stop-color="#523d54" stop-opacity="0.878"/><stop offset="0.352" stop-color="#765267" stop-opacity="0.647"/><stop offset="0.664" stop-color="#b07487" stop-opacity="0.337"/><stop offset="1" stop-color="#f69dae" stop-opacity="0"/></linearGradient><linearGradient id="f" x1="0.411" y1="0.171" x2="0.58" y2="0.817" gradientUnits="objectBoundingBox"><stop offset="0" stop-color="#868bb3"/><stop offset="1" stop-color="#c1bbfa"/></linearGradient><linearGradient id="g" x1="-0.018" y1="0.916" x2="1.054" y2="0.15" gradientUnits="objectBoundingBox"><stop offset="0" stop-color="#ddd9ff"/><stop offset="1" stop-color="#e7f9fa"/></linearGradient><linearGradient id="h" x1="-0.048" y1="0.793" x2="0.99" y2="0.067" gradientUnits="objectBoundingBox"><stop offset="0" stop-color="#5266b3"/><stop offset="1" stop-color="#c1bbfa"/></linearGradient><linearGradient id="i" x1="-0.022" y1="0.832" x2="1.026" y2="0.322" xlink:href="#g"/><linearGradient id="j" x1="-0.04" y1="0.631" x2="0.998" y2="0.269" xlink:href="#h"/><linearGradient id="k" x1="-0.034" y1="0.984" x2="1.084" y2="0.078" xlink:href="#g"/><linearGradient id="l" x1="0.174" y1="1.166" x2="0.958" y2="0.129" xlink:href="#h"/><linearGradient id="m" x1="-0.03" y1="0.832" x2="1.271" y2="0.23" xlink:href="#h"/><linearGradient id="n" x1="0.001" y1="0.659" x2="1.023" y2="0.334" xlink:href="#g"/><linearGradient id="o" x1="-0.011" y1="0.517" x2="1.013" y2="0.446" xlink:href="#h"/><linearGradient id="p" x1="-0.088" y1="0.522" x2="1.016" y2="0.443" xlink:href="#h"/><linearGradient id="q" x1="0.115" y1="2.14" x2="0.897" y2="-1.062" gradientUnits="objectBoundingBox"><stop offset="0" stop-color="#5266b3"/><stop offset="0.506" stop-color="#c7c2fb"/><stop offset="1" stop-color="#9b90df"/></linearGradient><linearGradient id="r" x1="0.795" y1="-0.385" x2="0.209" y2="1.391" xlink:href="#q"/><linearGradient id="s" x1="-0.001" y1="0.486" x2="1.001" y2="0.511" gradientUnits="objectBoundingBox"><stop offset="0" stop-color="#e6e1ff"/><stop offset="1" stop-color="#dae8fa"/></linearGradient><linearGradient id="t" x1="0.478" y1="0.164" x2="0.536" y2="0.858" xlink:href="#b"/><linearGradient id="u" x1="-0.002" y1="0.537" x2="1.002" y2="0.537" gradientUnits="objectBoundingBox"><stop offset="0" stop-color="#88709a"/><stop offset="0.026" stop-color="#8d78a1"/><stop offset="0.114" stop-color="#9a8db6"/><stop offset="0.214" stop-color="#a49cc5"/><stop offset="0.33" stop-color="#a9a4cd"/><stop offset="0.508" stop-color="#aba7d0"/><stop offset="1" stop-color="#816690"/></linearGradient><linearGradient id="v" x1="0.132" y1="-0.653" x2="0.86" y2="1.639" xlink:href="#u"/><linearGradient id="w" x1="-0.009" y1="0.474" x2="1.01" y2="0.474" gradientUnits="objectBoundingBox"><stop offset="0" stop-color="#c1bbfa" stop-opacity="0.502"/><stop offset="1" stop-color="#fff"/></linearGradient><linearGradient id="x" x1="-0.003" y1="0.509" x2="1.004" y2="0.509" xlink:href="#w"/><linearGradient id="y" x1="-0.003" y1="0.509" x2="1.011" y2="0.509" xlink:href="#w"/><linearGradient id="z" x1="169.949" y1="-36.998" x2="171.096" y2="-36.998" gradientUnits="objectBoundingBox"><stop offset="0" stop-color="#816690"/><stop offset="0.492" stop-color="#aba7d0"/><stop offset="0.67" stop-color="#a9a4cd"/><stop offset="0.786" stop-color="#a49cc5"/><stop offset="0.886" stop-color="#9a8db6"/><stop offset="0.975" stop-color="#8d78a1"/><stop offset="1" stop-color="#88709a"/></linearGradient><linearGradient id="aa" x1="194.894" y1="-53.335" x2="195.729" y2="-52.458" xlink:href="#u"/><linearGradient id="ab" x1="1.061" y1="0.16" x2="0.021" y2="0.981" xlink:href="#w"/><linearGradient id="ac" x1="1.043" y1="0.114" x2="0.018" y2="1.045" xlink:href="#w"/><linearGradient id="ad" x1="1.043" y1="0.102" x2="0.018" y2="1.043" xlink:href="#w"/><linearGradient id="ae" x1="-3.645" y1="13.201" x2="-2.5" y2="12.666" gradientUnits="objectBoundingBox"><stop offset="0" stop-color="#88709a"/><stop offset="0.045" stop-color="#8a739e"/><stop offset="0.229" stop-color="#907ba6"/><stop offset="0.508" stop-color="#927ea9"/><stop offset="1" stop-color="#544d90"/></linearGradient><linearGradient id="af" x1="1.052" y1="0.035" x2="0.007" y2="1.012" xlink:href="#w"/><linearGradient id="ag" x1="-0.087" y1="0.751" x2="1.105" y2="0.265" gradientUnits="objectBoundingBox"><stop offset="0" stop-color="#fff"/><stop offset="0.115" stop-color="#f8f9fc" stop-opacity="0.886"/><stop offset="0.28" stop-color="#e5e8f4" stop-opacity="0.722"/><stop offset="0.476" stop-color="#c6cde6" stop-opacity="0.525"/><stop offset="0.695" stop-color="#9ba6d3" stop-opacity="0.306"/><stop offset="0.931" stop-color="#6476bb" stop-opacity="0.071"/><stop offset="1" stop-color="#5266b3" stop-opacity="0"/></linearGradient><linearGradient id="ah" x1="127.272" y1="-261.575" x2="128.083" y2="-263.576" gradientUnits="objectBoundingBox"><stop offset="0" stop-color="#bab2d5"/><stop offset="0.26" stop-color="#b3add3"/><stop offset="0.633" stop-color="#a09fcc"/><stop offset="1" stop-color="#878cc4"/></linearGradient><linearGradient id="ai" x1="-0.014" y1="0.289" x2="1.011" y2="0.94" xlink:href="#w"/><linearGradient id="aj" x1="0.965" y1="-0.011" x2="0.067" y2="1.308" xlink:href="#ag"/><linearGradient id="ak" x1="0.557" y1="0.867" x2="0.363" y2="0.049" gradientUnits="objectBoundingBox"><stop offset="0" stop-color="#a5a3ce"/><stop offset="1" stop-color="#d6d2ea" stop-opacity="0"/></linearGradient><linearGradient id="al" x1="0.537" y1="0.778" x2="0.459" y2="0.245" xlink:href="#ak"/><linearGradient id="am" x1="2.212" y1="-12.628" x2="3.221" y2="-12.628" gradientUnits="objectBoundingBox"><stop offset="0" stop-color="#ddd9ff"/><stop offset="1" stop-color="#c1bbfa"/></linearGradient><linearGradient id="an" x1="3.282" y1="-8.31" x2="4.295" y2="-8.31" xlink:href="#am"/><linearGradient id="ao" x1="2.451" y1="-6.7" x2="3.437" y2="-6.7" xlink:href="#a"/><linearGradient id="ap" x1="0.557" y1="0.867" x2="0.363" y2="0.049" gradientUnits="objectBoundingBox"><stop offset="0" stop-color="#d66278"/><stop offset="0.514" stop-color="#f69dae"/><stop offset="1" stop-color="#f8bed6"/></linearGradient></defs><g transform="translate(-5.234 -26.714)"><path class="a" d="M32.737,44.016c.732-.293,2.2-1.1,3.589-1.831C16.918,50.168,3.882,58.663,5.346,63.057a2.394,2.394,0,0,0,.806,1.1C.879,58.077,31.126,44.6,32.737,44.016Z"/><path class="b" d="M58.517,56.393c25.56-8.569,45.334-19.481,46.506-25.413,0-3-49.508,6.225-62.545,8.715-2.124.806-4.248,1.611-6.225,2.417a20.759,20.759,0,0,1-3.589,1.831C31.126,44.6.879,58.077,6.225,64.229,10.912,68.111,33.1,64.888,58.517,56.393Z"/><path class="c" d="M105.022,29.734c-1.831-5.493-25.633-2.49-53.17,6.738-3.222,1.1-6.3,2.2-9.3,3.3-2.124.806-4.248,1.611-6.225,2.417a20.759,20.759,0,0,1-3.589,1.831C31.126,44.6.879,58.077,6.225,64.229c4.687,3.882,26.951.732,52.365-7.836,25.56-8.569,45.334-19.481,46.506-25.413A2.357,2.357,0,0,0,105.022,29.734Z"/><path class="d" d="M63.2,32.884c.073.073.22.146.293.22h.146c1.025-.366,2.124-.659,3.222-.952A5.766,5.766,0,0,1,69.576,32c.22,0,.513-.073.732-.073C81.074,29.222,91.84,26.8,98.87,27.025,91.547,26.512,78.437,28.563,63.2,32.884Z"/><g class="e"><path class="f" d="M52.438,36.033c3.589-1.172,7.177-2.27,10.766-3.149a46.6,46.6,0,0,1,5.566-1.025,12.467,12.467,0,0,1,2.856-.146,4.6,4.6,0,0,1,1.392.22,2.969,2.969,0,0,1,.659.366.849.849,0,0,1,.293.732,2.272,2.272,0,0,1-.659,1.318,13.533,13.533,0,0,1-1.025,1.025,26.494,26.494,0,0,1-2.344,1.611c-1.611,1.025-3.3,1.831-4.98,2.71a106.736,106.736,0,0,1-10.4,4.248c-3.589,1.245-7.1,2.344-10.766,3.369Q41.05,48.08,38.3,48.63a18.315,18.315,0,0,1-2.783.439,9.347,9.347,0,0,1-2.856.073,2.712,2.712,0,0,1-1.392-.513.874.874,0,0,1-.366-.659,1.2,1.2,0,0,1,.146-.732,6.539,6.539,0,0,1,1.831-2.2,32.269,32.269,0,0,1,4.687-3.076,93.18,93.18,0,0,1,10.473-4.394A75.667,75.667,0,0,0,37.79,42.185,32.269,32.269,0,0,0,33.1,45.261a6.219,6.219,0,0,0-1.758,2.124.991.991,0,0,0,.22,1.172A2.553,2.553,0,0,0,32.81,49a12.044,12.044,0,0,0,2.783-.146c.952-.146,1.831-.293,2.783-.513,1.831-.366,3.662-.879,5.42-1.392,3.589-1.025,7.177-2.2,10.693-3.442a106.212,106.212,0,0,0,10.4-4.175c1.684-.806,3.369-1.684,4.98-2.637a25.32,25.32,0,0,0,2.27-1.611,6.325,6.325,0,0,0,1.025-.952,1.994,1.994,0,0,0,.586-1.172c0-.439-.366-.732-.806-.879a4.147,4.147,0,0,0-1.318-.22A11.84,11.84,0,0,0,68.843,32,48.225,48.225,0,0,0,63.35,33.03C59.615,33.909,56.027,34.934,52.438,36.033Z"/></g><path class="g" d="M55.074,35.374c7.617-1.977,13.915-2.783,14.355-1.245C69.868,35.74,63.2,39.475,55,41.672c-8.276,2.27-13.988,2.783-14.428,1.172-.439-1.538,4.175-4.394,11.5-6.665"/><path class="h" d="M52.145,35.96c3.589-1.172,7.177-2.27,10.839-3.076a46.6,46.6,0,0,1,5.566-1.025c.952-.073,1.9-.146,2.856-.146A3.174,3.174,0,0,1,72.8,32a2.968,2.968,0,0,1,.659.366.849.849,0,0,1,.293.732,2.181,2.181,0,0,1-.586,1.318,6.786,6.786,0,0,1-1.025,1.025,26.021,26.021,0,0,1-2.27,1.684,46.032,46.032,0,0,1-4.907,2.71,106.736,106.736,0,0,1-10.4,4.248c-3.589,1.245-7.1,2.344-10.766,3.369q-2.746.769-5.493,1.318c-.952.146-1.831.366-2.783.439a18.612,18.612,0,0,1-2.856.073,2.926,2.926,0,0,1-1.318-.513,1.92,1.92,0,0,1-.366-.659,2.258,2.258,0,0,1,.073-.732,5.85,5.85,0,0,1,1.758-2.2A32.78,32.78,0,0,1,37.5,42.038,72.345,72.345,0,0,1,47.824,37.5a64.07,64.07,0,0,0-10.18,4.687,28.5,28.5,0,0,0-4.614,3.149,5.863,5.863,0,0,0-1.684,2.124,2.028,2.028,0,0,0-.073.659.741.741,0,0,0,.293.513,1.848,1.848,0,0,0,1.245.439A8.931,8.931,0,0,0,35.593,49c.952-.146,1.831-.293,2.783-.439,1.831-.366,3.662-.879,5.42-1.318,3.589-1.025,7.177-2.2,10.693-3.369a91.1,91.1,0,0,0,10.4-4.248A52.177,52.177,0,0,0,69.8,36.985a25.32,25.32,0,0,0,2.27-1.611,5.854,5.854,0,0,0,.952-.952A2.538,2.538,0,0,0,73.6,33.25a1.018,1.018,0,0,0-.732-.879,4.147,4.147,0,0,0-1.318-.22,17.672,17.672,0,0,0-2.783.073c-1.831.22-3.662.586-5.493.952A85.277,85.277,0,0,0,52.145,35.96Z"/><g class="i"><path class="j" d="M48.923,52.731a2.289,2.289,0,0,1-.659.806,5.463,5.463,0,0,1-.879.513,3.626,3.626,0,0,1-.952.293l-.952.22h0l.879-.366a4.922,4.922,0,0,0,.879-.439c.293-.146.513-.366.806-.513s.586-.366.879-.513Z"/></g><g class="k"><path class="l" d="M43.8,54.562a.665.665,0,0,1-.513-.22.57.57,0,0,1-.146-.586,1.925,1.925,0,0,1,.659-1.025,6.728,6.728,0,0,1,1.977-1.172,4.794,4.794,0,0,1,2.27-.366,1.948,1.948,0,0,1,1.172.439.712.712,0,0,1,.073.659.75.75,0,0,1-.366.439A.78.78,0,0,0,49,51.779a1.328,1.328,0,0,0-.952-.22A7.326,7.326,0,0,0,45.92,52a9.256,9.256,0,0,0-1.9.952,1.557,1.557,0,0,0-.659.732.467.467,0,0,0,0,.439A.652.652,0,0,0,43.8,54.562Z"/></g><g class="i"><path class="m" d="M74.189,44.675a3.523,3.523,0,0,1-.806.659,4.737,4.737,0,0,1-.952.293,4.5,4.5,0,0,1-1.025.073h-.952l.952-.146a4.473,4.473,0,0,0,.952-.22c.293-.073.586-.22.879-.293.293-.146.586-.22.952-.366Z"/></g><g class="k"><path class="n" d="M68.77,45.334c-.146-.073-.366-.146-.439-.366a.547.547,0,0,1,0-.659,1.864,1.864,0,0,1,.879-.806,5.871,5.871,0,0,1,2.2-.659,6.435,6.435,0,0,1,2.344.146,1.7,1.7,0,0,1,1.025.732.712.712,0,0,1-.073.659,1.941,1.941,0,0,1-.439.366c.22-.293.439-.659.293-.879a1.433,1.433,0,0,0-.879-.439,5.184,5.184,0,0,0-2.124,0,6.03,6.03,0,0,0-2.051.513,1.654,1.654,0,0,0-.806.586.484.484,0,0,0-.073.439C68.477,45.041,68.623,45.187,68.77,45.334Z"/></g><g class="i"><path class="o" d="M28.2,56.393a2.707,2.707,0,0,1-.366.806,2.867,2.867,0,0,1-.732.586,2.842,2.842,0,0,1-.806.439l-.806.366h0l.732-.513c.22-.146.439-.366.659-.513a4.419,4.419,0,0,1,.586-.586,5.131,5.131,0,0,1,.732-.586Z"/></g><g class="k"><path class="p" d="M25.78,55.807A2.62,2.62,0,0,1,27.391,55a1.01,1.01,0,0,1,.952.366.752.752,0,0,1-.22.952.8.8,0,0,0-.146-.732.778.778,0,0,0-.586-.073C26.951,55.587,26.439,55.734,25.78,55.807Z"/></g><g class="k"><path class="q" d="M23.949,59.029a.8.8,0,0,1-.586,0A.652.652,0,0,1,23,58.443a2.439,2.439,0,0,1,.366-1.1,6.905,6.905,0,0,1,.732-.732,2.27,2.27,0,0,1,.952-.439c-.439.586-.879,1.025-1.245,1.538a1.951,1.951,0,0,0-.439.732c0,.146,0,.22.073.293A4.2,4.2,0,0,0,23.949,59.029Z"/></g><g class="i"><path class="r" d="M90.228,35.667a1.746,1.746,0,0,1-.806.439c-.293.073-.586.073-.952.146h-.952l-.879-.073h0l.879-.073a3.676,3.676,0,0,0,.879-.146l.879-.22a4.5,4.5,0,0,1,.952-.073Z"/></g><g class="k"><path class="s" d="M89.35,34.495a3.225,3.225,0,0,1,1.172.146c.073.073.22.073.366.22.073.073.073.146.073.293a.44.44,0,0,1-.073.293.523.523,0,0,1-.659.22v-.073c.073-.22.22-.366.22-.439h0a.256.256,0,0,1-.073-.146c-.293-.146-.659-.293-1.025-.513Z"/></g><g class="k"><path class="t" d="M85.1,35.886a.555.555,0,0,1-.293-.146c-.073-.073-.22-.22-.146-.366a2.089,2.089,0,0,1,.513-.586,2.6,2.6,0,0,1,.659-.293,2.747,2.747,0,0,1,.732.073v.073a1.3,1.3,0,0,1-.586.366c-.22.073-.439.073-.586.146a1.192,1.192,0,0,0-.439.22c-.146.146,0,.293.146.513Z"/></g><g class="k"><path class="u" d="M84.736,30.467A2.724,2.724,0,0,1,86.2,30.1c.22,0,.513.146.732.146a2.6,2.6,0,0,0,.732-.146,10.37,10.37,0,0,1,1.465-.293,5.575,5.575,0,0,1,1.538.22V30.1a3.74,3.74,0,0,1-1.465.439,9.338,9.338,0,0,1-1.465-.073,1.248,1.248,0,0,0-.732,0c-.22.073-.513.146-.732.22a1.93,1.93,0,0,1-1.538-.22Z"/></g><g class="k"><path class="v" d="M22.923,53.17a2.45,2.45,0,0,1-1.245.879c-.22.073-.513.073-.732.146a2.969,2.969,0,0,0-.659.366,4.534,4.534,0,0,1-1.245.806,3.334,3.334,0,0,1-1.465.366V55.66a3.541,3.541,0,0,1,1.172-.952A7.809,7.809,0,0,1,20.14,54.2c.22-.073.513-.146.732-.22.22-.146.366-.366.586-.513a2.409,2.409,0,0,1,1.465-.293Z"/></g><g class="w"><path class="x" d="M105.1,29.734a2.881,2.881,0,0,1,0,1.758,5.116,5.116,0,0,1-.806,1.538,19.572,19.572,0,0,1-2.27,2.637,43.4,43.4,0,0,1-5.493,4.175,108.642,108.642,0,0,1-12.157,6.665c-4.175,1.977-8.5,3.662-12.743,5.346-4.394,1.611-8.642,3.222-13.036,4.687A210.763,210.763,0,0,1,32,64.009a96.255,96.255,0,0,1-13.7,1.9,44.129,44.129,0,0,1-6.958,0,14.282,14.282,0,0,1-3.442-.659,7.5,7.5,0,0,1-1.538-.732,3.452,3.452,0,0,1-1.1-1.392h.073a2.586,2.586,0,0,0,1.1,1.245,6.953,6.953,0,0,0,1.538.659,17,17,0,0,0,3.369.513,43.421,43.421,0,0,0,6.884-.146c4.541-.439,9.081-1.245,13.622-2.124,9.008-1.9,17.87-4.321,26.658-7.1,4.394-1.392,8.715-2.929,12.963-4.687,4.248-1.684,8.422-3.662,12.6-5.639a128.728,128.728,0,0,0,12.084-6.591,43.045,43.045,0,0,0,5.566-4.028,12.607,12.607,0,0,0,2.344-2.49,4.13,4.13,0,0,0,.806-1.465,2.641,2.641,0,0,0,.22-1.538Z"/></g><line class="y" x2="2.417" y2="17.577" transform="translate(54.269 63.57)"/><line class="y" x2="9.814" y2="12.524" transform="translate(65.84 60.348)"/><line class="y" x2="9.228" y2="19.115" transform="translate(60.714 62.398)"/><line class="y" x2="1.684" y2="17.577" transform="translate(55.001 63.57)"/><line class="y" x2="9.081" y2="12.524" transform="translate(66.573 60.348)"/><line class="y" x2="8.496" y2="19.115" transform="translate(61.446 62.398)"/><path class="z" d="M58.517,56.393c-25.413,8.5-47.6,11.718-52.291,7.836,0,.073.073.073.073.146,5.786,6.079,19.261,5.493,19.847,5.493s19.408-1.9,27.537-4.467l13.256-4.614s17.138-6.445,23.216-11.572c2.051-1.684,14.574-14.647,14.867-18.236h0C103.851,36.912,84.076,47.824,58.517,56.393Z"/><g class="aa"><path class="ab" d="M43.357,62.252a27.283,27.283,0,0,0-3.442.293,7.152,7.152,0,0,0-1.684.439,2.291,2.291,0,0,0-.732.366.842.842,0,0,0-.439.659.874.874,0,0,0,.366.659,4.024,4.024,0,0,0,.659.513,6.053,6.053,0,0,0,1.611.586,18.046,18.046,0,0,0,3.369.586,13.986,13.986,0,0,1-3.442-.513,10.452,10.452,0,0,1-1.611-.586,2.63,2.63,0,0,1-.732-.513.9.9,0,0,1,.146-1.538,2.707,2.707,0,0,1,.806-.366,6.946,6.946,0,0,1,1.684-.366A17.747,17.747,0,0,1,43.357,62.252Z"/></g><path class="ac" d="M48.483,63.35c-.659.952-3.222,1.172-6.225.879a14.23,14.23,0,0,1-4.687-1.1,1.027,1.027,0,0,0-.586.806c0,1.025,2.637,2.124,6.079,2.27,3.442.22,6.3-.073,6.3-1.538A1.771,1.771,0,0,0,48.483,63.35Z"/><path class="ad" d="M48.483,63.35a11.116,11.116,0,0,0-5.127-1.1c-1.245-.073-4.394.146-5.713.952a16.355,16.355,0,0,0,4.687,1.1C45.261,64.522,47.824,64.376,48.483,63.35Z"/><g class="ae"><path class="af" d="M36.985,64.083a1.116,1.116,0,0,0,.439.732,6.442,6.442,0,0,0,.732.439,14.247,14.247,0,0,0,1.611.586,17.86,17.86,0,0,0,3.369.513,18.017,18.017,0,0,0,3.442,0,11.511,11.511,0,0,0,1.684-.293,1.323,1.323,0,0,0,1.1-1.172,1.176,1.176,0,0,1-.366.806,1.951,1.951,0,0,1-.732.439,6.27,6.27,0,0,1-1.684.366,27.293,27.293,0,0,1-3.442.073,14.124,14.124,0,0,1-3.442-.586,10.452,10.452,0,0,1-1.611-.586,2.63,2.63,0,0,1-.732-.513A1.335,1.335,0,0,1,36.985,64.083Z"/><path class="ag" d="M48.483,63.35a2.461,2.461,0,0,1-1.172.732,4.6,4.6,0,0,1-1.392.22,18.666,18.666,0,0,1-2.856.146,16.994,16.994,0,0,1-2.783-.366,9.036,9.036,0,0,1-2.71-.879,11.4,11.4,0,0,0,2.71.732c.952.146,1.831.22,2.783.293a17.647,17.647,0,0,0,2.783,0,4.6,4.6,0,0,0,1.392-.22A1.76,1.76,0,0,0,48.483,63.35Z"/><g class="aa"><path class="ah" d="M37.571,63.2a11.4,11.4,0,0,0,2.71.732c.952.146,1.831.22,2.783.293a17.647,17.647,0,0,0,2.783,0,4.6,4.6,0,0,0,1.392-.22,2.337,2.337,0,0,0,1.172-.659,2.461,2.461,0,0,1-1.172.732,4.6,4.6,0,0,1-1.392.22,17.268,17.268,0,0,1-2.783.146,16.994,16.994,0,0,1-2.783-.366A9.036,9.036,0,0,1,37.571,63.2Z"/></g></g><path class="ai" d="M71.7,54.562c1.1.659,3.442-.439,5.932-2.124a11.988,11.988,0,0,0,3.515-3.369,1.536,1.536,0,0,1,1.025.513c.586,1.1-1.172,3.442-4.028,5.273-2.856,1.9-5.566,3-6.372,1.538A1.653,1.653,0,0,1,71.7,54.562Z"/><path class="aj" d="M71.7,54.562a9.347,9.347,0,0,1,3.882-3.589c1.1-.659,3.955-1.977,5.566-1.831a12.991,12.991,0,0,1-3.515,3.369C75.142,54.122,72.8,55.221,71.7,54.562Z"/><g class="ae"><path class="ak" d="M82.1,49.655a1.225,1.225,0,0,1,.073.879c-.073.293-.22.586-.293.806a5.131,5.131,0,0,1-1.1,1.392A15.92,15.92,0,0,1,78.071,55a18.666,18.666,0,0,1-3.149,1.684,4.782,4.782,0,0,1-1.758.439,1.858,1.858,0,0,1-.879-.146,1.729,1.729,0,0,1-.659-.586,1.169,1.169,0,0,0,.659.513,1.634,1.634,0,0,0,.952.22,6.334,6.334,0,0,0,1.684-.439A20.653,20.653,0,0,0,78,55a19.729,19.729,0,0,0,2.71-2.2,6.563,6.563,0,0,0,1.1-1.392,2.708,2.708,0,0,0,.366-.806A1.392,1.392,0,0,0,82.1,49.655Z"/><path class="al" d="M71.7,54.562a1.838,1.838,0,0,0,1.392.073,4.655,4.655,0,0,0,1.318-.439A16.61,16.61,0,0,0,76.9,52.8a13.038,13.038,0,0,0,2.27-1.684,12.412,12.412,0,0,0,1.9-2.051,13.256,13.256,0,0,1-1.831,2.2,26.766,26.766,0,0,1-2.27,1.758,16.193,16.193,0,0,1-2.49,1.318,7.737,7.737,0,0,1-1.392.439A2.172,2.172,0,0,1,71.7,54.562Z"/><g class="aa"><path class="am" d="M81.074,49.142a10.347,10.347,0,0,1-1.831,2.124,26.766,26.766,0,0,1-2.27,1.758,16.193,16.193,0,0,1-2.49,1.318,7.737,7.737,0,0,1-1.392.439,1.9,1.9,0,0,1-1.392-.22,1.838,1.838,0,0,0,1.392.073,4.655,4.655,0,0,0,1.318-.439A16.61,16.61,0,0,0,76.9,52.8a13.038,13.038,0,0,0,2.27-1.684A9.714,9.714,0,0,0,81.074,49.142Z"/></g></g><path class="an" d="M75.508,50.973a16.307,16.307,0,0,1,3.222-1.538A7.725,7.725,0,0,1,80.488,49h.879a1.392,1.392,0,0,1,.806.513,1.428,1.428,0,0,1,.073.952,2.707,2.707,0,0,1-.366.806,6.563,6.563,0,0,1-1.1,1.392A11.517,11.517,0,0,1,78,54.855a20.226,20.226,0,0,0,2.71-2.27,9.744,9.744,0,0,0,1.025-1.392,1.625,1.625,0,0,0,.22-1.611c-.293-.513-.952-.513-1.538-.513a11.378,11.378,0,0,0-1.684.366C77.632,49.948,76.606,50.387,75.508,50.973Z"/><path class="ao" d="M98.211,39.695c-.146-.146-.366,0-.732.146a31.107,31.107,0,0,0-4.394,3.735,24.271,24.271,0,0,0-3.3,3.955c-.293.513-.366.952-.22,1.172.513.513,2.637-1.465,4.98-3.955C97.04,42.258,98.577,39.988,98.211,39.695Z"/><g class="k"><path class="ap" d="M98.211,39.695c.146.22-.073.513-.146.732a6.8,6.8,0,0,0-.366.732,14.85,14.85,0,0,1-.952,1.318,22.77,22.77,0,0,1-2.124,2.417l-2.27,2.27a8.431,8.431,0,0,1-1.245,1.025l-.659.439c-.22.073-.513.293-.732.073.22.146.513,0,.732-.146l.659-.439a7.839,7.839,0,0,0,1.172-1.025c.806-.732,1.538-1.538,2.27-2.27A22.769,22.769,0,0,0,96.673,42.4a14.08,14.08,0,0,0,.952-1.245l.439-.659C98.138,40.207,98.358,39.914,98.211,39.695Z"/></g><g class="e"><path class="an" d="M93.158,43.576c.732-.806,1.465-1.538,2.27-2.27a8.431,8.431,0,0,1,1.245-1.025l.659-.439a1.333,1.333,0,0,1,.806-.293.234.234,0,0,1,.22.22v.22a.559.559,0,0,1-.146.366,6.442,6.442,0,0,0-.439.732c-.293.439-.659.879-.952,1.318-.659.806-1.392,1.611-2.124,2.417.732-.806,1.392-1.611,2.051-2.49.293-.439.659-.879.952-1.318a2.969,2.969,0,0,0,.366-.659c.073-.146.073-.22.146-.366,0-.146,0-.22-.073-.22a1.316,1.316,0,0,0-.659.293l-.659.439a8.43,8.43,0,0,0-1.245,1.025A16.258,16.258,0,0,0,93.158,43.576Z"/></g><g class="i"><path class="aq" d="M91.473,45.847a11.8,11.8,0,0,1-1.1,1.9c-.073.146-.22.293-.293.439,0,.073,0,.073-.073.073h.22a2.534,2.534,0,0,0,.806-.732c.439-.586.952-1.1,1.465-1.684a16.094,16.094,0,0,1,1.684-1.465h.073a8.336,8.336,0,0,1-1.318,1.831,8.076,8.076,0,0,1-1.684,1.465,10.714,10.714,0,0,1-.952.659.291.291,0,0,1-.366.073.348.348,0,0,1-.22-.366,1.4,1.4,0,0,1,.22-.586,4.071,4.071,0,0,1,1.538-1.611Z"/></g><path class="ar" d="M13.109,67.818c0-.146.293-.293.659-.293a30.415,30.415,0,0,1,5.786.146A19.346,19.346,0,0,1,24.608,68.7c.586.22.879.513.879.732-.073.659-3,.513-6.372.073C15.6,69.063,13.036,68.33,13.109,67.818Z"/><g class="k"><path class="as" d="M13.109,67.818c.073.293.366.366.586.439s.513.146.732.22a11.707,11.707,0,0,0,1.538.366c1.025.22,2.124.366,3.149.513s2.124.293,3.149.366a11.866,11.866,0,0,0,1.611.073,3,3,0,0,0,.806-.073c.22-.073.586-.073.659-.366-.073.293-.439.366-.659.366a3,3,0,0,1-.806.073H22.264c-1.1-.073-2.124-.146-3.222-.293-1.025-.146-2.124-.366-3.149-.586a12.122,12.122,0,0,1-1.538-.439,3.06,3.06,0,0,1-.732-.293C13.476,68.184,13.109,68.111,13.109,67.818Z"/></g><g class="e"><path class="an" d="M19.481,67.671c-1.1-.073-2.124-.146-3.222-.146H14.647a3,3,0,0,0-.806.073,2.79,2.79,0,0,0-.732.22c-.073.073,0,.146.073.22s.22.146.293.22a3.061,3.061,0,0,0,.732.293l1.538.439c1.025.22,2.124.439,3.149.586a21.733,21.733,0,0,1-3.149-.513c-.513-.146-1.025-.22-1.538-.366a3.061,3.061,0,0,1-.732-.293c-.146-.073-.22-.146-.366-.22-.073-.073-.146-.073-.146-.146-.073-.073,0-.22.073-.293a1.8,1.8,0,0,1,.806-.293c.293,0,.513-.073.806-.073h1.611A15.52,15.52,0,0,1,19.481,67.671Z"/></g><g class="i"><path class="at" d="M22.264,68.257a5.6,5.6,0,0,1,2.2.439,1.121,1.121,0,0,1,.513.366.313.313,0,0,1,.073.439.66.66,0,0,1-.366.073,5.92,5.92,0,0,1-1.172.073,11.776,11.776,0,0,1-2.27-.073,12.2,12.2,0,0,1-2.2-.586v-.073c.732,0,1.465,0,2.2.073s1.465.22,2.2.366a1.872,1.872,0,0,0,1.1,0,.256.256,0,0,0,.146-.073l-.073-.073a4.669,4.669,0,0,0-.513-.146,6.36,6.36,0,0,1-1.831-.806Z"/></g><path class="au" d="M63.717,34.495c0-.146-.073-.22-.073-.366-1.465-5.346-7.25-8.788-14.428-6.884C42.478,29,38.01,34.568,39.328,40.207a8.639,8.639,0,0,0,1.245,2.929h0c.952,1.172,6.372.513,12.6-1.684,5.42-1.9,9.667-4.321,10.693-5.859C63.79,35.154,63.79,34.861,63.717,34.495Z"/><path class="av" d="M63.717,34.495a4.286,4.286,0,0,1,.146.952C62.838,37.058,58.59,39.4,53.17,41.306c-6.225,2.2-11.718,2.929-12.6,1.684,0-.073-.073-.146-.073-.22-.513-1.465,4.394-4.467,10.912-6.738,5.639-1.977,10.693-2.783,12.3-1.977Q63.607,34.385,63.717,34.495Z"/><path class="aw" d="M47.385,29.881c.879-1.172,9.008-2.637,10.693-1.172s-5.639,4.467-7.324,4.541C49.069,33.4,45.554,32.3,47.385,29.881Z"/><path class="ax" d="M54.489,40.207s4.1-1.611,5.346-2.71c1.318-1.1-.073-6.665-4.394-4.467C51.266,35.227,52.658,39.621,54.489,40.207Z"/><path class="ay" d="M42.258,43.576c-1.1.073-2.49-5.42-.073-8.569s6.958,2.417,5.2,3.955c-1.758,1.611,3.589,2.417,3.589,2.417A20.574,20.574,0,0,1,42.258,43.576Z"/><path class="az" d="M63.717,34.495c0-.146-.073-.22-.073-.366-1.465-5.346-7.25-8.788-14.428-6.884C42.478,29,38.01,34.568,39.328,40.207a8.639,8.639,0,0,0,1.245,2.929h0c.952,1.172,6.372.513,12.6-1.684,5.42-1.9,9.667-4.321,10.693-5.859C63.79,35.154,63.79,34.861,63.717,34.495Z"/><path class="av" d="M63.717,34.495a4.286,4.286,0,0,1,.146.952C62.838,37.058,58.59,39.4,53.17,41.306c-6.225,2.2-11.718,2.929-12.6,1.684,0-.073-.073-.146-.073-.22-.513-1.465,4.394-4.467,10.912-6.738,5.639-1.977,10.693-2.783,12.3-1.977Q63.607,34.385,63.717,34.495Z"/><path class="aw" d="M47.385,29.881c.879-1.172,9.008-2.637,10.693-1.172s-5.639,4.467-7.324,4.541C49.069,33.4,45.554,32.3,47.385,29.881Z"/><path class="ax" d="M54.489,40.207s4.1-1.611,5.346-2.71c1.318-1.1-.073-6.665-4.394-4.467C51.266,35.227,52.658,39.621,54.489,40.207Z"/><path class="ay" d="M42.258,43.576c-1.1.073-2.49-5.42-.073-8.569s6.958,2.417,5.2,3.955c-1.758,1.611,3.589,2.417,3.589,2.417A20.574,20.574,0,0,1,42.258,43.576Z"/></g></svg>