<svg id="landing" xmlns="http://www.w3.org/2000/svg" viewBox="0 0 182.23 44.38">
    <defs>
        <style>
            .cls-1 {
                fill: #111;
            }
        </style>
    </defs>
    <g id="Umbrella_Network_Logo" data-name="Umbrella Network Logo">
        <g id="Text">
            <path class="cls-1"
                d="M70.5,16.27v7.15a2.9,2.9,0,1,1-5.79,0V16.27h-1.8v7.17a4.7,4.7,0,0,0,9.39,0V16.27Zm18.83,0-3.81,9-3.81-9H78.89V27.94h1.77v-10l4.25,10.05h1.22l4.25-10v10h1.76V16.27Zm16,5.52a2.65,2.65,0,0,0,2.33-2.68c0-1.67-1.4-2.84-3.6-2.84h-5.2V27.94h5.28c2.19,0,3.82-1.38,3.82-3.22A3,3,0,0,0,105.31,21.79Zm-4.7-4h3.23c1.24,0,2,.64,2,1.58s-.72,1.77-2.18,1.77h-3Zm3.31,8.64h-3.31V22.56h3.08c1.85,0,2.45,1.1,2.45,2A2,2,0,0,1,103.92,26.43Z" />
            <path class="cls-1"
                d="M120,23.18a3.52,3.52,0,0,0,3.2-3.46c0-1.95-1.65-3.45-4-3.45h-5.15V27.94h1.8v-4.7h2.29l3.15,4.7h2.3Zm-4.15-1.44V17.82h3.29a2.07,2.07,0,0,1,2.3,1.92,2.1,2.1,0,0,1-2.3,2Z" />
            <rect class="cls-1" x="129.37" y="16.27" width="8.12" height="1.57" />
            <polygon class="cls-1"
                points="131.13 26.38 131.13 22.61 137.27 22.61 137.27 21.09 129.37 21.09 129.37 27.94 137.48 27.94 137.48 26.38 131.13 26.38" />
            <path class="cls-1" d="M145.62,26.34V16.27h-1.8V27.94h7.8v-1.6Z" />
            <path class="cls-1" d="M159.16,26.34V16.27h-1.8V27.94h7.8v-1.6Z" />
            <path class="cls-1" d="M177.62,16.27h-2.47l-4.62,11.67h1.95l3.9-10.17,3.9,10.17h1.95Z" />
        </g>
        <path id="Icon" class="cls-1"
            d="M54.67,25.81a26.16,26.16,0,0,0-5.83-14.12,2.63,2.63,0,0,0,.68-1.76,2.65,2.65,0,0,0-2.65-2.65A2.61,2.61,0,0,0,45.11,8,26.19,26.19,0,0,0,31,2.13a2.64,2.64,0,0,0-5.18,0A26.16,26.16,0,0,0,11.69,8a2.63,2.63,0,0,0-1.76-.68A2.65,2.65,0,0,0,7.28,9.93,2.63,2.63,0,0,0,8,11.69,26.08,26.08,0,0,0,2.13,25.81a2.64,2.64,0,1,0,3.11,2.11l7.21-3.28a2.66,2.66,0,0,0,2.07,1,2.64,2.64,0,0,0,2.15-1.11l9.11,3.55a2.62,2.62,0,0,0,2,2.89v8.1a2.7,2.7,0,1,0,1.28,0V31a2.63,2.63,0,0,0,2-2.89l9.33-3.64a2.62,2.62,0,0,0,3.95-.1l7.27,3.53a2.64,2.64,0,1,0,3.1-2.05ZM46.87,8.56a1.37,1.37,0,1,1-1.36,1.37A1.37,1.37,0,0,1,46.87,8.56ZM44.39,9a2.56,2.56,0,0,0-.11,1.4l-7.6,3L30.39,4.38a2.76,2.76,0,0,0,.54-1A24.92,24.92,0,0,1,44.39,9ZM27.48,5.13l.28.08v9.6a2.72,2.72,0,0,0-1.47,1L21.5,13.91Zm1,10.87a1.42,1.42,0,0,1,0,2.84,1.42,1.42,0,0,1,0-2.84ZM29,14.77V5.21l.29-.09L35.46,14l-4.78,1.9A2.67,2.67,0,0,0,29,14.77ZM28.4,1.28A1.36,1.36,0,1,1,27,2.65,1.36,1.36,0,0,1,28.4,1.28ZM25.87,3.41a2.73,2.73,0,0,0,.55,1l-6.14,9-7.74-3.12A3,3,0,0,0,12.41,9,24.92,24.92,0,0,1,25.87,3.41ZM9.93,8.56A1.37,1.37,0,1,1,8.56,9.93,1.37,1.37,0,0,1,9.93,8.56ZM2.64,29.76A1.36,1.36,0,1,1,4,28.4,1.36,1.36,0,0,1,2.64,29.76ZM11.87,23a2.61,2.61,0,0,0,.05.48L4.71,26.75a2.63,2.63,0,0,0-1.3-.88A24.92,24.92,0,0,1,9,12.41a2.64,2.64,0,0,0,3-.93l7.47,3-4.09,6A2.66,2.66,0,0,0,11.87,23Zm2.65,1.36A1.36,1.36,0,1,1,15.88,23,1.36,1.36,0,0,1,14.52,24.35Zm2.14-2.9a1.2,1.2,0,0,0-.17-.21L20.75,15l5.06,2a2.39,2.39,0,0,0,0,.77Zm9.58,5.42-9.1-3.55a2.08,2.08,0,0,0,0-.68L26.29,19a2.72,2.72,0,0,0,1.47,1v5.82A2.55,2.55,0,0,0,26.24,26.87Zm3.58,14.81a1.42,1.42,0,1,1-1.42-1.42A1.43,1.43,0,0,1,29.82,41.68ZM28.4,29.76a1.36,1.36,0,1,1,1.36-1.36A1.36,1.36,0,0,1,28.4,29.76Zm2.15-2.89a2.55,2.55,0,0,0-1.51-1V20.06A2.69,2.69,0,0,0,30.67,19l9,3.62a2.37,2.37,0,0,0,.09.68Zm.6-9.06a2.42,2.42,0,0,0,0-.76l5.05-2,4.08,5.87a3.17,3.17,0,0,0-.33.46ZM42.28,24a1.37,1.37,0,1,1,1.36-1.36A1.37,1.37,0,0,1,42.28,24Zm9.85,2.7-7.26-3.52A2.64,2.64,0,0,0,42.28,20a2.8,2.8,0,0,0-.94.18l-3.9-5.63,7.38-2.95a2.63,2.63,0,0,0,3,.82,24.92,24.92,0,0,1,5.62,13.46A2.65,2.65,0,0,0,52.13,26.7Zm2,3.06a1.36,1.36,0,1,1,1.37-1.36A1.36,1.36,0,0,1,54.15,29.76Z" />
    </g>
</svg>