<svg xmlns="http://www.w3.org/2000/svg" width="25" height="25" viewBox="0 0 25 25"><defs><style>.a{fill:none;}.b{fill:#fff;}</style></defs><rect class="a" width="25" height="25"/><rect class="a" width="25" height="25"/><path class="b" d="M10.872,0a10.867,10.867,0,0,0-3.59,21.125c.571.143.483-.262.483-.539V18.7c-3.3.386-3.43-1.8-3.651-2.159-.447-.763-1.5-.957-1.188-1.321.751-.386,1.516.1,2.4,1.406a2.3,2.3,0,0,0,2.526.632A3.064,3.064,0,0,1,8.7,15.784c-3.415-.612-4.839-2.7-4.839-5.174a4.782,4.782,0,0,1,1.173-3.2A4.238,4.238,0,0,1,5.152,4.5,4.973,4.973,0,0,1,8.145,5.6a10.553,10.553,0,0,1,2.742-.33,10.562,10.562,0,0,1,2.757.338A4.873,4.873,0,0,1,16.59,4.537,4.267,4.267,0,0,1,16.724,7.4a4.783,4.783,0,0,1,1.188,3.214c0,2.482-1.433,4.569-4.858,5.171A3.1,3.1,0,0,1,13.979,18v2.733c.019.219,0,.435.364.435A10.868,10.868,0,0,0,10.872,0Z" transform="translate(1.555 1.853)"/><rect class="a" width="25" height="25"/></svg>