<svg xmlns="http://www.w3.org/2000/svg" width="23" height="23" viewBox="0 0 23 23">
    <defs>
        <style>
            .a {
                fill: #fff;
            }
        </style>
    </defs>
    <g transform="translate(-11.561 -11.571)">
        <g transform="translate(11.56 11.571)">
            <path class="a"
                d="M16.41,4.94A11.5,11.5,0,1,1,4.91,16.456,11.5,11.5,0,0,1,16.41,4.94Zm-.143,15.249c.894.666,1.779,1.339,2.68,1.989.65.469,1.035.325,1.228-.448.136-.549.23-1.107.345-1.661.5-2.352,1.022-4.7,1.5-7.058.161-.632-.206-1.282-1.105-.94q-3.115,1.188-6.224,2.394c-1.488.575-2.981,1.15-4.457,1.749a.708.708,0,0,0-.138.076.495.495,0,0,0,.125.871h.007a20.967,20.967,0,0,0,2.146.639,1.388,1.388,0,0,0,.937-.115c1.973-1.2,3.922-2.44,5.88-3.662.182-.115.374-.277.484-.159s-.064.221-.255.4c-1.482,1.357-3.105,2.858-4.583,4.217-.13.115-.322.261-.33.412-.039.747-.084,1.7-.08,2.363a.261.261,0,0,0,.436.193Z"
                transform="translate(-4.91 -4.94)" />
        </g>
    </g>
</svg>