<svg xmlns="http://www.w3.org/2000/svg" width="25" height="25" viewBox="0 0 25 25"><defs><style>.a{fill:none;}.b{fill:#fff;}</style></defs><rect class="a" width="25" height="25"/><rect class="a" width="25" height="25"/><path class="b" d="M20.212,1.951a8.305,8.305,0,0,1-2.385.641A4.132,4.132,0,0,0,19.649.308a8.177,8.177,0,0,1-2.628,1A4.145,4.145,0,0,0,9.852,4.144a4.757,4.757,0,0,0,.1.95A11.771,11.771,0,0,1,1.414.758,4.154,4.154,0,0,0,2.7,6.3,4.178,4.178,0,0,1,.823,5.774v.051A4.143,4.143,0,0,0,4.144,9.891a4.387,4.387,0,0,1-1.091.141,5.509,5.509,0,0,1-.782-.063,4.149,4.149,0,0,0,3.872,2.874A8.3,8.3,0,0,1,1,14.613a8.468,8.468,0,0,1-1-.051A11.729,11.729,0,0,0,6.362,16.42,11.706,11.706,0,0,0,18.147,4.632c0-.18,0-.359-.012-.539A8.918,8.918,0,0,0,20.212,1.951Z" transform="translate(2.33 4.227)"/><rect class="a" width="25" height="25"/></svg>